<svg height="115" preserveAspectRatio="xMinYMin meet" viewBox="500 450 319 115" width="319" xmlns="http://www.w3.org/2000/svg" xmlns:xlink="http://www.w3.org/1999/xlink" zoomAndPan="disable">
 <clipPath id="a">
  <path d="m0 0h317v97h-317z"/>
 </clipPath>
 <clipPath id="b">
  <path d="m-29-40h317v115h-317z"/>
 </clipPath>
 <clipPath id="c">
  <path d="m-29-40h317v115h-317z"/>
 </clipPath>
 <clipPath id="d">
  <path d="m-29-40h317v115h-317z"/>
 </clipPath>
 <clipPath id="e">
  <path d="m-29-40h317v115h-317z"/>
 </clipPath>
 <clipPath id="f">
  <path d="m-200.477-101h317v115h-317z"/>
 </clipPath>
 <clipPath id="g">
  <path d="m-171.352-61h317v115h-317z"/>
 </clipPath>
 <clipPath id="h">
  <path d="m-228.586-61h317.0001v115h-317.0001z"/>
 </clipPath>
 <g fill="none" fill-rule="evenodd" stroke="#000" stroke-linecap="square" stroke-linejoin="bevel">
  <g stroke="none">
   <path d="m501 451h317v113h-317z" fill="#fff" fill-rule="evenodd" pointer-events="none"/>
   <g transform="translate(501 451)">
    <path d="m0 .5c0-.276142.223858-.5.5-.5h316c.276 0 .5.223858.5.5v96c0 .2761-.224.5-.5.5h-316c-.276142 0-.5-.2239-.5-.5z" fill="#fff" fill-rule="evenodd"/>
    <g clip-path="url(#a)" fill="none" stroke-opacity="0">
     <path d="m0 0h317v97h-317z" fill-rule="evenodd"/>
    </g>
   </g>
  </g>
  <g fill="#fff">
   <g transform="translate(530 489)">
    <path d="m0 0h59.5625v21h-59.5625z" fill-rule="evenodd" stroke="none"/>
    <g stroke-linecap="square" stroke-linejoin="bevel">
     <g clip-path="url(#b)" stroke="#000">
      <text fill="#000" font-family="Courier New" font-size="16" font-weight="700" stroke="none" textLength="9.59375" x="1" y="15">'</text>
     </g>
     <g clip-path="url(#c)" stroke="#f00">
      <text fill="#f00" font-family="Courier New" font-size="16" font-weight="700" stroke="none" textLength="9.59375" x="10.5938" y="15">*</text>
     </g>
     <g clip-path="url(#d)" stroke="#f00">
      <text fill="#f00" font-family="Courier New" font-size="16" font-weight="700" stroke="none" textLength="9.59375" x="39.375" y="15">*</text>
     </g>
     <g clip-path="url(#e)" stroke="#000">
      <text fill="#000" font-family="Courier New" font-size="16" font-weight="700" stroke="none" textLength="9.59375" x="48.9688" y="15">'</text>
     </g>
    </g>
   </g>
   <path d="m0 0h120v97h-120z" fill-rule="evenodd" stroke="none" transform="translate(658 451)"/>
  </g>
  <path d="m0 0h120v97h-120z" fill="none" stroke="#000" stroke-linecap="butt" stroke-linejoin="miter" stroke-miterlimit="2" transform="translate(658 451)"/>
  <g clip-path="url(#f)" fill="none" stroke="#000" stroke-linecap="square" stroke-linejoin="bevel" transform="translate(701.477 550)">
   <text fill="#000" font-family="Arial" font-size="10" font-weight="400" stroke="none" textLength="30" x="1" y="10">parent</text>
  </g>
  <path d="m0 0h35v37h-35z" fill="#fff" fill-rule="evenodd" stroke="none" transform="translate(670 471)"/>
  <path d="m0 0h35v37h-35z" style="fill:none;stroke:#e60000;stroke-linecap:butt;stroke-linejoin:miter;stroke-miterlimit:2;stroke-width:2" transform="translate(670 471)"/>
  <g clip-path="url(#g)" fill="none" stroke="#e60000" stroke-linecap="square" stroke-linejoin="bevel" transform="translate(672.352 510)">
   <text fill="#e60000" font-family="Arial" font-size="10" font-weight="400" stroke="none" textLength="28.2969" x="1" y="10">sibling</text>
  </g>
  <path d="m0 0h35v37h-35z" fill="#fff" fill-rule="evenodd" stroke="none" transform="translate(730 471)"/>
  <g fill="none" stroke="#e60000">
   <path d="m0 0h35v37h-35z" stroke-linecap="butt" stroke-linejoin="miter" stroke-miterlimit="2" stroke-width="2" transform="translate(730 471)"/>
   <g clip-path="url(#h)" stroke-linecap="square" stroke-linejoin="bevel" transform="translate(729.586 510)">
    <text fill="#e60000" font-family="Arial" font-size="10" font-weight="400" stroke="none" textLength="31" x="1" xml:space="preserve" y="10"> sibling</text>
   </g>
  </g>
 </g>
</svg>
