<svg height="67" preserveAspectRatio="xMinYMin meet" viewBox="486 543 336.05 67" width="336.054688" xmlns="http://www.w3.org/2000/svg" xmlns:xlink="http://www.w3.org/1999/xlink" zoomAndPan="disable">
 <clipPath id="a">
  <path d="m0 0h317v37h-317z"/>
 </clipPath>
 <clipPath id="b">
  <path d="m-29-10h334.055v67h-334.055z"/>
 </clipPath>
 <clipPath id="c">
  <path d="m-29-10h334.055v67h-334.055z"/>
 </clipPath>
 <clipPath id="d">
  <path d="m-29-10h334.055v67h-334.055z"/>
 </clipPath>
 <clipPath id="e">
  <path d="m-29-10h334.055v67h-334.055z"/>
 </clipPath>
 <clipPath id="f">
  <path d="m-29-10h334.055v67h-334.055z"/>
 </clipPath>
 <clipPath id="g">
  <path d="m-149.414-41h334.055v67h-334.055z"/>
 </clipPath>
 <clipPath id="h">
  <path d="m-188.945-41h334.054v67h-334.054z"/>
 </clipPath>
 <g fill="none" fill-rule="evenodd" stroke="#000" stroke-linecap="square" stroke-linejoin="bevel">
  <g stroke="none">
   <path d="m487 544h334.055v65h-334.055z" fill="#fff" fill-rule="evenodd" pointer-events="none"/>
   <g transform="translate(487 544)">
    <path d="m0 .5c0-.276142.223858-.5.5-.5h316c.276 0 .5.223858.5.5v36c0 .2761-.224.5-.5.5h-316c-.276142 0-.5-.2239-.5-.5z" fill="#fff" fill-rule="evenodd"/>
    <g clip-path="url(#a)" fill="none" stroke-opacity="0">
     <path d="m0 0h317v37h-317z" fill-rule="evenodd"/>
    </g>
   </g>
  </g>
  <g fill="#fff">
   <g transform="translate(516 552)">
    <path d="m0 0h59.5625v21h-59.5625z" fill-rule="evenodd" stroke="none"/>
    <g stroke-linecap="square" stroke-linejoin="bevel">
     <g clip-path="url(#b)" stroke="#000">
      <text fill="#000" font-family="Courier New" font-size="16" font-weight="700" stroke="none" textLength="9.59375" x="1" y="15">'</text>
     </g>
     <g clip-path="url(#c)" stroke="#f00">
      <text fill="#f00" font-family="Courier New" font-size="16" font-weight="700" stroke="none" textLength="9.59375" x="10.5938" y="15">*</text>
     </g>
     <g clip-path="url(#d)" stroke="#000">
      <text fill="#000" font-family="Courier New" font-size="16" font-weight="700" stroke="none" textLength="4" x="20.1875" y="15">,</text>
     </g>
     <g clip-path="url(#e)" stroke="#0070c0">
      <text fill="#0070c0" font-family="Courier New" font-size="16" font-weight="700" stroke="none" textLength="9.59375" x="39.375" y="15">*</text>
     </g>
     <g clip-path="url(#f)" stroke="#000">
      <text fill="#000" font-family="Courier New" font-size="16" font-weight="700" stroke="none" textLength="9.59375" x="48.9688" y="15">'</text>
     </g>
    </g>
   </g>
   <path d="m0 0h35v37h-35z" fill-rule="evenodd" stroke="none" transform="translate(641 544)"/>
  </g>
  <path d="m0 0h35v37h-35z" style="fill:none;stroke:#e60000;stroke-linecap:butt;stroke-linejoin:miter;stroke-miterlimit:2;stroke-width:2" transform="translate(641 544)"/>
  <g clip-path="url(#g)" fill="none" stroke="#e60000" stroke-linecap="square" stroke-linejoin="bevel" transform="translate(636.414 583)">
   <text fill="#e60000" font-family="Arial" font-size="10" font-weight="400" stroke="none" textLength="42.1719" x="1" y="10">any block</text>
  </g>
  <path d="m0 0h35v37h-35z" fill="#fff" fill-rule="evenodd" stroke="none" transform="translate(731 544)"/>
  <path d="m0 0h35v37h-35z" style="fill:none;stroke:#0070c0;stroke-linecap:butt;stroke-linejoin:miter;stroke-miterlimit:2;stroke-width:2" transform="translate(731 544)"/>
  <g style="stroke-linecap:square;stroke-linejoin:bevel;fill:#0070c0;font-family:Arial;font-size:10;font-weight:400;stroke:none;clip-path:url(#h)" transform="translate(675.945 583)">
   <text textLength="67.6719" x="38.7188" y="10">any other block</text>
   <text textLength="143.109" x="1" y="22">(including the same block again)</text>
  </g>
 </g>
</svg>
