<svg height="96" preserveAspectRatio="xMinYMin meet" viewBox="515 245 319 96" width="319" xmlns="http://www.w3.org/2000/svg" xmlns:xlink="http://www.w3.org/1999/xlink" zoomAndPan="disable">
 <clipPath id="a">
  <path d="m0 0h317v78h-317z"/>
 </clipPath>
 <clipPath id="b">
  <path d="m-14-21h317v96h-317z"/>
 </clipPath>
 <clipPath id="c">
  <path d="m-14-21h317v96h-317z"/>
 </clipPath>
 <clipPath id="d">
  <path d="m-14-21h317v96h-317z"/>
 </clipPath>
 <clipPath id="e">
  <path d="m-14-21h317v96h-317z"/>
 </clipPath>
 <clipPath id="f">
  <path d="m-14-21h317v96h-317z"/>
 </clipPath>
 <clipPath id="g">
  <path d="m-14-21h317v96h-317z"/>
 </clipPath>
 <clipPath id="h">
  <path d="m-14-21h317v96h-317z"/>
 </clipPath>
 <clipPath id="i">
  <path d="m-14-21h317v96h-317z"/>
 </clipPath>
 <clipPath id="j">
  <path d="m-14-21h317v96h-317z"/>
 </clipPath>
 <clipPath id="k">
  <path d="m-234.43-82h317.0003v96h-317.0003z"/>
 </clipPath>
 <clipPath id="l">
  <path d="m-144.43-61h317v96h-317z"/>
 </clipPath>
 <g fill="none" fill-rule="evenodd" stroke="#000" stroke-linecap="square" stroke-linejoin="bevel">
  <g stroke="none">
   <path d="m516 246h317v94h-317z" fill="#fff" fill-rule="evenodd" pointer-events="none"/>
   <g transform="translate(516 246)">
    <path d="m0 .5c0-.276142.223858-.5.5-.5h316c.276 0 .5.223858.5.5v77c0 .2761-.224.5-.5.5h-316c-.276142 0-.5-.2239-.5-.5z" fill="#fff" fill-rule="evenodd"/>
    <g clip-path="url(#a)" fill="none" stroke-opacity="0">
     <path d="m0 0h317v78h-317z" fill-rule="evenodd"/>
    </g>
   </g>
  </g>
  <g transform="translate(530 265)">
   <path d="m0 0h88.3438v40h-88.3438z" fill="#fff" fill-rule="evenodd" stroke="none"/>
   <g stroke-linecap="square" stroke-linejoin="bevel">
    <g fill="#fff">
     <g clip-path="url(#b)" stroke="#000">
      <text fill="#000" font-family="Courier New" font-size="16" font-weight="700" stroke="none" textLength="9.59375" x="1" y="15">'</text>
     </g>
     <g clip-path="url(#c)" stroke="#f00">
      <text fill="#f00" font-family="Courier New" font-size="16" font-weight="700" stroke="none" textLength="9.59375" x="10.5938" y="15">*</text>
     </g>
     <g clip-path="url(#d)" stroke="#000">
      <text fill="#000" font-family="Courier New" font-size="16" font-weight="700" stroke="none" textLength="47.9688" x="20.1875" xml:space="preserve" y="15"> - 3:</text>
     </g>
     <g clip-path="url(#e)" stroke="#0070c0">
      <text fill="#0070c0" font-family="Courier New" font-size="16" font-weight="700" stroke="none" textLength="9.59375" x="68.1562" y="15">*</text>
     </g>
    </g>
    <g style="fill:#000;font-family:Courier New;font-size:16;font-weight:700;stroke:none;clip-path:url(#f)">
     <text textLength="9.59375" x="77.75" y="15">'</text>
     <text textLength="9.59375" x="1" y="34">'</text>
    </g>
    <g fill="#fff">
     <g clip-path="url(#g)" stroke="#0070c0">
      <text fill="#0070c0" font-family="Courier New" font-size="16" font-weight="700" stroke="none" textLength="9.59375" x="10.5938" y="34">*</text>
     </g>
     <g clip-path="url(#h)" stroke="#000">
      <text fill="#000" font-family="Courier New" font-size="16" font-weight="700" stroke="none" textLength="36" x="20.1875" y="34">:3 -</text>
     </g>
     <g clip-path="url(#i)" stroke="#f00">
      <text fill="#f00" font-family="Courier New" font-size="16" font-weight="700" stroke="none" textLength="9.59375" x="68.1562" y="34">*</text>
     </g>
     <g clip-path="url(#j)" stroke="#000">
      <text fill="#000" font-family="Courier New" font-size="16" font-weight="700" stroke="none" textLength="9.59375" x="77.75" y="34">'</text>
     </g>
    </g>
   </g>
  </g>
  <g fill="#fff">
   <g fill-rule="nonzero" stroke="#000" stroke-linecap="butt" stroke-linejoin="miter" stroke-miterlimit="2">
    <path d="m8 4c0 2.20914-1.79086 4-4 4s-4-1.79086-4-4 1.79086-4 4-4 4 1.79086 4 4z" transform="matrix(-1 0 0 1 760 271)"/>
    <path d="m8 4c0 2.20914-1.79086 4-4 4s-4-1.79086-4-4 1.79086-4 4-4 4 1.79086 4 4z" transform="matrix(-1 0 0 1 760 251)"/>
    <path d="m8 4c0 2.20914-1.79086 4-4 4s-4-1.79086-4-4 1.79086-4 4-4 4 1.79086 4 4z" transform="matrix(-1 0 0 1 760 311)"/>
   </g>
   <path d="m0 0h35v78h-35z" fill-rule="evenodd" stroke="none" transform="translate(760 246)"/>
  </g>
  <path d="m0 0h35v78h-35z" style="fill:none;stroke:#0070c0;stroke-linecap:butt;stroke-linejoin:miter;stroke-miterlimit:2;stroke-width:2" transform="translate(760 246)"/>
  <g clip-path="url(#k)" fill="none" stroke="#0070c0" stroke-linecap="square" stroke-linejoin="bevel" transform="translate(750.43 326)">
   <text fill="#0070c0" font-family="Arial" font-size="10" font-weight="400" stroke="none" textLength="52.1406" x="1" xml:space="preserve" y="10"> component</text>
  </g>
  <path d="m0 0h35v36h-35z" fill="#fff" fill-rule="evenodd" stroke="none" transform="translate(670 267)"/>
  <g fill="none">
   <path d="m0 0h35v36h-35z" stroke="#e60000" stroke-linecap="butt" stroke-linejoin="miter" stroke-miterlimit="2" stroke-width="2" transform="translate(670 267)"/>
   <g clip-path="url(#l)" stroke="#e60000" stroke-linecap="square" stroke-linejoin="bevel" transform="translate(660.43 305)">
    <text fill="#e60000" font-family="Arial" font-size="10" font-weight="400" stroke="none" textLength="52" x="1" y="10">component</text>
   </g>
   <path d="m704 285h29v10h28" stroke="#000" stroke-linecap="butt" stroke-linejoin="miter" stroke-miterlimit="2"/>
  </g>
 </g>
</svg>
