<svg height="240" preserveAspectRatio="xMinYMin meet" viewBox="31 5 940 240" width="940" xmlns="http://www.w3.org/2000/svg" xmlns:xlink="http://www.w3.org/1999/xlink" zoomAndPan="disable">
 <clipPath id="a">
  <path d="m0 0h938v238h-938z"/>
 </clipPath>
 <clipPath id="b">
  <path d="m0-.071h940v238.071h-940z"/>
 </clipPath>
 <clipPath id="c">
  <path d="m0-.071h940v238.071h-940z"/>
 </clipPath>
 <clipPath id="d">
  <path d="m0-.071h940v238.071h-940z"/>
 </clipPath>
 <clipPath id="e">
  <path d="m0-.071h940v238.071h-940z"/>
 </clipPath>
 <clipPath id="f">
  <path d="m0-.071h940v238.071h-940z"/>
 </clipPath>
 <clipPath id="g">
  <path d="m0-.071h940v238.071h-940z"/>
 </clipPath>
 <clipPath id="h">
  <path d="m0-.071h940v238.071h-940z"/>
 </clipPath>
 <clipPath id="i">
  <path d="m0-.071h940v238.071h-940z"/>
 </clipPath>
 <clipPath id="j">
  <path d="m0-.071h940v238.071h-940z"/>
 </clipPath>
 <clipPath id="k">
  <path d="m0-.071h940v238.071h-940z"/>
 </clipPath>
 <clipPath id="l">
  <path d="m0-.071h940v238.071h-940z"/>
 </clipPath>
 <clipPath id="m">
  <path d="m0-.071h940v238.071h-940z"/>
 </clipPath>
 <clipPath id="n">
  <path d="m0-.071h940v238.071h-940z"/>
 </clipPath>
 <clipPath id="o">
  <path d="m0-.071h940v238.071h-940z"/>
 </clipPath>
 <clipPath id="p">
  <path d="m0-.071h940v238.071h-940z"/>
 </clipPath>
 <clipPath id="q">
  <path d="m0-.071h940v238.071h-940z"/>
 </clipPath>
 <clipPath id="r">
  <path d="m0-.071h940v238.071h-940z"/>
 </clipPath>
 <clipPath id="s">
  <path d="m0-.071h940v238.071h-940z"/>
 </clipPath>
 <clipPath id="t">
  <path d="m0-.071h940v238.071h-940z"/>
 </clipPath>
 <clipPath id="u">
  <path d="m0-.071h940v238.071h-940z"/>
 </clipPath>
 <clipPath id="v">
  <path d="m0-.071h940v238.071h-940z"/>
 </clipPath>
 <clipPath id="w">
  <path d="m0-.071h940v238.071h-940z"/>
 </clipPath>
 <clipPath id="x">
  <path d="m0-.071h940v238.071h-940z"/>
 </clipPath>
 <clipPath id="y">
  <path d="m0-.071h940v238.071h-940z"/>
 </clipPath>
 <clipPath id="z">
  <path d="m0-.071h940v238.071h-940z"/>
 </clipPath>
 <clipPath id="A">
  <path d="m0-.071h940v238.071h-940z"/>
 </clipPath>
 <clipPath id="B">
  <path d="m0-.071h940v238.071h-940z"/>
 </clipPath>
 <clipPath id="C">
  <path d="m0-.071h940v238.071h-940z"/>
 </clipPath>
 <clipPath id="D">
  <path d="m0 0h40v38h-40z"/>
 </clipPath>
 <clipPath id="E">
  <path d="m5-2h34v34h-34z"/>
 </clipPath>
 <clipPath id="F">
  <path d="m929.5 130.5h40v38h-40z"/>
 </clipPath>
 <clipPath id="G">
  <path d="m929.5 130.5h40v38h-40z"/>
 </clipPath>
 <clipPath id="H">
  <path d="m929.5 130.5h40v38h-40z"/>
 </clipPath>
 <clipPath id="I">
  <path d="m929.5 130.5h40v38h-40z"/>
 </clipPath>
 <clipPath id="J">
  <path d="m929.5 130.5h40v38h-40z"/>
 </clipPath>
 <clipPath id="K">
  <path d="m0 0h40v38h-40z"/>
 </clipPath>
 <clipPath id="L">
  <path d="m5-2h34v34h-34z"/>
 </clipPath>
 <clipPath id="M">
  <path d="m-683.688-145.071h940v238.071h-940z"/>
 </clipPath>
 <clipPath id="N">
  <path d="m-3-32h90v64h-90z"/>
 </clipPath>
 <clipPath id="O">
  <path d="m-87-32h90v64h-90z"/>
 </clipPath>
 <clipPath id="P">
  <path d="m-564.531-158.071h940v238.071h-940z"/>
 </clipPath>
 <clipPath id="Q">
  <path d="m789.5 100.5h70v53h-70z"/>
 </clipPath>
 <clipPath id="R">
  <path d="m789.5 100.5h70v53h-70z"/>
 </clipPath>
 <clipPath id="S">
  <path d="m789.5 100.5h70v53h-70z"/>
 </clipPath>
 <clipPath id="T">
  <path d="m789.5 100.5h70v53h-70z"/>
 </clipPath>
 <clipPath id="U">
  <path d="m789.5 100.5h70v53h-70z"/>
 </clipPath>
 <clipPath id="V">
  <path d="m789.5 100.5h70v53h-70z"/>
 </clipPath>
 <clipPath id="W">
  <path d="m789.5 100.5h70v53h-70z"/>
 </clipPath>
 <g fill="none" fill-rule="evenodd" stroke="#000" stroke-linecap="square" stroke-linejoin="bevel">
  <path d="m32 6h938v238h-938z" fill="#fff" fill-rule="evenodd" pointer-events="none" stroke="none"/>
  <g stroke="none" transform="translate(32 6)">
   <path d="m0 .5c0-.276142.223858-.5.5-.5h937c.276 0 .5.223858.5.5v237c0 .276-.224.5-.5.5h-937c-.276142 0-.5-.224-.5-.5z" fill="#fff" fill-rule="evenodd"/>
   <g clip-path="url(#a)" fill="none" stroke-opacity="0">
    <path d="m0 0h938v238h-938z" fill-rule="evenodd"/>
   </g>
   <path d="m0 0h548.25v238h-548.25z" fill="#fff" fill-rule="evenodd"/>
  </g>
  <g stroke-linejoin="bevel" transform="translate(32 6)">
   <g stroke-linecap="square">
    <g clip-path="url(#b)" fill="#fff" stroke="#000">
     <text fill="#000" font-family="Courier New" font-size="12" font-weight="400" stroke="none" textLength="221" x="1" y="11">&gt;&gt; X = slQuery('Gain SubSystem')</text>
    </g>
    <g clip-path="url(#c)" fill="#fff" stroke="#808080">
     <text fill="#808080" font-family="Courier New" font-size="12" font-weight="400" stroke="none" textLength="122.188" x="238.188" y="11">% acquire handles</text>
    </g>
    <g style="fill:#000;font-family:Courier New;font-size:12;font-weight:400;stroke:none;clip-path:url(#d)">
     <text textLength="21" x="1" y="25">X =</text>
     <text textLength="143.75" x="1" y="39">slQuery with handles</text>
    </g>
   </g>
   <g fill="#fff">
    <g stroke="#00f">
     <g clip-path="url(#e)" stroke-linecap="square">
      <text fill="#00f" font-family="Courier New" font-size="12" font-weight="400" stroke="none" textLength="57.5" x="29.75" y="53">827.0011</text>
     </g>
     <g clip-path="url(#f)" stroke-linecap="butt">
      <path d="m29 57.5h58" fill="none"/>
     </g>
     <g clip-path="url(#g)" stroke-linecap="square">
      <text fill="#00f" font-family="Courier New" font-size="12" font-weight="400" stroke="none" textLength="57.5" x="29.75" y="67">829.0011</text>
     </g>
     <g clip-path="url(#h)" stroke-linecap="butt">
      <path d="m29 71.5h58" fill="none"/>
     </g>
    </g>
    <g stroke-linecap="square">
     <g clip-path="url(#i)" stroke="#000">
      <text fill="#000" font-family="Courier New" font-size="12" font-weight="400" stroke="none" textLength="186.875" x="1" y="95">&gt;&gt; X.BackgroundColor = { '</text>
     </g>
     <g clip-path="url(#j)" stroke="#00b0f0">
      <text fill="#00b0f0" font-family="Courier New" font-size="12" font-weight="400" stroke="none" textLength="64.6875" x="187.875" y="95">lightBlue</text>
     </g>
     <g clip-path="url(#k)" stroke="#000">
      <text fill="#000" font-family="Courier New" font-size="12" font-weight="400" stroke="none" textLength="28.75" x="252.562" y="95">'; '</text>
     </g>
     <g clip-path="url(#l)" stroke="#ff8000">
      <text fill="#ff8000" font-family="Courier New" font-size="12" font-weight="400" stroke="none" textLength="43.125" x="281.312" y="95">orange</text>
     </g>
     <g clip-path="url(#m)" stroke="#000">
      <text fill="#000" font-family="Courier New" font-size="12" font-weight="400" stroke="none" textLength="24" x="324.438" y="95">' };</text>
     </g>
     <g clip-path="url(#n)" stroke="#808080">
      <text fill="#808080" font-family="Courier New" font-size="12" font-weight="400" stroke="none" textLength="131" x="360.375" y="95">% assign parameters</text>
     </g>
     <g clip-path="url(#o)" stroke="#000">
      <text fill="#000" font-family="Courier New" font-size="12" font-weight="400" stroke="none" textLength="152" x="1" y="109">&gt;&gt; X.ShowName = 'off';</text>
     </g>
     <g clip-path="url(#p)" stroke="#808080">
      <text fill="#808080" font-family="Courier New" font-size="12" font-weight="400" stroke="none" textLength="143.75" x="166.312" y="109">% uniform assignment</text>
     </g>
     <g clip-path="url(#q)" stroke="#000">
      <text fill="#000" font-family="Courier New" font-size="12" font-weight="400" stroke="none" textLength="145" x="1" y="135">&gt;&gt; [gain, subs] = X';</text>
     </g>
     <g clip-path="url(#r)" stroke="#808080">
      <text fill="#808080" font-family="Courier New" font-size="12" font-weight="400" stroke="none" textLength="57.5" x="159.125" y="135">% unpack</text>
     </g>
     <g clip-path="url(#s)" stroke="#000">
      <text fill="#000" font-family="Courier New" font-size="12" font-weight="400" stroke="none" textLength="341" x="1" y="149">&gt;&gt; subs.Position = gain.Position + [40 50 40 50];</text>
     </g>
     <g clip-path="url(#t)" stroke="#808080">
      <text fill="#808080" font-family="Courier New" font-size="12" font-weight="400" stroke="none" textLength="115" x="360.375" y="149">% nice oneliners</text>
     </g>
     <g clip-path="url(#u)" stroke="#000">
      <text fill="#000" font-family="Courier New" font-size="12" font-weight="400" stroke="none" textLength="404" x="1" y="177">&gt;&gt; [~, ports] = slQuery('(1) / *[BlockType*=port]', subs);</text>
     </g>
     <g clip-path="url(#v)" stroke="#808080">
      <text fill="#808080" font-family="Courier New" font-size="12" font-weight="400" stroke="none" textLength="122.188" x="425.062" y="177">% subsystem ports</text>
     </g>
     <g clip-path="url(#w)" stroke="#000">
      <text fill="#000" font-family="Courier New" font-size="12" font-weight="400" stroke="none" textLength="96" x="1" y="191">&gt;&gt; [] ^ ports;</text>
     </g>
     <g clip-path="url(#x)" stroke="#808080">
      <text fill="#808080" font-family="Courier New" font-size="12" font-weight="400" stroke="none" textLength="107.812" x="108.812" y="191">% delete blocks</text>
     </g>
     <g clip-path="url(#y)" stroke="#000">
      <text fill="#000" font-family="Courier New" font-size="12" font-weight="400" stroke="none" textLength="215" x="1" y="205">&gt;&gt; trigger = subs ./ 'Trigger';</text>
     </g>
     <g clip-path="url(#z)" stroke="#808080">
      <text fill="#808080" font-family="Courier New" font-size="12" font-weight="400" stroke="none" textLength="100.625" x="231" y="205">% create block</text>
     </g>
     <g clip-path="url(#A)" stroke="#000">
      <text fill="#000" font-family="Courier New" font-size="12" font-weight="400" stroke="none" textLength="194" x="1" y="219">&gt;&gt; line = gain:1 - '!':subs;</text>
     </g>
     <g clip-path="url(#B)" stroke="#808080">
      <text fill="#808080" font-family="Courier New" font-size="12" font-weight="400" stroke="none" textLength="150.938" x="209.438" y="219">% connect signal line</text>
     </g>
     <g clip-path="url(#C)" stroke="#000">
      <text fill="#000" font-family="Courier New" font-size="12" font-weight="400" stroke="none" textLength="14" x="1" y="233">&gt;&gt;</text>
     </g>
    </g>
   </g>
  </g>
  <path d="m5-5-5 5 5 5" style="fill:none;stroke:#000;stroke-linecap:round;stroke-linejoin:miter;stroke-miterlimit:2;stroke-width:2" transform="matrix(-1 0 0 -1 890 100)"/>
  <g stroke="none">
   <path d="m0 0 40 19-40 19z" fill="#61bdfc" fill-rule="nonzero" transform="translate(890 81)"/>
   <g stroke-opacity="0">
    <g clip-path="url(#D)" fill="none" transform="translate(890 81)">
     <path d="m0 0 40 19-40 19z" fill-rule="nonzero"/>
    </g>
    <g clip-path="url(#E)" fill="#000" transform="translate(889.202 85.9141)">
     <path d="m15.9375 17.5781h-.875v-5.5937c-.2083.1979-.4844.3984-.8281.6015-.3438.2032-.6511.3516-.9219.4453v-.8437c.4896-.2292.9193-.5078 1.2891-.8359.3698-.3282.6276-.6485.7734-.961h.5625z" fill-rule="nonzero"/>
    </g>
   </g>
  </g>
  <path d="m0 0 40 19-40 19z" fill="none" stroke="#000" stroke-linecap="butt" stroke-linejoin="miter" stroke-miterlimit="2" transform="translate(890 81)"/>
  <path d="m0 0h40v38h-40z" fill="#ff8000" fill-rule="evenodd" stroke="none" transform="translate(930 131)"/>
  <g fill="none" stroke="#000" stroke-linejoin="miter" stroke-miterlimit="2">
   <g stroke-linecap="butt">
    <g clip-path="url(#F)" transform="translate(.5 .5)">
     <path d="m946 140h2" fill="none"/>
    </g>
    <g clip-path="url(#G)" transform="translate(.5 .5)">
     <path d="m948 140v-6" fill="none"/>
    </g>
    <g clip-path="url(#H)" transform="translate(.5 .5)">
     <path d="m948 134h3" fill="none"/>
    </g>
    <g clip-path="url(#I)" transform="translate(.5 .5)">
     <path d="m951 134v6" fill="none"/>
    </g>
    <g clip-path="url(#J)" transform="translate(.5 .5)">
     <path d="m951 140h2" fill="none"/>
    </g>
    <path d="m0 0h40v38h-40z" stroke-width="2" transform="translate(930 131)"/>
   </g>
   <g stroke-linecap="round" stroke-width="2">
    <path d="m0-5 5 5-5 5" transform="translate(750 130)"/>
    <path d="m5-5-5 5 5 5" transform="matrix(-1 0 0 -1 710 130)"/>
   </g>
  </g>
  <g stroke="none">
   <path d="m0 0 40 19-40 19z" fill="#fff" fill-rule="nonzero" transform="translate(710 111)"/>
   <g clip-path="url(#K)" fill="none" stroke-opacity="0" transform="translate(710 111)">
    <path d="m0 0 40 19-40 19z" fill-rule="nonzero"/>
   </g>
   <g clip-path="url(#L)" fill="#000" stroke-opacity="0" transform="translate(709.202 115.914)">
    <path d="m15.9375 17.5781h-.875v-5.5937c-.2083.1979-.4844.3984-.8281.6015-.3438.2032-.6511.3516-.9219.4453v-.8437c.4896-.2292.9193-.5078 1.2891-.8359.3698-.3282.6276-.6485.7734-.961h.5625z" fill-rule="nonzero"/>
   </g>
  </g>
  <g fill="none" stroke="#000">
   <path d="m0 0 40 19-40 19z" stroke-linecap="butt" stroke-linejoin="miter" stroke-miterlimit="2" transform="translate(710 111)"/>
   <g clip-path="url(#M)" stroke-linecap="square" stroke-linejoin="bevel" transform="translate(715.688 151)">
    <text fill="#000" font-family="Arial" font-size="10" font-weight="400" stroke="none" textLength="26.625" x="1" y="10">Gain1</text>
   </g>
   <g stroke-linecap="round" stroke-linejoin="miter" stroke-miterlimit="2" stroke-width="2">
    <path d="m0-5 5 5-5 5" transform="translate(670 130)"/>
    <path d="m5-5-5 5 5 5" transform="matrix(-1 0 0 -1 580 130)"/>
   </g>
  </g>
  <path d="m0 0h90v64h-90z" fill="#fff" fill-rule="evenodd" stroke="none" transform="translate(580 98)"/>
  <g fill="none" stroke="#000">
   <g stroke-linecap="butt" stroke-linejoin="miter" stroke-miterlimit="2">
    <g clip-path="url(#N)" transform="translate(583 130)">
     <text fill="#000" font-family="Arial" font-size="9" font-weight="400" stroke="none" textLength="12.5" y="3">In1</text>
    </g>
    <g clip-path="url(#O)" transform="translate(667 130)">
     <text fill="#000" font-family="Arial" font-size="9" font-weight="400" stroke="none" textLength="19.5" x="-19.5" y="3">Out1</text>
    </g>
    <path d="m0 0h90v64h-90z" transform="translate(580 98)"/>
   </g>
   <g clip-path="url(#P)" stroke-linecap="square" stroke-linejoin="bevel" transform="translate(596.531 164)">
    <text fill="#000" font-family="Arial" font-size="10" font-weight="400" stroke="none" textLength="54.9375" x="1" y="10">Subsystem1</text>
   </g>
  </g>
  <path d="m0 0h70v53h-70z" fill="#fff" fill-rule="evenodd" stroke="none" transform="translate(790 101)"/>
  <g fill="none">
   <g stroke="#000" stroke-linecap="butt" stroke-linejoin="miter" stroke-miterlimit="2">
    <g clip-path="url(#Q)" transform="translate(.5 .5)">
     <path d="m797 132h41" fill="none"/>
    </g>
    <g clip-path="url(#R)" transform="translate(.5 .5)">
     <path d="m838 132v11" fill="none"/>
    </g>
    <g clip-path="url(#S)" transform="translate(.5 .5)">
     <path d="m838 143 14-16" fill="none"/>
    </g>
    <g clip-path="url(#T)" transform="translate(.5 .5)">
     <path d="m852 127-14-16" fill="none"/>
    </g>
    <g clip-path="url(#U)" transform="translate(.5 .5)">
     <path d="m838 111v11" fill="none"/>
    </g>
    <g clip-path="url(#V)" transform="translate(.5 .5)">
     <path d="m838 122h-41" fill="none"/>
    </g>
    <g clip-path="url(#W)" transform="translate(.5 .5)">
     <path d="m797 122v10" fill="none"/>
    </g>
   </g>
   <path d="m0 0h70v53h-70z" stroke="none" transform="translate(790 101)"/>
  </g>
  <path d="m0 0-8-4v8z" fill="#000" fill-rule="nonzero" stroke="none" transform="matrix(0 1 -1 0 950 131)"/>
  <path d="m930 100h20v23" fill="none" stroke="#000" stroke-linecap="butt" stroke-linejoin="miter" stroke-miterlimit="2"/>
 </g>
</svg>
