<svg height="268" preserveAspectRatio="xMinYMin meet" viewBox="58 39 544 268" width="544" xmlns="http://www.w3.org/2000/svg" xmlns:xlink="http://www.w3.org/1999/xlink" zoomAndPan="disable">
 <clipPath id="a">
  <path d="m0 0h541v265h-541z"/>
 </clipPath>
 <clipPath id="b">
  <path d="m0 0h30v30h-30z"/>
 </clipPath>
 <clipPath id="c">
  <path d="m6-1h30v30h-30z"/>
 </clipPath>
 <clipPath id="d">
  <path d="m244.5 44.5h20v20h-20z"/>
 </clipPath>
 <clipPath id="e">
  <path d="m244.5 44.5h20v20h-20z"/>
 </clipPath>
 <clipPath id="f">
  <path d="m244.5 44.5h20v20h-20z"/>
 </clipPath>
 <clipPath id="g">
  <path d="m244.5 44.5h20v20h-20z"/>
 </clipPath>
 <clipPath id="h">
  <path d="m0 0h30v30h-30z"/>
 </clipPath>
 <clipPath id="i">
  <path d="m6-1h30v30h-30z"/>
 </clipPath>
 <clipPath id="j">
  <path d="m0 0h30v30h-30z"/>
 </clipPath>
 <clipPath id="k">
  <path d="m6-1h30v30h-30z"/>
 </clipPath>
 <clipPath id="l">
  <path d="m514.5 44.5h20v20h-20z"/>
 </clipPath>
 <clipPath id="m">
  <path d="m514.5 44.5h20v20h-20z"/>
 </clipPath>
 <clipPath id="n">
  <path d="m514.5 44.5h20v20h-20z"/>
 </clipPath>
 <clipPath id="o">
  <path d="m514.5 44.5h20v20h-20z"/>
 </clipPath>
 <clipPath id="p">
  <path d="m124.5 44.5h20v20h-20z"/>
 </clipPath>
 <clipPath id="q">
  <path d="m124.5 44.5h20v20h-20z"/>
 </clipPath>
 <clipPath id="r">
  <path d="m124.5 44.5h20v20h-20z"/>
 </clipPath>
 <clipPath id="s">
  <path d="m124.5 44.5h20v20h-20z"/>
 </clipPath>
 <clipPath id="t">
  <path d="m0 0h31v31h-31z"/>
 </clipPath>
 <clipPath id="u">
  <path d="m-2-13h9v31h-9z"/>
 </clipPath>
 <clipPath id="v">
  <path d="m-2-13h9v31h-9z"/>
 </clipPath>
 <clipPath id="w">
  <path d="m-2-13h9v31h-9z"/>
 </clipPath>
 <clipPath id="x">
  <path d="m419.5 209.5h20v20h-20z"/>
 </clipPath>
 <clipPath id="y">
  <path d="m419.5 209.5h20v20h-20z"/>
 </clipPath>
 <clipPath id="z">
  <path d="m419.5 209.5h20v20h-20z"/>
 </clipPath>
 <clipPath id="A">
  <path d="m419.5 209.5h20v20h-20z"/>
 </clipPath>
 <clipPath id="B">
  <path d="m0 0h31v31h-31z"/>
 </clipPath>
 <clipPath id="C">
  <path d="m-2-13h9v31h-9z"/>
 </clipPath>
 <clipPath id="D">
  <path d="m-2-13h9v31h-9z"/>
 </clipPath>
 <clipPath id="E">
  <path d="m-2-13h9v31h-9z"/>
 </clipPath>
 <clipPath id="F">
  <path d="m179.5 119.5h20v20h-20z"/>
 </clipPath>
 <clipPath id="G">
  <path d="m179.5 119.5h20v20h-20z"/>
 </clipPath>
 <clipPath id="H">
  <path d="m179.5 119.5h20v20h-20z"/>
 </clipPath>
 <clipPath id="I">
  <path d="m179.5 119.5h20v20h-20z"/>
 </clipPath>
 <clipPath id="J">
  <path d="m0 0h30v30h-30z"/>
 </clipPath>
 <clipPath id="K">
  <path d="m6-1h30v30h-30z"/>
 </clipPath>
 <clipPath id="L">
  <path d="m124.5 279.5h20v20h-20z"/>
 </clipPath>
 <clipPath id="M">
  <path d="m124.5 279.5h20v20h-20z"/>
 </clipPath>
 <clipPath id="N">
  <path d="m124.5 279.5h20v20h-20z"/>
 </clipPath>
 <clipPath id="O">
  <path d="m124.5 279.5h20v20h-20z"/>
 </clipPath>
 <clipPath id="P">
  <path d="m0 0h30v30h-30z"/>
 </clipPath>
 <clipPath id="Q">
  <path d="m6-1h30v30h-30z"/>
 </clipPath>
 <clipPath id="R">
  <path d="m0 0h30v30h-30z"/>
 </clipPath>
 <clipPath id="S">
  <path d="m6-1h30v30h-30z"/>
 </clipPath>
 <clipPath id="T">
  <path d="m0 0h31v31h-31z"/>
 </clipPath>
 <clipPath id="U">
  <path d="m-2-13h9v31h-9z"/>
 </clipPath>
 <clipPath id="V">
  <path d="m-2-13h9v31h-9z"/>
 </clipPath>
 <clipPath id="W">
  <path d="m-2-13h9v31h-9z"/>
 </clipPath>
 <clipPath id="X">
  <path d="m0 0h30v30h-30z"/>
 </clipPath>
 <clipPath id="Y">
  <path d="m6-1h30v30h-30z"/>
 </clipPath>
 <clipPath id="Z">
  <path d="m494.5 239.5h20v20h-20z"/>
 </clipPath>
 <clipPath id="aa">
  <path d="m494.5 239.5h20v20h-20z"/>
 </clipPath>
 <clipPath id="ab">
  <path d="m494.5 239.5h20v20h-20z"/>
 </clipPath>
 <clipPath id="ac">
  <path d="m494.5 239.5h20v20h-20z"/>
 </clipPath>
 <clipPath id="ad">
  <path d="m0 0h31v31h-31z"/>
 </clipPath>
 <clipPath id="ae">
  <path d="m-2-13h9v31h-9z"/>
 </clipPath>
 <clipPath id="af">
  <path d="m-2-13h9v31h-9z"/>
 </clipPath>
 <clipPath id="ag">
  <path d="m-2-13h9v31h-9z"/>
 </clipPath>
 <clipPath id="ah">
  <path d="m0 0h31v31h-31z"/>
 </clipPath>
 <clipPath id="ai">
  <path d="m-2-13h9v31h-9z"/>
 </clipPath>
 <clipPath id="aj">
  <path d="m-2-13h9v31h-9z"/>
 </clipPath>
 <clipPath id="ak">
  <path d="m-2-13h9v31h-9z"/>
 </clipPath>
 <clipPath id="al">
  <path d="m0 0h31v31h-31z"/>
 </clipPath>
 <clipPath id="am">
  <path d="m-2-13h9v31h-9z"/>
 </clipPath>
 <clipPath id="an">
  <path d="m-2-13h9v31h-9z"/>
 </clipPath>
 <clipPath id="ao">
  <path d="m-2-13h9v31h-9z"/>
 </clipPath>
 <clipPath id="ap">
  <path d="m0 0h31v31h-31z"/>
 </clipPath>
 <clipPath id="aq">
  <path d="m-2-13h9v31h-9z"/>
 </clipPath>
 <clipPath id="ar">
  <path d="m-2-13h9v31h-9z"/>
 </clipPath>
 <clipPath id="as">
  <path d="m-2-13h9v31h-9z"/>
 </clipPath>
 <clipPath id="at">
  <path d="m364.5 79.5h20v20h-20z"/>
 </clipPath>
 <clipPath id="au">
  <path d="m364.5 79.5h20v20h-20z"/>
 </clipPath>
 <clipPath id="av">
  <path d="m364.5 79.5h20v20h-20z"/>
 </clipPath>
 <clipPath id="aw">
  <path d="m364.5 79.5h20v20h-20z"/>
 </clipPath>
 <clipPath id="ax">
  <path d="m364.5 79.5h20v20h-20z"/>
 </clipPath>
 <clipPath id="ay">
  <path d="m364.5 79.5h20v20h-20z"/>
 </clipPath>
 <clipPath id="az">
  <path d="m0 0h31v31h-31z"/>
 </clipPath>
 <clipPath id="aA">
  <path d="m-2-13h9v31h-9z"/>
 </clipPath>
 <clipPath id="aB">
  <path d="m-2-13h9v31h-9z"/>
 </clipPath>
 <clipPath id="aC">
  <path d="m-2-13h9v31h-9z"/>
 </clipPath>
 <clipPath id="aD">
  <path d="m419.5 79.5h20v20h-20z"/>
 </clipPath>
 <clipPath id="aE">
  <path d="m419.5 79.5h20v20h-20z"/>
 </clipPath>
 <clipPath id="aF">
  <path d="m419.5 79.5h20v20h-20z"/>
 </clipPath>
 <clipPath id="aG">
  <path d="m419.5 79.5h20v20h-20z"/>
 </clipPath>
 <clipPath id="aH">
  <path d="m309.5 209.5h20v20h-20z"/>
 </clipPath>
 <clipPath id="aI">
  <path d="m309.5 209.5h20v20h-20z"/>
 </clipPath>
 <clipPath id="aJ">
  <path d="m309.5 209.5h20v20h-20z"/>
 </clipPath>
 <clipPath id="aK">
  <path d="m309.5 209.5h20v20h-20z"/>
 </clipPath>
 <clipPath id="aL">
  <path d="m0 0h31v31h-31z"/>
 </clipPath>
 <clipPath id="aM">
  <path d="m-2-13h9v31h-9z"/>
 </clipPath>
 <clipPath id="aN">
  <path d="m-2-13h9v31h-9z"/>
 </clipPath>
 <clipPath id="aO">
  <path d="m-2-13h9v31h-9z"/>
 </clipPath>
 <clipPath id="aP">
  <path d="m0 0h30v30h-30z"/>
 </clipPath>
 <clipPath id="aQ">
  <path d="m6-1h30v30h-30z"/>
 </clipPath>
 <clipPath id="aR">
  <path d="m0 0h30v30h-30z"/>
 </clipPath>
 <clipPath id="aS">
  <path d="m0 2h30v30h-30z"/>
 </clipPath>
 <clipPath id="aT">
  <path d="m0 0h31v31h-31z"/>
 </clipPath>
 <clipPath id="aU">
  <path d="m-2-13h9v31h-9z"/>
 </clipPath>
 <clipPath id="aV">
  <path d="m-2-13h9v31h-9z"/>
 </clipPath>
 <clipPath id="aW">
  <path d="m-2-13h9v31h-9z"/>
 </clipPath>
 <clipPath id="aX">
  <path d="m0 0h31v31h-31z"/>
 </clipPath>
 <clipPath id="aY">
  <path d="m-2-13h9v31h-9z"/>
 </clipPath>
 <clipPath id="aZ">
  <path d="m-2-13h9v31h-9z"/>
 </clipPath>
 <clipPath id="a0">
  <path d="m-2-13h9v31h-9z"/>
 </clipPath>
 <clipPath id="a1">
  <path d="m419.5 179.5h20v20h-20z"/>
 </clipPath>
 <clipPath id="a2">
  <path d="m419.5 179.5h20v20h-20z"/>
 </clipPath>
 <clipPath id="a3">
  <path d="m419.5 179.5h20v20h-20z"/>
 </clipPath>
 <clipPath id="a4">
  <path d="m419.5 179.5h20v20h-20z"/>
 </clipPath>
 <clipPath id="a5">
  <path d="m0 0h30v30h-30z"/>
 </clipPath>
 <clipPath id="a6">
  <path d="m0-6h30v30h-30z"/>
 </clipPath>
 <clipPath id="a7">
  <path d="m419.5 279.5h20v20h-20z"/>
 </clipPath>
 <clipPath id="a8">
  <path d="m419.5 279.5h20v20h-20z"/>
 </clipPath>
 <clipPath id="a9">
  <path d="m419.5 279.5h20v20h-20z"/>
 </clipPath>
 <clipPath id="ba">
  <path d="m419.5 279.5h20v20h-20z"/>
 </clipPath>
 <clipPath id="bb">
  <path d="m0 0h31v31h-31z"/>
 </clipPath>
 <clipPath id="bc">
  <path d="m-2-13h9v31h-9z"/>
 </clipPath>
 <clipPath id="bd">
  <path d="m-2-13h9v31h-9z"/>
 </clipPath>
 <clipPath id="be">
  <path d="m-2-13h9v31h-9z"/>
 </clipPath>
 <clipPath id="bf">
  <path d="m514.5 79.5h20v20h-20z"/>
 </clipPath>
 <clipPath id="bg">
  <path d="m514.5 79.5h20v20h-20z"/>
 </clipPath>
 <clipPath id="bh">
  <path d="m514.5 79.5h20v20h-20z"/>
 </clipPath>
 <clipPath id="bi">
  <path d="m514.5 79.5h20v20h-20z"/>
 </clipPath>
 <clipPath id="bj">
  <path d="m514.5 79.5h20v20h-20z"/>
 </clipPath>
 <clipPath id="bk">
  <path d="m514.5 79.5h20v20h-20z"/>
 </clipPath>
 <clipPath id="bl">
  <path d="m224.5 244.5h20v20h-20z"/>
 </clipPath>
 <clipPath id="bm">
  <path d="m224.5 244.5h20v20h-20z"/>
 </clipPath>
 <clipPath id="bn">
  <path d="m224.5 244.5h20v20h-20z"/>
 </clipPath>
 <clipPath id="bo">
  <path d="m224.5 244.5h20v20h-20z"/>
 </clipPath>
 <clipPath id="bp">
  <path d="m224.5 244.5h20v20h-20z"/>
 </clipPath>
 <clipPath id="bq">
  <path d="m224.5 244.5h20v20h-20z"/>
 </clipPath>
 <clipPath id="br">
  <path d="m-15-7h30v14h-30z"/>
 </clipPath>
 <clipPath id="bs">
  <path d="m-15-7h30v14h-30z"/>
 </clipPath>
 <clipPath id="bt">
  <path d="m-15-7h30v14h-30z"/>
 </clipPath>
 <clipPath id="bu">
  <path d="m-15-7h30v14h-30z"/>
 </clipPath>
 <clipPath id="bv">
  <path d="m-15-7h30v14h-30z"/>
 </clipPath>
 <clipPath id="bw">
  <path d="m-15-7h30v14h-30z"/>
 </clipPath>
 <clipPath id="bx">
  <path d="m-15-7h30v14h-30z"/>
 </clipPath>
 <clipPath id="by">
  <path d="m-15-7h30v14h-30z"/>
 </clipPath>
 <clipPath id="bz">
  <path d="m0 0h31v31h-31z"/>
 </clipPath>
 <clipPath id="bA">
  <path d="m0 0h30v30h-30z"/>
 </clipPath>
 <clipPath id="bB">
  <path d="m124.5 94.5h20v20h-20z"/>
 </clipPath>
 <clipPath id="bC">
  <path d="m124.5 94.5h20v20h-20z"/>
 </clipPath>
 <clipPath id="bD">
  <path d="m124.5 94.5h20v20h-20z"/>
 </clipPath>
 <clipPath id="bE">
  <path d="m124.5 94.5h20v20h-20z"/>
 </clipPath>
 <clipPath id="bF">
  <path d="m0 0h31v31h-31z"/>
 </clipPath>
 <clipPath id="bG">
  <path d="m0 0h30v30h-30z"/>
 </clipPath>
 <clipPath id="bH">
  <path d="m269.5 159.5h20v20h-20z"/>
 </clipPath>
 <clipPath id="bI">
  <path d="m269.5 159.5h20v20h-20z"/>
 </clipPath>
 <clipPath id="bJ">
  <path d="m269.5 159.5h20v20h-20z"/>
 </clipPath>
 <clipPath id="bK">
  <path d="m269.5 159.5h20v20h-20z"/>
 </clipPath>
 <clipPath id="bL">
  <path d="m0 0h31v31h-31z"/>
 </clipPath>
 <clipPath id="bM">
  <path d="m0 0h30v30h-30z"/>
 </clipPath>
 <clipPath id="bN">
  <path d="m0 0h31v31h-31z"/>
 </clipPath>
 <clipPath id="bO">
  <path d="m0 0h30v30h-30z"/>
 </clipPath>
 <clipPath id="bP">
  <path d="m514.5 154.5h20v20h-20z"/>
 </clipPath>
 <clipPath id="bQ">
  <path d="m514.5 154.5h20v20h-20z"/>
 </clipPath>
 <clipPath id="bR">
  <path d="m514.5 154.5h20v20h-20z"/>
 </clipPath>
 <clipPath id="bS">
  <path d="m514.5 154.5h20v20h-20z"/>
 </clipPath>
 <clipPath id="bT">
  <path d="m514.5 154.5h20v20h-20z"/>
 </clipPath>
 <clipPath id="bU">
  <path d="m514.5 154.5h20v20h-20z"/>
 </clipPath>
 <clipPath id="bV">
  <path d="m0 0h31v31h-31z"/>
 </clipPath>
 <clipPath id="bW">
  <path d="m0 0h30v30h-30z"/>
 </clipPath>
 <clipPath id="bX">
  <path d="m0 0h30v30h-30z"/>
 </clipPath>
 <clipPath id="bY">
  <path d="m6-1h30v30h-30z"/>
 </clipPath>
 <g fill="none" fill-rule="evenodd" stroke="#000" stroke-linecap="square" stroke-linejoin="bevel">
  <g stroke="none" stroke-opacity="0">
   <path d="m59 40h542v266h-542z" fill="#fff" fill-rule="evenodd" pointer-events="none"/>
   <path d="m0 .5c0-.276142.223858-.5.5-.5h540c.276 0 .5.223858.5.5v264c0 .276-.224.5-.5.5h-540c-.276142 0-.5-.224-.5-.5z" fill="#fff" fill-rule="evenodd" transform="translate(59 40)"/>
   <g clip-path="url(#a)" fill="none" transform="translate(59 40)">
    <path d="m0 0h541v265h-541z" fill-rule="evenodd"/>
   </g>
   <path d="m0 0h11.5938v21h-11.5938z" fill="#fff" fill-rule="evenodd" transform="translate(59 162)"/>
   <path d="m0 0 30 15-30 15z" fill="#e8d152" fill-rule="nonzero" transform="translate(300 40)"/>
   <g clip-path="url(#b)" fill="none" transform="translate(300 40)">
    <path d="m0 0 30 15-30 15z" fill-rule="nonzero"/>
   </g>
   <g clip-path="url(#c)" fill="#e60000" transform="translate(294.492 40.9141)">
    <path d="m17.25 16.7344v.8437h-4.7344c0-.2083.0365-.4114.1094-.6093.125-.323.3177-.6407.5781-.9532s.6459-.6718 1.1563-1.0781c.7708-.6458 1.2942-1.1536 1.5703-1.5234.276-.3698.4141-.7214.4141-1.0547 0-.3542-.125-.6485-.375-.8828-.25-.2344-.573-.3516-.9688-.3516-.4271 0-.7682.125-1.0234.375s-.3828.599-.3828 1.0469l-.9063-.0938c.0625-.6666.2943-1.1771.6953-1.5312.4011-.3542.9453-.5313 1.6328-.5313s1.2318.1901 1.6328.5703c.4011.3802.6016.8516.6016 1.4141 0 .2917-.0599.5755-.1797.8516-.1198.276-.3151.5677-.5859.875-.2709.3073-.724.7265-1.3594 1.2578-.5208.4375-.8568.737-1.0078.8984-.1511.1615-.2734.3203-.3672.4766z" fill-rule="nonzero"/>
   </g>
  </g>
  <path d="m0 0 30 15-30 15z" fill="none" stroke="#e60000" stroke-linecap="butt" stroke-linejoin="miter" stroke-miterlimit="2" transform="translate(300 40)"/>
  <path d="m20 10c0 5.5228-4.4772 10-10 10-5.52285 0-10-4.4772-10-10 0-5.52285 4.47715-10 10-10 5.5228 0 10 4.47715 10 10z" fill="#fff" fill-rule="nonzero" stroke="none" transform="translate(245 45)"/>
  <g fill="none" stroke="#000" stroke-linecap="butt" stroke-linejoin="miter" stroke-miterlimit="2">
   <g clip-path="url(#d)" transform="translate(.5 .5)">
    <path d="m248 55h4" fill="none"/>
   </g>
   <g clip-path="url(#e)" transform="translate(.5 .5)">
    <path d="m250 53v4" fill="none"/>
   </g>
   <g clip-path="url(#f)" transform="translate(.5 .5)">
    <path d="m253 60h4" fill="none"/>
   </g>
   <g clip-path="url(#g)" transform="translate(.5 .5)">
    <path d="m255 58v4" fill="none"/>
   </g>
   <path d="m20 10c0 5.5228-4.4772 10-10 10-5.52285 0-10-4.4772-10-10 0-5.52285 4.47715-10 10-10 5.5228 0 10 4.47715 10 10z" transform="translate(245 45)"/>
  </g>
  <g stroke="none">
   <path d="m0 0 30 15-30 15z" fill="#e8d152" fill-rule="nonzero" transform="translate(165 70)"/>
   <g stroke-opacity="0">
    <g clip-path="url(#h)" fill="none" transform="translate(165 70)">
     <path d="m0 0 30 15-30 15z" fill-rule="nonzero"/>
    </g>
    <g clip-path="url(#i)" fill="#e60000" transform="translate(159.492 70.9141)">
     <path d="m12.6406 15.6875.875-.1094c.1042.4896.2761.8464.5156 1.0703.2396.224.5365.336.8907.336.4166 0 .7656-.1433 1.0469-.4297.2812-.2865.4218-.6432.4218-1.0703 0-.4063-.1302-.7396-.3906-1s-.5938-.3906-1-.3906c-.1667 0-.375.0312-.625.0937l.0938-.7656h.1406c.375 0 .7135-.0964 1.0156-.2891s.4531-.4922.4531-.8984c0-.3229-.1093-.5912-.3281-.8047-.2188-.2136-.5-.3203-.8438-.3203-.3437 0-.6302.1067-.8593.3203-.2292.2135-.375.5391-.4375.9765l-.875-.1562c.1041-.5938.3463-1.0521.7265-1.375s.8516-.4844 1.4141-.4844c.3958 0 .7578.0834 1.0859.25.3282.1667.5782.3959.75.6875.1719.2917.2579.599.2579.9219 0 .3125-.0808.5938-.2422.8438-.1615.25-.4089.4531-.7422.6093.4271.0938.7578.2943.9922.6016.2343.3073.3515.6953.3515 1.1641 0 .625-.2291 1.1536-.6875 1.5859-.4583.4323-1.0312.6484-1.7187.6484-.6354 0-1.1589-.1875-1.5703-.5625-.4115-.375-.6485-.8594-.711-1.4531z" fill-rule="nonzero"/>
    </g>
   </g>
  </g>
  <path d="m0 0 30 15-30 15z" fill="none" stroke="#e60000" stroke-linecap="butt" stroke-linejoin="miter" stroke-miterlimit="2" transform="translate(165 70)"/>
  <g stroke="none">
   <path d="m0 0 30 15-30 15z" fill="#e8d152" fill-rule="nonzero" transform="translate(220 115)"/>
   <g stroke-opacity="0">
    <g clip-path="url(#j)" fill="none" transform="translate(220 115)">
     <path d="m0 0 30 15-30 15z" fill-rule="nonzero"/>
    </g>
    <g clip-path="url(#k)" fill="#e60000" transform="translate(214.492 115.914)">
     <path d="m13.5312 17.5781h-.875v-5.5937c-.2083.1979-.4843.3984-.8281.6015-.3437.2032-.651.3516-.9219.4453v-.8437c.4896-.2292.9193-.5078 1.2891-.8359.3698-.3282.6276-.6485.7735-.961h.5624zm4.8126 0h-.875v-5.5937c-.2084.1979-.4844.3984-.8282.6015-.3437.2032-.651.3516-.9218.4453v-.8437c.4895-.2292.9192-.5078 1.289-.8359.3698-.3282.6276-.6485.7734-.961h.5626z" fill-rule="nonzero"/>
    </g>
   </g>
  </g>
  <path d="m0 0 30 15-30 15z" fill="none" stroke="#e60000" stroke-linecap="butt" stroke-linejoin="miter" stroke-miterlimit="2" transform="translate(220 115)"/>
  <path d="m20 10c0 5.5228-4.4772 10-10 10-5.52285 0-10-4.4772-10-10 0-5.52285 4.47715-10 10-10 5.5228 0 10 4.47715 10 10z" fill="#fff" fill-rule="nonzero" stroke="none" transform="translate(515 45)"/>
  <g fill="none" stroke="#000" stroke-linecap="butt" stroke-linejoin="miter" stroke-miterlimit="2">
   <g clip-path="url(#l)" transform="translate(.5 .5)">
    <path d="m518 55h4" fill="none"/>
   </g>
   <g clip-path="url(#m)" transform="translate(.5 .5)">
    <path d="m520 53v4" fill="none"/>
   </g>
   <g clip-path="url(#n)" transform="translate(.5 .5)">
    <path d="m523 60h4" fill="none"/>
   </g>
   <g clip-path="url(#o)" transform="translate(.5 .5)">
    <path d="m525 58v4" fill="none"/>
   </g>
   <path d="m20 10c0 5.5228-4.4772 10-10 10-5.52285 0-10-4.4772-10-10 0-5.52285 4.47715-10 10-10 5.5228 0 10 4.47715 10 10z" transform="translate(515 45)"/>
  </g>
  <path d="m20 10c0 5.5228-4.4772 10-10 10-5.52285 0-10-4.4772-10-10 0-5.52285 4.47715-10 10-10 5.5228 0 10 4.47715 10 10z" fill="#fff" fill-rule="nonzero" stroke="none" transform="translate(125 45)"/>
  <g fill="none" stroke="#000" stroke-linecap="butt" stroke-linejoin="miter" stroke-miterlimit="2">
   <g clip-path="url(#p)" transform="translate(.5 .5)">
    <path d="m128 55h4" fill="none"/>
   </g>
   <g clip-path="url(#q)" transform="translate(.5 .5)">
    <path d="m130 53v4" fill="none"/>
   </g>
   <g clip-path="url(#r)" transform="translate(.5 .5)">
    <path d="m133 60h4" fill="none"/>
   </g>
   <g clip-path="url(#s)" transform="translate(.5 .5)">
    <path d="m135 58v4" fill="none"/>
   </g>
   <path d="m20 10c0 5.5228-4.4772 10-10 10-5.52285 0-10-4.4772-10-10 0-5.52285 4.47715-10 10-10 5.5228 0 10 4.47715 10 10z" transform="translate(125 45)"/>
  </g>
  <g stroke="none">
   <path d="m0 0h30v30h-30z" fill="#fff" fill-rule="evenodd" transform="translate(190 40)"/>
   <g stroke-opacity="0">
    <g clip-path="url(#t)" fill="none" transform="translate(190 40)">
     <path d="m0 0h31v31h-31z" fill-rule="evenodd"/>
    </g>
    <g fill="#000">
     <g clip-path="url(#u)" transform="matrix(.7 0 0 .7 203.5 53.5)">
      <path d="m-1 2h7v1h-7z" fill-rule="evenodd"/>
     </g>
     <g clip-path="url(#v)" transform="matrix(.7 0 0 .7 203.5 53.5)">
      <path d="m4.125-2v-.1875c-.98438 0-1.23438-.23438-1.23438-.79688v-7.76562l-.125-.0312-2.32812 1.17182v.1875l.359375-.125c.234375-.09374.453125-.15624.578125-.15624.28125 0 .39062.1875.39062.625v5.84374c0 .71876-.26562.98438-1.23437 1.04688v.1875z" fill-rule="nonzero"/>
     </g>
     <g clip-path="url(#w)" transform="matrix(.7 0 0 .7 203.5 53.5)">
      <path d="m4.42188 8.57812v-.14062h-3.67188l-.421875 1.5.203125.0625c.265625-.67188.51563-.78125 1.1875-.78125h1.76563l-4.031255 4.82815.125.125c.203125-.1719.375-.2344.578125-.2344.34375 0 .765625.1719 1.375.5469.64063.4062 1.09375.5625 1.46875.5625.71875 0 1.20312-.4688 1.20312-.9844 0-.2813-.1875-.4844-.45312-.4844-.20312 0-.42188.2344-.4375.4531 0 .0938.03125.2032.10938.3594.04687.0782.0625.1406.0625.1875 0 .125-.14063.2031-.34376.2031-.32812 0-.57812-.1562-.90624-.6562-.53126-.7656-.8125-.9062-1.562505-1.0781z" fill-rule="nonzero"/>
     </g>
    </g>
   </g>
  </g>
  <path d="m0 0h30v30h-30z" fill="none" stroke="#000" stroke-linecap="butt" stroke-linejoin="miter" stroke-miterlimit="2" transform="translate(190 40)"/>
  <path d="m20 10c0 5.5228-4.4772 10-10 10-5.52285 0-10-4.4772-10-10 0-5.52285 4.47715-10 10-10 5.5228 0 10 4.47715 10 10z" fill="#fff" fill-rule="nonzero" stroke="none" transform="translate(420 210)"/>
  <g fill="none" stroke="#000" stroke-linecap="butt" stroke-linejoin="miter" stroke-miterlimit="2">
   <g clip-path="url(#x)" transform="translate(.5 .5)">
    <path d="m423 220h4" fill="none"/>
   </g>
   <g clip-path="url(#y)" transform="translate(.5 .5)">
    <path d="m425 218v4" fill="none"/>
   </g>
   <g clip-path="url(#z)" transform="translate(.5 .5)">
    <path d="m428 225h4" fill="none"/>
   </g>
   <g clip-path="url(#A)" transform="translate(.5 .5)">
    <path d="m430 223v4" fill="none"/>
   </g>
   <path d="m20 10c0 5.5228-4.4772 10-10 10-5.52285 0-10-4.4772-10-10 0-5.52285 4.47715-10 10-10 5.5228 0 10 4.47715 10 10z" transform="translate(420 210)"/>
  </g>
  <g stroke="none">
   <path d="m0 0h30v30h-30z" fill="#fff" fill-rule="evenodd" transform="translate(120 140)"/>
   <g stroke-opacity="0">
    <g clip-path="url(#B)" fill="none" transform="translate(120 140)">
     <path d="m0 0h31v31h-31z" fill-rule="evenodd"/>
    </g>
    <g fill="#000">
     <g clip-path="url(#C)" transform="matrix(.7 0 0 .7 133.5 153.5)">
      <path d="m-1 2h7v1h-7z" fill-rule="evenodd"/>
     </g>
     <g clip-path="url(#D)" transform="matrix(.7 0 0 .7 133.5 153.5)">
      <path d="m4.125-2v-.1875c-.98438 0-1.23438-.23438-1.23438-.79688v-7.76562l-.125-.0312-2.32812 1.17182v.1875l.359375-.125c.234375-.09374.453125-.15624.578125-.15624.28125 0 .39062.1875.39062.625v5.84374c0 .71876-.26562.98438-1.23437 1.04688v.1875z" fill-rule="nonzero"/>
     </g>
     <g clip-path="url(#E)" transform="matrix(.7 0 0 .7 133.5 153.5)">
      <path d="m4.42188 8.57812v-.14062h-3.67188l-.421875 1.5.203125.0625c.265625-.67188.51563-.78125 1.1875-.78125h1.76563l-4.031255 4.82815.125.125c.203125-.1719.375-.2344.578125-.2344.34375 0 .765625.1719 1.375.5469.64063.4062 1.09375.5625 1.46875.5625.71875 0 1.20312-.4688 1.20312-.9844 0-.2813-.1875-.4844-.45312-.4844-.20312 0-.42188.2344-.4375.4531 0 .0938.03125.2032.10938.3594.04687.0782.0625.1406.0625.1875 0 .125-.14063.2031-.34376.2031-.32812 0-.57812-.1562-.90624-.6562-.53126-.7656-.8125-.9062-1.562505-1.0781z" fill-rule="nonzero"/>
     </g>
    </g>
   </g>
  </g>
  <path d="m0 0h30v30h-30z" fill="none" stroke="#000" stroke-linecap="butt" stroke-linejoin="miter" stroke-miterlimit="2" transform="translate(120 140)"/>
  <path d="m20 10c0 5.5228-4.4772 10-10 10-5.52285 0-10-4.4772-10-10 0-5.52285 4.47715-10 10-10 5.5228 0 10 4.47715 10 10z" fill="#fff" fill-rule="nonzero" stroke="none" transform="translate(180 120)"/>
  <g fill="none" stroke="#000" stroke-linecap="butt" stroke-linejoin="miter" stroke-miterlimit="2">
   <g clip-path="url(#F)" transform="translate(.5 .5)">
    <path d="m183 130h4" fill="none"/>
   </g>
   <g clip-path="url(#G)" transform="translate(.5 .5)">
    <path d="m185 128v4" fill="none"/>
   </g>
   <g clip-path="url(#H)" transform="translate(.5 .5)">
    <path d="m188 135h4" fill="none"/>
   </g>
   <g clip-path="url(#I)" transform="translate(.5 .5)">
    <path d="m190 133v4" fill="none"/>
   </g>
   <path d="m20 10c0 5.5228-4.4772 10-10 10-5.52285 0-10-4.4772-10-10 0-5.52285 4.47715-10 10-10 5.5228 0 10 4.47715 10 10z" transform="translate(180 120)"/>
  </g>
  <g stroke="none">
   <path d="m0 0 30 15-30 15z" fill="#e8d152" fill-rule="nonzero" transform="translate(465 150)"/>
   <g stroke-opacity="0">
    <g clip-path="url(#J)" fill="none" transform="translate(465 150)">
     <path d="m0 0 30 15-30 15z" fill-rule="nonzero"/>
    </g>
    <g clip-path="url(#K)" fill="#e60000" transform="translate(459.492 150.914)">
     <path d="m13.1719 17.5781h-.875v-5.5937c-.2084.1979-.4844.3984-.8281.6015-.3438.2032-.6511.3516-.9219.4453v-.8437c.4896-.2292.9192-.5078 1.289-.8359.3698-.3282.6276-.6485.7735-.961h.5625zm2.2969-6.2187v-.8438h4.6406v.6875c-.4584.4792-.9115 1.1198-1.3594 1.9219s-.7917 1.6302-1.0312 2.4844c-.1771.6041-.2917 1.2604-.3438 1.9687h-.9062c.0104-.5625.1223-1.2422.3359-2.039.2135-.7969.5182-1.5651.9141-2.3047.3958-.7396.8177-1.3646 1.2656-1.875z" fill-rule="nonzero"/>
    </g>
   </g>
  </g>
  <path d="m0 0 30 15-30 15z" fill="none" stroke="#e60000" stroke-linecap="butt" stroke-linejoin="miter" stroke-miterlimit="2" transform="translate(465 150)"/>
  <path d="m20 10c0 5.5228-4.4772 10-10 10-5.52285 0-10-4.4772-10-10 0-5.52285 4.47715-10 10-10 5.5228 0 10 4.47715 10 10z" fill="#fff" fill-rule="nonzero" stroke="none" transform="translate(125 280)"/>
  <g fill="none" stroke="#000" stroke-linecap="butt" stroke-linejoin="miter" stroke-miterlimit="2">
   <g clip-path="url(#L)" transform="translate(.5 .5)">
    <path d="m133 285h4" fill="none"/>
   </g>
   <g clip-path="url(#M)" transform="translate(.5 .5)">
    <path d="m135 283v4" fill="none"/>
   </g>
   <g clip-path="url(#N)" transform="translate(.5 .5)">
    <path d="m128 290h4" fill="none"/>
   </g>
   <g clip-path="url(#O)" transform="translate(.5 .5)">
    <path d="m130 288v4" fill="none"/>
   </g>
   <path d="m20 10c0 5.5228-4.4772 10-10 10-5.52285 0-10-4.4772-10-10 0-5.52285 4.47715-10 10-10 5.5228 0 10 4.47715 10 10z" transform="translate(125 280)"/>
  </g>
  <g stroke="none">
   <path d="m0 0 30 15-30 15z" fill="#e8d152" fill-rule="nonzero" transform="translate(265 240)"/>
   <g stroke-opacity="0">
    <g clip-path="url(#P)" fill="none" transform="translate(265 240)">
     <path d="m0 0 30 15-30 15z" fill-rule="nonzero"/>
    </g>
    <g clip-path="url(#Q)" fill="#e60000" transform="translate(259.492 240.914)">
     <path d="m13.1719 17.5781h-.875v-5.5937c-.2084.1979-.4844.3984-.8281.6015-.3438.2032-.6511.3516-.9219.4453v-.8437c.4896-.2292.9192-.5078 1.289-.8359.3698-.3282.6276-.6485.7735-.961h.5625zm2.375-1.6562.8437-.0781c.0729.3958.211.6848.4141.8671s.4609.2735.7734.2735c.2709 0 .5078-.0625.711-.1875.2031-.125.3698-.2917.5-.5.1302-.2084.2395-.487.3281-.836.0885-.3489.1328-.7057.1328-1.0703 0-.0416 0-.1041 0-.1875-.1771.2813-.4193.5104-.7266.6875s-.638.2656-.9922.2656c-.5937 0-1.0937-.2161-1.5-.6484-.4062-.4323-.6093-.9974-.6093-1.6953 0-.7292.2135-1.3151.6406-1.7578s.9635-.6641 1.6094-.6641c.4583 0 .8802.125 1.2656.375s.6797.6068.8828 1.0703c.2031.4636.3047 1.1381.3047 2.0235 0 .9062-.099 1.6302-.2969 2.1718-.1979.5417-.4948.9558-.8906 1.2422-.3958.2865-.8542.4297-1.375.4297-.5625 0-1.0208-.1562-1.375-.4687s-.5677-.75-.6406-1.3125m3.5937-3.1563c0-.5104-.1328-.9114-.3984-1.2031s-.586-.4375-.961-.4375c-.3958 0-.7395.1589-1.0312.4766s-.4375.7317-.4375 1.2422c0 .4479.138.8151.4141 1.1015.276.2865.6172.4297 1.0234.4297s.7396-.1432 1-.4297c.2604-.2864.3906-.6797.3906-1.1797" fill-rule="nonzero"/>
    </g>
   </g>
  </g>
  <path d="m0 0 30 15-30 15z" fill="none" stroke="#e60000" stroke-linecap="butt" stroke-linejoin="miter" stroke-miterlimit="2" transform="translate(265 240)"/>
  <g stroke="none">
   <path d="m0 0 30 15-30 15z" fill="#e8d152" fill-rule="nonzero" transform="translate(465 205)"/>
   <g stroke-opacity="0">
    <g clip-path="url(#R)" fill="none" transform="translate(465 205)">
     <path d="m0 0 30 15-30 15z" fill-rule="nonzero"/>
    </g>
    <g clip-path="url(#S)" fill="#e60000" transform="translate(459.492 205.914)">
     <path d="m14.4844 16.7344v.8437h-4.7344c0-.2083.03646-.4114.10938-.6093.125-.323.31772-.6407.57812-.9532s.6458-.6718 1.1563-1.0781c.7708-.6458 1.2942-1.1536 1.5703-1.5234.276-.3698.414-.7214.414-1.0547 0-.3542-.125-.6485-.375-.8828-.25-.2344-.5729-.3516-.9687-.3516-.4271 0-.7683.125-1.0235.375s-.3828.599-.3828 1.0469l-.90622-.0938c.0625-.6666.29422-1.1771.69532-1.5312.401-.3542.9453-.5313 1.6328-.5313s1.2318.1901 1.6328.5703c.4011.3802.6016.8516.6016 1.4141 0 .2917-.0599.5755-.1797.8516-.1198.276-.3151.5677-.5859.875-.2709.3073-.724.7265-1.3594 1.2578-.5209.4375-.8568.737-1.0078.8984-.1511.1615-.2735.3203-.3672.4766zm.9375-1.0469.875-.1094c.1041.4896.276.8464.5156 1.0703.2396.224.5365.336.8906.336.4167 0 .7657-.1433 1.0469-.4297.2812-.2865.4219-.6432.4219-1.0703 0-.4063-.1302-.7396-.3907-1-.2604-.2604-.5937-.3906-1-.3906-.1666 0-.375.0312-.625.0937l.0938-.7656h.1406c.375 0 .7136-.0964 1.0156-.2891.3021-.1927.4532-.4922.4532-.8984 0-.3229-.1094-.5912-.3282-.8047-.2187-.2136-.5-.3203-.8437-.3203s-.6302.1067-.8594.3203c-.2291.2135-.375.5391-.4375.9765l-.875-.1562c.1042-.5938.3464-1.0521.7266-1.375s.8516-.4844 1.414-.4844c.3959 0 .7579.0834 1.086.25.3281.1667.5781.3959.75.6875.1719.2917.2578.599.2578.9219 0 .3125-.0807.5938-.2422.8438-.1614.25-.4088.4531-.7422.6093.4271.0938.7578.2943.9922.6016s.3516.6953.3516 1.1641c0 .625-.2292 1.1536-.6875 1.5859-.4584.4323-1.0313.6484-1.7188.6484-.6354 0-1.1588-.1875-1.5703-.5625-.4114-.375-.6484-.8594-.7109-1.4531" fill-rule="nonzero"/>
    </g>
   </g>
  </g>
  <path d="m0 0 30 15-30 15z" fill="none" stroke="#e60000" stroke-linecap="butt" stroke-linejoin="miter" stroke-miterlimit="2" transform="translate(465 205)"/>
  <g stroke="none">
   <path d="m0 0h30v30h-30z" fill="#fff" fill-rule="evenodd" transform="translate(120 220)"/>
   <g stroke-opacity="0">
    <g clip-path="url(#T)" fill="none" transform="translate(120 220)">
     <path d="m0 0h31v31h-31z" fill-rule="evenodd"/>
    </g>
    <g fill="#000">
     <g clip-path="url(#U)" transform="matrix(.7 0 0 .7 133.5 233.5)">
      <path d="m-1 2h7v1h-7z" fill-rule="evenodd"/>
     </g>
     <g clip-path="url(#V)" transform="matrix(.7 0 0 .7 133.5 233.5)">
      <path d="m4.125-2v-.1875c-.98438 0-1.23438-.23438-1.23438-.79688v-7.76562l-.125-.0312-2.32812 1.17182v.1875l.359375-.125c.234375-.09374.453125-.15624.578125-.15624.28125 0 .39062.1875.39062.625v5.84374c0 .71876-.26562.98438-1.23437 1.04688v.1875z" fill-rule="nonzero"/>
     </g>
     <g clip-path="url(#W)" transform="matrix(.7 0 0 .7 133.5 233.5)">
      <path d="m4.42188 8.57812v-.14062h-3.67188l-.421875 1.5.203125.0625c.265625-.67188.51563-.78125 1.1875-.78125h1.76563l-4.031255 4.82815.125.125c.203125-.1719.375-.2344.578125-.2344.34375 0 .765625.1719 1.375.5469.64063.4062 1.09375.5625 1.46875.5625.71875 0 1.20312-.4688 1.20312-.9844 0-.2813-.1875-.4844-.45312-.4844-.20312 0-.42188.2344-.4375.4531 0 .0938.03125.2032.10938.3594.04687.0782.0625.1406.0625.1875 0 .125-.14063.2031-.34376.2031-.32812 0-.57812-.1562-.90624-.6562-.53126-.7656-.8125-.9062-1.562505-1.0781z" fill-rule="nonzero"/>
     </g>
    </g>
   </g>
  </g>
  <path d="m0 0h30v30h-30z" fill="none" stroke="#000" stroke-linecap="butt" stroke-linejoin="miter" stroke-miterlimit="2" transform="translate(120 220)"/>
  <g stroke="none">
   <path d="m0 0 30 15-30 15z" fill="#e8d152" fill-rule="nonzero" transform="translate(460 75)"/>
   <g stroke-opacity="0">
    <g clip-path="url(#X)" fill="none" transform="translate(460 75)">
     <path d="m0 0 30 15-30 15z" fill-rule="nonzero"/>
    </g>
    <g clip-path="url(#Y)" fill="#e60000" transform="translate(454.492 75.9141)">
     <path d="m14.4844 16.7344v.8437h-4.7344c0-.2083.03646-.4114.10938-.6093.125-.323.31772-.6407.57812-.9532s.6458-.6718 1.1563-1.0781c.7708-.6458 1.2942-1.1536 1.5703-1.5234.276-.3698.414-.7214.414-1.0547 0-.3542-.125-.6485-.375-.8828-.25-.2344-.5729-.3516-.9687-.3516-.4271 0-.7683.125-1.0235.375s-.3828.599-.3828 1.0469l-.90622-.0938c.0625-.6666.29422-1.1771.69532-1.5312.401-.3542.9453-.5313 1.6328-.5313s1.2318.1901 1.6328.5703c.4011.3802.6016.8516.6016 1.4141 0 .2917-.0599.5755-.1797.8516-.1198.276-.3151.5677-.5859.875-.2709.3073-.724.7265-1.3594 1.2578-.5209.4375-.8568.737-1.0078.8984-.1511.1615-.2735.3203-.3672.4766zm1.0625-.8125.8437-.0781c.0729.3958.211.6848.4141.8671s.4609.2735.7734.2735c.2709 0 .5078-.0625.711-.1875.2031-.125.3698-.2917.5-.5.1302-.2084.2395-.487.3281-.836.0885-.3489.1328-.7057.1328-1.0703 0-.0416 0-.1041 0-.1875-.1771.2813-.4193.5104-.7266.6875s-.638.2656-.9922.2656c-.5937 0-1.0937-.2161-1.5-.6484-.4062-.4323-.6093-.9974-.6093-1.6953 0-.7292.2135-1.3151.6406-1.7578s.9635-.6641 1.6094-.6641c.4583 0 .8802.125 1.2656.375s.6797.6068.8828 1.0703c.2031.4636.3047 1.1381.3047 2.0235 0 .9062-.099 1.6302-.2969 2.1718-.1979.5417-.4948.9558-.8906 1.2422-.3958.2865-.8542.4297-1.375.4297-.5625 0-1.0208-.1562-1.375-.4687s-.5677-.75-.6406-1.3125m3.5937-3.1563c0-.5104-.1328-.9114-.3984-1.2031s-.586-.4375-.961-.4375c-.3958 0-.7395.1589-1.0312.4766s-.4375.7317-.4375 1.2422c0 .4479.138.8151.4141 1.1015.276.2865.6172.4297 1.0234.4297s.7396-.1432 1-.4297c.2604-.2864.3906-.6797.3906-1.1797" fill-rule="nonzero"/>
    </g>
   </g>
  </g>
  <path d="m0 0 30 15-30 15z" fill="none" stroke="#e60000" stroke-linecap="butt" stroke-linejoin="miter" stroke-miterlimit="2" transform="translate(460 75)"/>
  <path d="m20 10c0 5.5228-4.4772 10-10 10-5.52285 0-10-4.4772-10-10 0-5.52285 4.47715-10 10-10 5.5228 0 10 4.47715 10 10z" fill="#fff" fill-rule="nonzero" stroke="none" transform="translate(495 240)"/>
  <g fill="none" stroke="#000" stroke-linecap="butt" stroke-linejoin="miter" stroke-miterlimit="2">
   <g clip-path="url(#Z)" transform="translate(.5 .5)">
    <path d="m503 245h4" fill="none"/>
   </g>
   <g clip-path="url(#aa)" transform="translate(.5 .5)">
    <path d="m505 243v4" fill="none"/>
   </g>
   <g clip-path="url(#ab)" transform="translate(.5 .5)">
    <path d="m498 250h4" fill="none"/>
   </g>
   <g clip-path="url(#ac)" transform="translate(.5 .5)">
    <path d="m500 248v4" fill="none"/>
   </g>
   <path d="m20 10c0 5.5228-4.4772 10-10 10-5.52285 0-10-4.4772-10-10 0-5.52285 4.47715-10 10-10 5.5228 0 10 4.47715 10 10z" transform="translate(495 240)"/>
  </g>
  <g stroke="none">
   <path d="m0 0h30v30h-30z" fill="#fff" fill-rule="evenodd" transform="translate(510 115)"/>
   <g stroke-opacity="0">
    <g clip-path="url(#ad)" fill="none" transform="translate(510 115)">
     <path d="m0 0h31v31h-31z" fill-rule="evenodd"/>
    </g>
    <g fill="#000">
     <g clip-path="url(#ae)" transform="matrix(.7 0 0 .7 523.5 128.5)">
      <path d="m-1 2h7v1h-7z" fill-rule="evenodd"/>
     </g>
     <g clip-path="url(#af)" transform="matrix(.7 0 0 .7 523.5 128.5)">
      <path d="m4.125-2v-.1875c-.98438 0-1.23438-.23438-1.23438-.79688v-7.76562l-.125-.0312-2.32812 1.17182v.1875l.359375-.125c.234375-.09374.453125-.15624.578125-.15624.28125 0 .39062.1875.39062.625v5.84374c0 .71876-.26562.98438-1.23437 1.04688v.1875z" fill-rule="nonzero"/>
     </g>
     <g clip-path="url(#ag)" transform="matrix(.7 0 0 .7 523.5 128.5)">
      <path d="m4.42188 8.57812v-.14062h-3.67188l-.421875 1.5.203125.0625c.265625-.67188.51563-.78125 1.1875-.78125h1.76563l-4.031255 4.82815.125.125c.203125-.1719.375-.2344.578125-.2344.34375 0 .765625.1719 1.375.5469.64063.4062 1.09375.5625 1.46875.5625.71875 0 1.20312-.4688 1.20312-.9844 0-.2813-.1875-.4844-.45312-.4844-.20312 0-.42188.2344-.4375.4531 0 .0938.03125.2032.10938.3594.04687.0782.0625.1406.0625.1875 0 .125-.14063.2031-.34376.2031-.32812 0-.57812-.1562-.90624-.6562-.53126-.7656-.8125-.9062-1.562505-1.0781z" fill-rule="nonzero"/>
     </g>
    </g>
   </g>
  </g>
  <path d="m0 0h30v30h-30z" fill="none" stroke="#000" stroke-linecap="butt" stroke-linejoin="miter" stroke-miterlimit="2" transform="translate(510 115)"/>
  <g stroke="none">
   <path d="m0 0h30v30h-30z" fill="#fff" fill-rule="evenodd" transform="translate(360 240)"/>
   <g stroke-opacity="0">
    <g clip-path="url(#ah)" fill="none" transform="translate(360 240)">
     <path d="m0 0h31v31h-31z" fill-rule="evenodd"/>
    </g>
    <g fill="#000">
     <g clip-path="url(#ai)" transform="matrix(.7 0 0 .7 373.5 253.5)">
      <path d="m-1 2h7v1h-7z" fill-rule="evenodd"/>
     </g>
     <g clip-path="url(#aj)" transform="matrix(.7 0 0 .7 373.5 253.5)">
      <path d="m4.125-2v-.1875c-.98438 0-1.23438-.23438-1.23438-.79688v-7.76562l-.125-.0312-2.32812 1.17182v.1875l.359375-.125c.234375-.09374.453125-.15624.578125-.15624.28125 0 .39062.1875.39062.625v5.84374c0 .71876-.26562.98438-1.23437 1.04688v.1875z" fill-rule="nonzero"/>
     </g>
     <g clip-path="url(#ak)" transform="matrix(.7 0 0 .7 373.5 253.5)">
      <path d="m4.42188 8.57812v-.14062h-3.67188l-.421875 1.5.203125.0625c.265625-.67188.51563-.78125 1.1875-.78125h1.76563l-4.031255 4.82815.125.125c.203125-.1719.375-.2344.578125-.2344.34375 0 .765625.1719 1.375.5469.64063.4062 1.09375.5625 1.46875.5625.71875 0 1.20312-.4688 1.20312-.9844 0-.2813-.1875-.4844-.45312-.4844-.20312 0-.42188.2344-.4375.4531 0 .0938.03125.2032.10938.3594.04687.0782.0625.1406.0625.1875 0 .125-.14063.2031-.34376.2031-.32812 0-.57812-.1562-.90624-.6562-.53126-.7656-.8125-.9062-1.562505-1.0781z" fill-rule="nonzero"/>
     </g>
    </g>
   </g>
  </g>
  <path d="m0 0h30v30h-30z" fill="none" stroke="#000" stroke-linecap="butt" stroke-linejoin="miter" stroke-miterlimit="2" transform="translate(360 240)"/>
  <g stroke="none">
   <path d="m0 0h30v30h-30z" fill="#fff" fill-rule="evenodd" transform="translate(305 115)"/>
   <g stroke-opacity="0">
    <g clip-path="url(#al)" fill="none" transform="translate(305 115)">
     <path d="m0 0h31v31h-31z" fill-rule="evenodd"/>
    </g>
    <g fill="#000">
     <g clip-path="url(#am)" transform="matrix(.7 0 0 .7 318.5 128.5)">
      <path d="m-1 2h7v1h-7z" fill-rule="evenodd"/>
     </g>
     <g clip-path="url(#an)" transform="matrix(.7 0 0 .7 318.5 128.5)">
      <path d="m4.125-2v-.1875c-.98438 0-1.23438-.23438-1.23438-.79688v-7.76562l-.125-.0312-2.32812 1.17182v.1875l.359375-.125c.234375-.09374.453125-.15624.578125-.15624.28125 0 .39062.1875.39062.625v5.84374c0 .71876-.26562.98438-1.23437 1.04688v.1875z" fill-rule="nonzero"/>
     </g>
     <g clip-path="url(#ao)" transform="matrix(.7 0 0 .7 318.5 128.5)">
      <path d="m4.42188 8.57812v-.14062h-3.67188l-.421875 1.5.203125.0625c.265625-.67188.51563-.78125 1.1875-.78125h1.76563l-4.031255 4.82815.125.125c.203125-.1719.375-.2344.578125-.2344.34375 0 .765625.1719 1.375.5469.64063.4062 1.09375.5625 1.46875.5625.71875 0 1.20312-.4688 1.20312-.9844 0-.2813-.1875-.4844-.45312-.4844-.20312 0-.42188.2344-.4375.4531 0 .0938.03125.2032.10938.3594.04687.0782.0625.1406.0625.1875 0 .125-.14063.2031-.34376.2031-.32812 0-.57812-.1562-.90624-.6562-.53126-.7656-.8125-.9062-1.562505-1.0781z" fill-rule="nonzero"/>
     </g>
    </g>
   </g>
  </g>
  <path d="m0 0h30v30h-30z" fill="none" stroke="#000" stroke-linecap="butt" stroke-linejoin="miter" stroke-miterlimit="2" transform="translate(305 115)"/>
  <g stroke="none">
   <path d="m0 0h30v30h-30z" fill="#fff" fill-rule="evenodd" transform="translate(170 275)"/>
   <g stroke-opacity="0">
    <g clip-path="url(#ap)" fill="none" transform="translate(170 275)">
     <path d="m0 0h31v31h-31z" fill-rule="evenodd"/>
    </g>
    <g fill="#000">
     <g clip-path="url(#aq)" transform="matrix(.7 0 0 .7 183.5 288.5)">
      <path d="m-1 2h7v1h-7z" fill-rule="evenodd"/>
     </g>
     <g clip-path="url(#ar)" transform="matrix(.7 0 0 .7 183.5 288.5)">
      <path d="m4.125-2v-.1875c-.98438 0-1.23438-.23438-1.23438-.79688v-7.76562l-.125-.0312-2.32812 1.17182v.1875l.359375-.125c.234375-.09374.453125-.15624.578125-.15624.28125 0 .39062.1875.39062.625v5.84374c0 .71876-.26562.98438-1.23437 1.04688v.1875z" fill-rule="nonzero"/>
     </g>
     <g clip-path="url(#as)" transform="matrix(.7 0 0 .7 183.5 288.5)">
      <path d="m4.42188 8.57812v-.14062h-3.67188l-.421875 1.5.203125.0625c.265625-.67188.51563-.78125 1.1875-.78125h1.76563l-4.031255 4.82815.125.125c.203125-.1719.375-.2344.578125-.2344.34375 0 .765625.1719 1.375.5469.64063.4062 1.09375.5625 1.46875.5625.71875 0 1.20312-.4688 1.20312-.9844 0-.2813-.1875-.4844-.45312-.4844-.20312 0-.42188.2344-.4375.4531 0 .0938.03125.2032.10938.3594.04687.0782.0625.1406.0625.1875 0 .125-.14063.2031-.34376.2031-.32812 0-.57812-.1562-.90624-.6562-.53126-.7656-.8125-.9062-1.562505-1.0781z" fill-rule="nonzero"/>
     </g>
    </g>
   </g>
  </g>
  <path d="m0 0h30v30h-30z" fill="none" stroke="#000" stroke-linecap="butt" stroke-linejoin="miter" stroke-miterlimit="2" transform="translate(170 275)"/>
  <path d="m20 10c0 5.5228-4.4772 10-10 10-5.52285 0-10-4.4772-10-10 0-5.52285 4.47715-10 10-10 5.5228 0 10 4.47715 10 10z" fill="#fff" fill-rule="nonzero" stroke="none" transform="translate(365 80)"/>
  <g fill="none" stroke="#000" stroke-linecap="butt" stroke-linejoin="miter" stroke-miterlimit="2">
   <g clip-path="url(#at)" transform="translate(.5 .5)">
    <path d="m373 85h4" fill="none"/>
   </g>
   <g clip-path="url(#au)" transform="translate(.5 .5)">
    <path d="m375 83v4" fill="none"/>
   </g>
   <g clip-path="url(#av)" transform="translate(.5 .5)">
    <path d="m368 90h4" fill="none"/>
   </g>
   <g clip-path="url(#aw)" transform="translate(.5 .5)">
    <path d="m370 88v4" fill="none"/>
   </g>
   <g clip-path="url(#ax)" transform="translate(.5 .5)">
    <path d="m373 95h4" fill="none"/>
   </g>
   <g clip-path="url(#ay)" transform="translate(.5 .5)">
    <path d="m375 93v4" fill="none"/>
   </g>
   <path d="m20 10c0 5.5228-4.4772 10-10 10-5.52285 0-10-4.4772-10-10 0-5.52285 4.47715-10 10-10 5.5228 0 10 4.47715 10 10z" transform="translate(365 80)"/>
  </g>
  <g stroke="none">
   <path d="m0 0h30v30h-30z" fill="#fff" fill-rule="evenodd" transform="translate(360 150)"/>
   <g stroke-opacity="0">
    <g clip-path="url(#az)" fill="none" transform="translate(360 150)">
     <path d="m0 0h31v31h-31z" fill-rule="evenodd"/>
    </g>
    <g fill="#000">
     <g clip-path="url(#aA)" transform="matrix(.7 0 0 .7 373.5 163.5)">
      <path d="m-1 2h7v1h-7z" fill-rule="evenodd"/>
     </g>
     <g clip-path="url(#aB)" transform="matrix(.7 0 0 .7 373.5 163.5)">
      <path d="m4.125-2v-.1875c-.98438 0-1.23438-.23438-1.23438-.79688v-7.76562l-.125-.0312-2.32812 1.17182v.1875l.359375-.125c.234375-.09374.453125-.15624.578125-.15624.28125 0 .39062.1875.39062.625v5.84374c0 .71876-.26562.98438-1.23437 1.04688v.1875z" fill-rule="nonzero"/>
     </g>
     <g clip-path="url(#aC)" transform="matrix(.7 0 0 .7 373.5 163.5)">
      <path d="m4.42188 8.57812v-.14062h-3.67188l-.421875 1.5.203125.0625c.265625-.67188.51563-.78125 1.1875-.78125h1.76563l-4.031255 4.82815.125.125c.203125-.1719.375-.2344.578125-.2344.34375 0 .765625.1719 1.375.5469.64063.4062 1.09375.5625 1.46875.5625.71875 0 1.20312-.4688 1.20312-.9844 0-.2813-.1875-.4844-.45312-.4844-.20312 0-.42188.2344-.4375.4531 0 .0938.03125.2032.10938.3594.04687.0782.0625.1406.0625.1875 0 .125-.14063.2031-.34376.2031-.32812 0-.57812-.1562-.90624-.6562-.53126-.7656-.8125-.9062-1.562505-1.0781z" fill-rule="nonzero"/>
     </g>
    </g>
   </g>
  </g>
  <path d="m0 0h30v30h-30z" fill="none" stroke="#000" stroke-linecap="butt" stroke-linejoin="miter" stroke-miterlimit="2" transform="translate(360 150)"/>
  <path d="m20 10c0 5.5228-4.4772 10-10 10-5.52285 0-10-4.4772-10-10 0-5.52285 4.47715-10 10-10 5.5228 0 10 4.47715 10 10z" fill="#fff" fill-rule="nonzero" stroke="none" transform="translate(420 80)"/>
  <g fill="none" stroke="#000" stroke-linecap="butt" stroke-linejoin="miter" stroke-miterlimit="2">
   <g clip-path="url(#aD)" transform="translate(.5 .5)">
    <path d="m423 90h4" fill="none"/>
   </g>
   <g clip-path="url(#aE)" transform="translate(.5 .5)">
    <path d="m425 88v4" fill="none"/>
   </g>
   <g clip-path="url(#aF)" transform="translate(.5 .5)">
    <path d="m428 95h4" fill="none"/>
   </g>
   <g clip-path="url(#aG)" transform="translate(.5 .5)">
    <path d="m430 93v4" fill="none"/>
   </g>
   <path d="m20 10c0 5.5228-4.4772 10-10 10-5.52285 0-10-4.4772-10-10 0-5.52285 4.47715-10 10-10 5.5228 0 10 4.47715 10 10z" transform="translate(420 80)"/>
  </g>
  <path d="m20 10c0 5.5228-4.4772 10-10 10-5.52285 0-10-4.4772-10-10 0-5.52285 4.47715-10 10-10 5.5228 0 10 4.47715 10 10z" fill="#fff" fill-rule="nonzero" stroke="none" transform="translate(310 210)"/>
  <g fill="none" stroke="#000" stroke-linecap="butt" stroke-linejoin="miter" stroke-miterlimit="2">
   <g clip-path="url(#aH)" transform="translate(.5 .5)">
    <path d="m313 220h4" fill="none"/>
   </g>
   <g clip-path="url(#aI)" transform="translate(.5 .5)">
    <path d="m315 218v4" fill="none"/>
   </g>
   <g clip-path="url(#aJ)" transform="translate(.5 .5)">
    <path d="m318 225h4" fill="none"/>
   </g>
   <g clip-path="url(#aK)" transform="translate(.5 .5)">
    <path d="m320 223v4" fill="none"/>
   </g>
   <path d="m20 10c0 5.5228-4.4772 10-10 10-5.52285 0-10-4.4772-10-10 0-5.52285 4.47715-10 10-10 5.5228 0 10 4.47715 10 10z" transform="translate(310 210)"/>
  </g>
  <g stroke="none">
   <path d="m0 0h30v30h-30z" fill="#fff" fill-rule="evenodd" transform="translate(415 40)"/>
   <g stroke-opacity="0">
    <g clip-path="url(#aL)" fill="none" transform="translate(415 40)">
     <path d="m0 0h31v31h-31z" fill-rule="evenodd"/>
    </g>
    <g fill="#000">
     <g clip-path="url(#aM)" transform="matrix(.7 0 0 .7 428.5 53.5)">
      <path d="m-1 2h7v1h-7z" fill-rule="evenodd"/>
     </g>
     <g clip-path="url(#aN)" transform="matrix(.7 0 0 .7 428.5 53.5)">
      <path d="m4.125-2v-.1875c-.98438 0-1.23438-.23438-1.23438-.79688v-7.76562l-.125-.0312-2.32812 1.17182v.1875l.359375-.125c.234375-.09374.453125-.15624.578125-.15624.28125 0 .39062.1875.39062.625v5.84374c0 .71876-.26562.98438-1.23437 1.04688v.1875z" fill-rule="nonzero"/>
     </g>
     <g clip-path="url(#aO)" transform="matrix(.7 0 0 .7 428.5 53.5)">
      <path d="m4.42188 8.57812v-.14062h-3.67188l-.421875 1.5.203125.0625c.265625-.67188.51563-.78125 1.1875-.78125h1.76563l-4.031255 4.82815.125.125c.203125-.1719.375-.2344.578125-.2344.34375 0 .765625.1719 1.375.5469.64063.4062 1.09375.5625 1.46875.5625.71875 0 1.20312-.4688 1.20312-.9844 0-.2813-.1875-.4844-.45312-.4844-.20312 0-.42188.2344-.4375.4531 0 .0938.03125.2032.10938.3594.04687.0782.0625.1406.0625.1875 0 .125-.14063.2031-.34376.2031-.32812 0-.57812-.1562-.90624-.6562-.53126-.7656-.8125-.9062-1.562505-1.0781z" fill-rule="nonzero"/>
     </g>
    </g>
   </g>
  </g>
  <path d="m0 0h30v30h-30z" fill="none" stroke="#000" stroke-linecap="butt" stroke-linejoin="miter" stroke-miterlimit="2" transform="translate(415 40)"/>
  <g stroke="none">
   <path d="m0 0 30 15-30 15z" fill="#e8d152" fill-rule="nonzero" transform="translate(360 205)"/>
   <g stroke-opacity="0">
    <g clip-path="url(#aP)" fill="none" transform="translate(360 205)">
     <path d="m0 0 30 15-30 15z" fill-rule="nonzero"/>
    </g>
    <g clip-path="url(#aQ)" fill="#e60000" transform="translate(354.492 205.914)">
     <path d="m12.6406 15.7031.9219-.0781c.0625.4479.2187.7865.4687 1.0156.25.2292.5521.3438.9063.3438.4167 0 .7734-.1615 1.0703-.4844s.4453-.7448.4453-1.2656c0-.5-.1406-.8959-.4219-1.1875-.2812-.2917-.651-.4375-1.1093-.4375-.2813 0-.5365.0651-.7657.1953-.2291.1302-.4114.2943-.5468.4922l-.8125-.1094.6875-3.6719h3.5625v.8438h-2.8594l-.3906 1.9218c.4375-.302.8906-.4531 1.3593-.4531.625 0 1.1511.2162 1.5782.6485s.6406.9922.6406 1.6796c0 .6459-.1875 1.2032-.5625 1.6719-.4583.5834-1.0833.875-1.875.875-.6563 0-1.1901-.1823-1.6016-.5469-.4114-.3645-.6432-.8489-.6953-1.4531z" fill-rule="nonzero"/>
    </g>
   </g>
  </g>
  <path d="m0 0 30 15-30 15z" fill="none" stroke="#e60000" stroke-linecap="butt" stroke-linejoin="miter" stroke-miterlimit="2" transform="translate(360 205)"/>
  <g stroke="none">
   <path d="m30 0-15 30-15-30z" fill="#e8d152" fill-rule="nonzero" transform="translate(175 210)"/>
   <g stroke-opacity="0">
    <g clip-path="url(#aR)" fill="none" transform="translate(175 210)">
     <path d="m30 0-15 30-15-30z" fill-rule="nonzero"/>
    </g>
    <g clip-path="url(#aS)" fill="#e60000" transform="translate(175 208.133)">
     <path d="m12.6875 11.3594v-.8438h4.6406v.6875c-.4583.4792-.9114 1.1198-1.3593 1.9219-.448.8021-.7917 1.6302-1.0313 2.4844-.1771.6041-.2917 1.2604-.3437 1.9687h-.9063c.0104-.5625.1224-1.2422.3359-2.039.2136-.7969.5183-1.5651.9141-2.3047s.8177-1.3646 1.2656-1.875z" fill-rule="nonzero"/>
    </g>
   </g>
  </g>
  <path d="m30 0-15 30-15-30z" fill="none" stroke="#e60000" stroke-linecap="butt" stroke-linejoin="miter" stroke-miterlimit="2" transform="translate(175 210)"/>
  <g stroke="none">
   <path d="m0 0h30v30h-30z" fill="#fff" fill-rule="evenodd" transform="translate(490 275)"/>
   <g stroke-opacity="0">
    <g clip-path="url(#aT)" fill="none" transform="translate(490 275)">
     <path d="m0 0h31v31h-31z" fill-rule="evenodd"/>
    </g>
    <g fill="#000">
     <g clip-path="url(#aU)" transform="matrix(.7 0 0 .7 503.5 288.5)">
      <path d="m-1 2h7v1h-7z" fill-rule="evenodd"/>
     </g>
     <g clip-path="url(#aV)" transform="matrix(.7 0 0 .7 503.5 288.5)">
      <path d="m4.125-2v-.1875c-.98438 0-1.23438-.23438-1.23438-.79688v-7.76562l-.125-.0312-2.32812 1.17182v.1875l.359375-.125c.234375-.09374.453125-.15624.578125-.15624.28125 0 .39062.1875.39062.625v5.84374c0 .71876-.26562.98438-1.23437 1.04688v.1875z" fill-rule="nonzero"/>
     </g>
     <g clip-path="url(#aW)" transform="matrix(.7 0 0 .7 503.5 288.5)">
      <path d="m4.42188 8.57812v-.14062h-3.67188l-.421875 1.5.203125.0625c.265625-.67188.51563-.78125 1.1875-.78125h1.76563l-4.031255 4.82815.125.125c.203125-.1719.375-.2344.578125-.2344.34375 0 .765625.1719 1.375.5469.64063.4062 1.09375.5625 1.46875.5625.71875 0 1.20312-.4688 1.20312-.9844 0-.2813-.1875-.4844-.45312-.4844-.20312 0-.42188.2344-.4375.4531 0 .0938.03125.2032.10938.3594.04687.0782.0625.1406.0625.1875 0 .125-.14063.2031-.34376.2031-.32812 0-.57812-.1562-.90624-.6562-.53126-.7656-.8125-.9062-1.562505-1.0781z" fill-rule="nonzero"/>
     </g>
    </g>
   </g>
  </g>
  <path d="m0 0h30v30h-30z" fill="none" stroke="#000" stroke-linecap="butt" stroke-linejoin="miter" stroke-miterlimit="2" transform="translate(490 275)"/>
  <g stroke="none">
   <path d="m0 0h30v30h-30z" fill="#fff" fill-rule="evenodd" transform="translate(530 205)"/>
   <g stroke-opacity="0">
    <g clip-path="url(#aX)" fill="none" transform="translate(530 205)">
     <path d="m0 0h31v31h-31z" fill-rule="evenodd"/>
    </g>
    <g fill="#000">
     <g clip-path="url(#aY)" transform="matrix(.7 0 0 .7 543.5 218.5)">
      <path d="m-1 2h7v1h-7z" fill-rule="evenodd"/>
     </g>
     <g clip-path="url(#aZ)" transform="matrix(.7 0 0 .7 543.5 218.5)">
      <path d="m4.125-2v-.1875c-.98438 0-1.23438-.23438-1.23438-.79688v-7.76562l-.125-.0312-2.32812 1.17182v.1875l.359375-.125c.234375-.09374.453125-.15624.578125-.15624.28125 0 .39062.1875.39062.625v5.84374c0 .71876-.26562.98438-1.23437 1.04688v.1875z" fill-rule="nonzero"/>
     </g>
     <g clip-path="url(#a0)" transform="matrix(.7 0 0 .7 543.5 218.5)">
      <path d="m4.42188 8.57812v-.14062h-3.67188l-.421875 1.5.203125.0625c.265625-.67188.51563-.78125 1.1875-.78125h1.76563l-4.031255 4.82815.125.125c.203125-.1719.375-.2344.578125-.2344.34375 0 .765625.1719 1.375.5469.64063.4062 1.09375.5625 1.46875.5625.71875 0 1.20312-.4688 1.20312-.9844 0-.2813-.1875-.4844-.45312-.4844-.20312 0-.42188.2344-.4375.4531 0 .0938.03125.2032.10938.3594.04687.0782.0625.1406.0625.1875 0 .125-.14063.2031-.34376.2031-.32812 0-.57812-.1562-.90624-.6562-.53126-.7656-.8125-.9062-1.562505-1.0781z" fill-rule="nonzero"/>
     </g>
    </g>
   </g>
  </g>
  <path d="m0 0h30v30h-30z" fill="none" stroke="#000" stroke-linecap="butt" stroke-linejoin="miter" stroke-miterlimit="2" transform="translate(530 205)"/>
  <path d="m10 0c5.5228 0 10 4.47715 10 10 0 5.5228-4.4772 10-10 10-5.52285 0-10-4.4772-10-10 0-5.52285 4.47715-10 10-10z" fill="#fff" fill-rule="nonzero" stroke="none" transform="translate(420 180)"/>
  <g fill="none" stroke="#000" stroke-linecap="butt" stroke-linejoin="miter" stroke-miterlimit="2">
   <g clip-path="url(#a1)" transform="translate(.5 .5)">
    <path d="m423 190h4" fill="none"/>
   </g>
   <g clip-path="url(#a2)" transform="translate(.5 .5)">
    <path d="m425 188v4" fill="none"/>
   </g>
   <g clip-path="url(#a3)" transform="translate(.5 .5)">
    <path d="m433 190h4" fill="none"/>
   </g>
   <g clip-path="url(#a4)" transform="translate(.5 .5)">
    <path d="m435 188v4" fill="none"/>
   </g>
   <path d="m10 0c5.5228 0 10 4.47715 10 10 0 5.5228-4.4772 10-10 10-5.52285 0-10-4.4772-10-10 0-5.52285 4.47715-10 10-10z" transform="translate(420 180)"/>
  </g>
  <g stroke="none">
   <path d="m0 30 15-30 15 30z" fill="#e8d152" fill-rule="nonzero" transform="translate(415 120)"/>
   <g stroke-opacity="0">
    <g clip-path="url(#a5)" fill="none" transform="translate(415 120)">
     <path d="m0 30 15-30 15 30z" fill-rule="nonzero"/>
    </g>
    <g clip-path="url(#a6)" fill="#e60000" transform="translate(415 126.461)">
     <path d="m13.1719 17.5781h-.875v-5.5937c-.2084.1979-.4844.3984-.8281.6015-.3438.2032-.6511.3516-.9219.4453v-.8437c.4896-.2292.9192-.5078 1.289-.8359.3698-.3282.6276-.6485.7735-.961h.5625zm2.25-1.8906.875-.1094c.1041.4896.276.8464.5156 1.0703.2396.224.5365.336.8906.336.4167 0 .7657-.1433 1.0469-.4297.2812-.2865.4219-.6432.4219-1.0703 0-.4063-.1302-.7396-.3907-1-.2604-.2604-.5937-.3906-1-.3906-.1666 0-.375.0312-.625.0937l.0938-.7656h.1406c.375 0 .7136-.0964 1.0156-.2891.3021-.1927.4532-.4922.4532-.8984 0-.3229-.1094-.5912-.3282-.8047-.2187-.2136-.5-.3203-.8437-.3203s-.6302.1067-.8594.3203c-.2291.2135-.375.5391-.4375.9765l-.875-.1562c.1042-.5938.3464-1.0521.7266-1.375s.8516-.4844 1.414-.4844c.3959 0 .7579.0834 1.086.25.3281.1667.5781.3959.75.6875.1719.2917.2578.599.2578.9219 0 .3125-.0807.5938-.2422.8438-.1614.25-.4088.4531-.7422.6093.4271.0938.7578.2943.9922.6016s.3516.6953.3516 1.1641c0 .625-.2292 1.1536-.6875 1.5859-.4584.4323-1.0313.6484-1.7188.6484-.6354 0-1.1588-.1875-1.5703-.5625-.4114-.375-.6484-.8594-.7109-1.4531" fill-rule="nonzero"/>
    </g>
   </g>
  </g>
  <path d="m0 30 15-30 15 30z" fill="none" stroke="#e60000" stroke-linecap="butt" stroke-linejoin="miter" stroke-miterlimit="2" transform="translate(415 120)"/>
  <path d="m20 10c0 5.5228-4.4772 10-10 10-5.52285 0-10-4.4772-10-10 0-5.52285 4.47715-10 10-10 5.5228 0 10 4.47715 10 10z" fill="#fff" fill-rule="nonzero" stroke="none" transform="translate(420 280)"/>
  <g fill="none" stroke="#000" stroke-linecap="butt" stroke-linejoin="miter" stroke-miterlimit="2">
   <g clip-path="url(#a7)" transform="translate(.5 .5)">
    <path d="m428 285h4" fill="none"/>
   </g>
   <g clip-path="url(#a8)" transform="translate(.5 .5)">
    <path d="m430 283v4" fill="none"/>
   </g>
   <g clip-path="url(#a9)" transform="translate(.5 .5)">
    <path d="m423 290h4" fill="none"/>
   </g>
   <g clip-path="url(#ba)" transform="translate(.5 .5)">
    <path d="m425 288v4" fill="none"/>
   </g>
   <path d="m20 10c0 5.5228-4.4772 10-10 10-5.52285 0-10-4.4772-10-10 0-5.52285 4.47715-10 10-10 5.5228 0 10 4.47715 10 10z" transform="translate(420 280)"/>
  </g>
  <g stroke="none">
   <path d="m0 0h30v30h-30z" fill="#fff" fill-rule="evenodd" transform="translate(280 275)"/>
   <g stroke-opacity="0">
    <g clip-path="url(#bb)" fill="none" transform="translate(280 275)">
     <path d="m0 0h31v31h-31z" fill-rule="evenodd"/>
    </g>
    <g fill="#000">
     <g clip-path="url(#bc)" transform="matrix(.7 0 0 .7 293.5 288.5)">
      <path d="m-1 2h7v1h-7z" fill-rule="evenodd"/>
     </g>
     <g clip-path="url(#bd)" transform="matrix(.7 0 0 .7 293.5 288.5)">
      <path d="m4.125-2v-.1875c-.98438 0-1.23438-.23438-1.23438-.79688v-7.76562l-.125-.0312-2.32812 1.17182v.1875l.359375-.125c.234375-.09374.453125-.15624.578125-.15624.28125 0 .39062.1875.39062.625v5.84374c0 .71876-.26562.98438-1.23437 1.04688v.1875z" fill-rule="nonzero"/>
     </g>
     <g clip-path="url(#be)" transform="matrix(.7 0 0 .7 293.5 288.5)">
      <path d="m4.42188 8.57812v-.14062h-3.67188l-.421875 1.5.203125.0625c.265625-.67188.51563-.78125 1.1875-.78125h1.76563l-4.031255 4.82815.125.125c.203125-.1719.375-.2344.578125-.2344.34375 0 .765625.1719 1.375.5469.64063.4062 1.09375.5625 1.46875.5625.71875 0 1.20312-.4688 1.20312-.9844 0-.2813-.1875-.4844-.45312-.4844-.20312 0-.42188.2344-.4375.4531 0 .0938.03125.2032.10938.3594.04687.0782.0625.1406.0625.1875 0 .125-.14063.2031-.34376.2031-.32812 0-.57812-.1562-.90624-.6562-.53126-.7656-.8125-.9062-1.562505-1.0781z" fill-rule="nonzero"/>
     </g>
    </g>
   </g>
  </g>
  <path d="m0 0h30v30h-30z" fill="none" stroke="#000" stroke-linecap="butt" stroke-linejoin="miter" stroke-miterlimit="2" transform="translate(280 275)"/>
  <path d="m10 0c5.5228 0 10 4.47715 10 10 0 5.5228-4.4772 10-10 10-5.52285 0-10-4.4772-10-10 0-5.52285 4.47715-10 10-10z" fill="#fff" fill-rule="nonzero" stroke="none" transform="translate(515 80)"/>
  <g fill="none" stroke="#000" stroke-linecap="butt" stroke-linejoin="miter" stroke-miterlimit="2">
   <g clip-path="url(#bf)" transform="translate(.5 .5)">
    <path d="m518 90h4" fill="none"/>
   </g>
   <g clip-path="url(#bg)" transform="translate(.5 .5)">
    <path d="m520 88v4" fill="none"/>
   </g>
   <g clip-path="url(#bh)" transform="translate(.5 .5)">
    <path d="m523 95h4" fill="none"/>
   </g>
   <g clip-path="url(#bi)" transform="translate(.5 .5)">
    <path d="m525 93v4" fill="none"/>
   </g>
   <g clip-path="url(#bj)" transform="translate(.5 .5)">
    <path d="m528 90h4" fill="none"/>
   </g>
   <g clip-path="url(#bk)" transform="translate(.5 .5)">
    <path d="m530 88v4" fill="none"/>
   </g>
   <path d="m10 0c5.5228 0 10 4.47715 10 10 0 5.5228-4.4772 10-10 10-5.52285 0-10-4.4772-10-10 0-5.52285 4.47715-10 10-10z" transform="translate(515 80)"/>
  </g>
  <path d="m20 10c0 5.5228-4.4772 10-10 10-5.52285 0-10-4.4772-10-10 0-5.52285 4.47715-10 10-10 5.5228 0 10 4.47715 10 10z" fill="#fff" fill-rule="nonzero" stroke="none" transform="translate(225 245)"/>
  <g fill="none" stroke="#000" stroke-linecap="butt" stroke-linejoin="miter" stroke-miterlimit="2">
   <g clip-path="url(#bl)" transform="translate(.5 .5)">
    <path d="m233 250h4" fill="none"/>
   </g>
   <g clip-path="url(#bm)" transform="translate(.5 .5)">
    <path d="m235 248v4" fill="none"/>
   </g>
   <g clip-path="url(#bn)" transform="translate(.5 .5)">
    <path d="m228 255h4" fill="none"/>
   </g>
   <g clip-path="url(#bo)" transform="translate(.5 .5)">
    <path d="m230 253v4" fill="none"/>
   </g>
   <g clip-path="url(#bp)" transform="translate(.5 .5)">
    <path d="m233 260h4" fill="none"/>
   </g>
   <g clip-path="url(#bq)" transform="translate(.5 .5)">
    <path d="m235 258v4" fill="none"/>
   </g>
   <path d="m20 10c0 5.5228-4.4772 10-10 10-5.52285 0-10-4.4772-10-10 0-5.52285 4.47715-10 10-10 5.5228 0 10 4.47715 10 10z" transform="translate(225 245)"/>
  </g>
  <path d="m7 0h16c3.866 0 7 3.13401 7 7 0 3.866-3.134 7-7 7h-16c-3.86599 0-7-3.134-7-7 0-3.86599 3.13401-7 7-7z" fill="#fff" fill-rule="nonzero" stroke="none" transform="translate(70 48)"/>
  <g style="fill:none;stroke:#000;stroke-linecap:butt;stroke-linejoin:miter;stroke-miterlimit:2;clip-path:url(#br)" transform="translate(85 55)">
   <text fill="#000" font-family="Arial" font-size="10" font-weight="400" stroke="none" textLength="5.54688" x="-2.76562" y="3.5">1</text>
  </g>
  <path d="m7 0h16c3.866 0 7 3.13401 7 7 0 3.866-3.134 7-7 7h-16c-3.86599 0-7-3.134-7-7 0-3.86599 3.13401-7 7-7z" fill="none" stroke="#000" stroke-linecap="butt" stroke-linejoin="miter" stroke-miterlimit="2" transform="translate(70 48)"/>
  <path d="m7 0h16c3.866 0 7 3.13401 7 7 0 3.866-3.134 7-7 7h-16c-3.86599 0-7-3.134-7-7 0-3.86599 3.13401-7 7-7z" fill="#fff" fill-rule="nonzero" stroke="none" transform="translate(70 183)"/>
  <g style="fill:none;stroke:#000;stroke-linecap:butt;stroke-linejoin:miter;stroke-miterlimit:2;clip-path:url(#bs)" transform="translate(85 190)">
   <text fill="#000" font-family="Arial" font-size="10" font-weight="400" stroke="none" textLength="5.54688" x="-2.76562" y="3.5">2</text>
  </g>
  <path d="m7 0h16c3.866 0 7 3.13401 7 7 0 3.866-3.134 7-7 7h-16c-3.86599 0-7-3.134-7-7 0-3.86599 3.13401-7 7-7z" fill="none" stroke="#000" stroke-linecap="butt" stroke-linejoin="miter" stroke-miterlimit="2" transform="translate(70 183)"/>
  <path d="m7 0h16c3.866 0 7 3.13401 7 7 0 3.866-3.134 7-7 7h-16c-3.86599 0-7-3.134-7-7 0-3.86599 3.13401-7 7-7z" fill="#fff" fill-rule="nonzero" stroke="none" transform="translate(70 283)"/>
  <g style="fill:none;stroke:#000;stroke-linecap:butt;stroke-linejoin:miter;stroke-miterlimit:2;clip-path:url(#bt)" transform="translate(85 290)">
   <text fill="#000" font-family="Arial" font-size="10" font-weight="400" stroke="none" textLength="5.54688" x="-2.76562" y="3.5">3</text>
  </g>
  <path d="m7 0h16c3.866 0 7 3.13401 7 7 0 3.866-3.134 7-7 7h-16c-3.86599 0-7-3.134-7-7 0-3.86599 3.13401-7 7-7z" fill="none" stroke="#000" stroke-linecap="butt" stroke-linejoin="miter" stroke-miterlimit="2" transform="translate(70 283)"/>
  <path d="m7 0h16c3.866 0 7 3.13401 7 7 0 3.866-3.134 7-7 7h-16c-3.86599 0-7-3.134-7-7 0-3.86599 3.13401-7 7-7z" fill="#fff" fill-rule="nonzero" stroke="none" transform="translate(295 83)"/>
  <g style="fill:none;stroke:#000;stroke-linecap:butt;stroke-linejoin:miter;stroke-miterlimit:2;clip-path:url(#bu)" transform="translate(310 90)">
   <text fill="#000" font-family="Arial" font-size="10" font-weight="400" stroke="none" textLength="5.54688" x="-2.76562" y="3.5">4</text>
  </g>
  <path d="m7 0h16c3.866 0 7 3.13401 7 7 0 3.866-3.134 7-7 7h-16c-3.86599 0-7-3.134-7-7 0-3.86599 3.13401-7 7-7z" fill="none" stroke="#000" stroke-linecap="butt" stroke-linejoin="miter" stroke-miterlimit="2" transform="translate(295 83)"/>
  <path d="m7 0h16c3.866 0 7 3.13401 7 7 0 3.866-3.134 7-7 7h-16c-3.86599 0-7-3.134-7-7 0-3.86599 3.13401-7 7-7z" fill="#fff" fill-rule="nonzero" stroke="none" transform="translate(570 48)"/>
  <g style="fill:none;stroke:#000;stroke-linecap:butt;stroke-linejoin:miter;stroke-miterlimit:2;clip-path:url(#bv)" transform="translate(585 55)">
   <text fill="#000" font-family="Arial" font-size="10" font-weight="400" stroke="none" textLength="5.54688" x="-2.76562" y="3.5">1</text>
  </g>
  <path d="m7 0h16c3.866 0 7 3.13401 7 7 0 3.866-3.134 7-7 7h-16c-3.86599 0-7-3.134-7-7 0-3.86599 3.13401-7 7-7z" fill="none" stroke="#000" stroke-linecap="butt" stroke-linejoin="miter" stroke-miterlimit="2" transform="translate(570 48)"/>
  <path d="m7 0h16c3.866 0 7 3.13401 7 7 0 3.866-3.134 7-7 7h-16c-3.86599 0-7-3.134-7-7 0-3.86599 3.13401-7 7-7z" fill="#fff" fill-rule="nonzero" stroke="none" transform="translate(570 243)"/>
  <g style="fill:none;stroke:#000;stroke-linecap:butt;stroke-linejoin:miter;stroke-miterlimit:2;clip-path:url(#bw)" transform="translate(585 250)">
   <text fill="#000" font-family="Arial" font-size="10" font-weight="400" stroke="none" textLength="5.54688" x="-2.76562" y="3.5">2</text>
  </g>
  <path d="m7 0h16c3.866 0 7 3.13401 7 7 0 3.866-3.134 7-7 7h-16c-3.86599 0-7-3.134-7-7 0-3.86599 3.13401-7 7-7z" fill="none" stroke="#000" stroke-linecap="butt" stroke-linejoin="miter" stroke-miterlimit="2" transform="translate(570 243)"/>
  <path d="m7 0h16c3.866 0 7 3.13401 7 7 0 3.866-3.134 7-7 7h-16c-3.86599 0-7-3.134-7-7 0-3.86599 3.13401-7 7-7z" fill="#fff" fill-rule="nonzero" stroke="none" transform="translate(570 283)"/>
  <g style="fill:none;stroke:#000;stroke-linecap:butt;stroke-linejoin:miter;stroke-miterlimit:2;clip-path:url(#bx)" transform="translate(585 290)">
   <text fill="#000" font-family="Arial" font-size="10" font-weight="400" stroke="none" textLength="5.54688" x="-2.76562" y="3.5">3</text>
  </g>
  <path d="m7 0h16c3.866 0 7 3.13401 7 7 0 3.866-3.134 7-7 7h-16c-3.86599 0-7-3.134-7-7 0-3.86599 3.13401-7 7-7z" fill="none" stroke="#000" stroke-linecap="butt" stroke-linejoin="miter" stroke-miterlimit="2" transform="translate(570 283)"/>
  <path d="m7 0h16c3.866 0 7 3.13401 7 7 0 3.866-3.134 7-7 7h-16c-3.86599 0-7-3.134-7-7 0-3.86599 3.13401-7 7-7z" fill="#fff" fill-rule="nonzero" stroke="none" transform="translate(310 183)"/>
  <g style="fill:none;stroke:#000;stroke-linecap:butt;stroke-linejoin:miter;stroke-miterlimit:2;clip-path:url(#by)" transform="translate(325 190)">
   <text fill="#000" font-family="Arial" font-size="10" font-weight="400" stroke="none" textLength="5.54688" x="-2.76562" y="3.5">4</text>
  </g>
  <path d="m7 0h16c3.866 0 7 3.13401 7 7 0 3.866-3.134 7-7 7h-16c-3.86599 0-7-3.134-7-7 0-3.86599 3.13401-7 7-7z" fill="none" stroke="#000" stroke-linecap="butt" stroke-linejoin="miter" stroke-miterlimit="2" transform="translate(310 183)"/>
  <g transform="translate(70 90)">
   <g stroke="none">
    <path d="m0 0h30v30h-30z" fill="#fff" fill-rule="evenodd"/>
    <g stroke-opacity="0">
     <g clip-path="url(#bz)" fill="none">
      <path d="m0 0h31v31h-31z" fill-rule="evenodd"/>
     </g>
     <g clip-path="url(#bA)" fill="#000">
      <path d="m15.9375 17.5781h-.875v-5.5937c-.2083.1979-.4844.3984-.8281.6015-.3438.2032-.6511.3516-.9219.4453v-.8437c.4896-.2292.9193-.5078 1.2891-.8359.3698-.3282.6276-.6485.7734-.961h.5625z" fill-rule="nonzero"/>
     </g>
    </g>
   </g>
   <path d="m0 0h30v30h-30z" fill="none" stroke="#000" stroke-linecap="butt" stroke-linejoin="miter" stroke-miterlimit="2"/>
  </g>
  <path d="m10 0c5.5228 0 10 4.47715 10 10 0 5.5228-4.4772 10-10 10-5.52285 0-10-4.4772-10-10 0-5.52285 4.47715-10 10-10z" fill="#fff" fill-rule="nonzero" stroke="none" transform="translate(125 95)"/>
  <g fill="none" stroke="#000" stroke-linecap="butt" stroke-linejoin="miter" stroke-miterlimit="2">
   <g clip-path="url(#bB)" transform="translate(.5 .5)">
    <path d="m128 105h4" fill="none"/>
   </g>
   <g clip-path="url(#bC)" transform="translate(.5 .5)">
    <path d="m130 103v4" fill="none"/>
   </g>
   <g clip-path="url(#bD)" transform="translate(.5 .5)">
    <path d="m133 110h4" fill="none"/>
   </g>
   <g clip-path="url(#bE)" transform="translate(.5 .5)">
    <path d="m135 108v4" fill="none"/>
   </g>
   <path d="m10 0c5.5228 0 10 4.47715 10 10 0 5.5228-4.4772 10-10 10-5.52285 0-10-4.4772-10-10 0-5.52285 4.47715-10 10-10z" transform="translate(125 95)"/>
  </g>
  <g transform="translate(220 155)">
   <g stroke="none">
    <path d="m0 0h30v30h-30z" fill="#fff" fill-rule="evenodd"/>
    <g stroke-opacity="0">
     <g clip-path="url(#bF)" fill="none">
      <path d="m0 0h31v31h-31z" fill-rule="evenodd"/>
     </g>
     <g clip-path="url(#bG)" fill="#000">
      <path d="m15.9375 17.5781h-.875v-5.5937c-.2083.1979-.4844.3984-.8281.6015-.3438.2032-.6511.3516-.9219.4453v-.8437c.4896-.2292.9193-.5078 1.2891-.8359.3698-.3282.6276-.6485.7734-.961h.5625z" fill-rule="nonzero"/>
     </g>
    </g>
   </g>
   <path d="m0 0h30v30h-30z" fill="none" stroke="#000" stroke-linecap="butt" stroke-linejoin="miter" stroke-miterlimit="2"/>
  </g>
  <path d="m10 20c-5.52285 0-10-4.4772-10-10 0-5.52285 4.47715-10 10-10 5.5228 0 10 4.47715 10 10 0 5.5228-4.4772 10-10 10z" fill="#fff" fill-rule="nonzero" stroke="none" transform="translate(270 160)"/>
  <g fill="none" stroke="#000" stroke-linecap="butt" stroke-linejoin="miter" stroke-miterlimit="2">
   <g clip-path="url(#bH)" transform="translate(.5 .5)">
    <path d="m273 170h4" fill="none"/>
   </g>
   <g clip-path="url(#bI)" transform="translate(.5 .5)">
    <path d="m275 168v4" fill="none"/>
   </g>
   <g clip-path="url(#bJ)" transform="translate(.5 .5)">
    <path d="m278 165h4" fill="none"/>
   </g>
   <g clip-path="url(#bK)" transform="translate(.5 .5)">
    <path d="m280 163v4" fill="none"/>
   </g>
   <path d="m10 20c-5.52285 0-10-4.4772-10-10 0-5.52285 4.47715-10 10-10 5.5228 0 10 4.47715 10 10 0 5.5228-4.4772 10-10 10z" transform="translate(270 160)"/>
  </g>
  <g transform="translate(570 75)">
   <g stroke="none">
    <path d="m0 0h30v30h-30z" fill="#fff" fill-rule="evenodd"/>
    <g stroke-opacity="0">
     <g clip-path="url(#bL)" fill="none">
      <path d="m0 0h31v31h-31z" fill-rule="evenodd"/>
     </g>
     <g clip-path="url(#bM)" fill="#000">
      <path d="m15.9375 17.5781h-.875v-5.5937c-.2083.1979-.4844.3984-.8281.6015-.3438.2032-.6511.3516-.9219.4453v-.8437c.4896-.2292.9193-.5078 1.2891-.8359.3698-.3282.6276-.6485.7734-.961h.5625z" fill-rule="nonzero"/>
     </g>
    </g>
   </g>
   <path d="m0 0h30v30h-30z" fill="none" stroke="#000" stroke-linecap="butt" stroke-linejoin="miter" stroke-miterlimit="2"/>
  </g>
  <g transform="translate(570 150)">
   <g stroke="none">
    <path d="m0 0h30v30h-30z" fill="#fff" fill-rule="evenodd"/>
    <g stroke-opacity="0">
     <g clip-path="url(#bN)" fill="none">
      <path d="m0 0h31v31h-31z" fill-rule="evenodd"/>
     </g>
     <g clip-path="url(#bO)" fill="#000">
      <path d="m15.9375 17.5781h-.875v-5.5937c-.2083.1979-.4844.3984-.8281.6015-.3438.2032-.6511.3516-.9219.4453v-.8437c.4896-.2292.9193-.5078 1.2891-.8359.3698-.3282.6276-.6485.7734-.961h.5625z" fill-rule="nonzero"/>
     </g>
    </g>
   </g>
   <path d="m0 0h30v30h-30z" fill="none" stroke="#000" stroke-linecap="butt" stroke-linejoin="miter" stroke-miterlimit="2"/>
  </g>
  <path d="m10 0c5.5228 0 10 4.47715 10 10 0 5.5228-4.4772 10-10 10-5.52285 0-10-4.4772-10-10 0-5.52285 4.47715-10 10-10z" fill="#fff" fill-rule="nonzero" stroke="none" transform="translate(515 155)"/>
  <g fill="none" stroke="#000" stroke-linecap="butt" stroke-linejoin="miter" stroke-miterlimit="2">
   <g clip-path="url(#bP)" transform="translate(.5 .5)">
    <path d="m518 165h4" fill="none"/>
   </g>
   <g clip-path="url(#bQ)" transform="translate(.5 .5)">
    <path d="m520 163v4" fill="none"/>
   </g>
   <g clip-path="url(#bR)" transform="translate(.5 .5)">
    <path d="m523 170h4" fill="none"/>
   </g>
   <g clip-path="url(#bS)" transform="translate(.5 .5)">
    <path d="m525 168v4" fill="none"/>
   </g>
   <g clip-path="url(#bT)" transform="translate(.5 .5)">
    <path d="m528 165h4" fill="none"/>
   </g>
   <g clip-path="url(#bU)" transform="translate(.5 .5)">
    <path d="m530 163v4" fill="none"/>
   </g>
   <path d="m10 0c5.5228 0 10 4.47715 10 10 0 5.5228-4.4772 10-10 10-5.52285 0-10-4.4772-10-10 0-5.52285 4.47715-10 10-10z" transform="translate(515 155)"/>
  </g>
  <g transform="translate(220 195)">
   <g stroke="none">
    <path d="m0 0h30v30h-30z" fill="#fff" fill-rule="evenodd"/>
    <g stroke-opacity="0">
     <g clip-path="url(#bV)" fill="none">
      <path d="m0 0h31v31h-31z" fill-rule="evenodd"/>
     </g>
     <g clip-path="url(#bW)" fill="#000">
      <path d="m15.9375 17.5781h-.875v-5.5937c-.2083.1979-.4844.3984-.8281.6015-.3438.2032-.6511.3516-.9219.4453v-.8437c.4896-.2292.9193-.5078 1.2891-.8359.3698-.3282.6276-.6485.7734-.961h.5625z" fill-rule="nonzero"/>
     </g>
    </g>
   </g>
   <path d="m0 0h30v30h-30z" fill="none" stroke="#000" stroke-linecap="butt" stroke-linejoin="miter" stroke-miterlimit="2"/>
  </g>
  <g stroke="none">
   <path d="m0 0 30 15-30 15z" fill="#e8d152" fill-rule="nonzero" transform="translate(340 275)"/>
   <g stroke-opacity="0">
    <g clip-path="url(#bX)" fill="none" transform="translate(340 275)">
     <path d="m0 0 30 15-30 15z" fill-rule="nonzero"/>
    </g>
    <g clip-path="url(#bY)" fill="#e60000" transform="translate(334.492 275.914)">
     <path d="m9.875 15.6875.875-.1094c.1042.4896.276.8464.5156 1.0703.2396.224.5365.336.8906.336.4167 0 .7657-.1433 1.0469-.4297.2813-.2865.4219-.6432.4219-1.0703 0-.4063-.1302-.7396-.3906-1s-.5938-.3906-1-.3906c-.1667 0-.375.0312-.625.0937l.0937-.7656h.1407c.375 0 .7135-.0964 1.0156-.2891s.4531-.4922.4531-.8984c0-.3229-.1094-.5912-.3281-.8047-.2188-.2136-.5-.3203-.8438-.3203-.3437 0-.6302.1067-.8594.3203-.2291.2135-.375.5391-.4374.9765l-.87505-.1562c.10415-.5938.34635-1.0521.72655-1.375s.8516-.4844 1.4141-.4844c.3958 0 .7578.0834 1.0859.25.3281.1667.5781.3959.75.6875.1719.2917.2578.599.2578.9219 0 .3125-.0807.5938-.2422.8438-.1614.25-.4088.4531-.7421.6093.427.0938.7578.2943.9921.6016.2344.3073.3516.6953.3516 1.1641 0 .625-.2292 1.1536-.6875 1.5859s-1.0312.6484-1.7188.6484c-.6354 0-1.1588-.1875-1.5703-.5625-.4114-.375-.6484-.8594-.7109-1.4531m8.8438 1.8906h-.875v-5.5937c-.2084.1979-.4844.3984-.8282.6015-.3437.2032-.651.3516-.9218.4453v-.8437c.4895-.2292.9192-.5078 1.289-.8359.3698-.3282.6276-.6485.7734-.961h.5626z" fill-rule="nonzero"/>
    </g>
   </g>
  </g>
  <path d="m0 0 30 15-30 15z" fill="none" stroke="#e60000" stroke-linecap="butt" stroke-linejoin="miter" stroke-miterlimit="2" transform="translate(340 275)"/>
  <path d="m0 0-8-4v8z" fill="#000" fill-rule="nonzero" stroke="none" transform="translate(515 90)"/>
  <path d="m490 90h17" fill="none" stroke="#000" stroke-linecap="butt" stroke-linejoin="miter" stroke-miterlimit="2"/>
  <path d="m0 0-8-4v8z" fill="#000" fill-rule="nonzero" stroke="none" transform="translate(570 290)"/>
  <path d="m520 290h42" fill="none" stroke="#000" stroke-linecap="butt" stroke-linejoin="miter" stroke-miterlimit="2"/>
  <path d="m0 0-8-4v8z" fill="#000" fill-rule="nonzero" stroke="none" transform="translate(420 290)"/>
  <path d="m370 290h42" fill="none" stroke="#000" stroke-linecap="butt" stroke-linejoin="miter" stroke-miterlimit="2"/>
  <path d="m0 0-8-4v8z" fill="#000" fill-rule="nonzero" stroke="none" transform="matrix(0 1 -1 0 235 245)"/>
  <path d="m235 225v12" fill="none" stroke="#000" stroke-linecap="butt" stroke-linejoin="miter" stroke-miterlimit="2"/>
  <path d="m545 205v-15h-20" fill="none" stroke="#000" stroke-linecap="butt" stroke-linejoin="miter" stroke-miterlimit="2"/>
  <path d="m0 0-8-4v8z" fill="#000" fill-rule="nonzero" stroke="none" transform="matrix(-1 0 0 -1 440 190)"/>
  <path d="m525 190h-77" fill="none" stroke="#000" stroke-linecap="butt" stroke-linejoin="miter" stroke-miterlimit="2"/>
  <path d="m0 0-8-4v8z" fill="#000" fill-rule="nonzero" stroke="none" transform="matrix(0 -1 1 0 525 175)"/>
  <path d="m525 190v-7" fill="none" stroke="#000" stroke-linecap="butt" stroke-linejoin="miter" stroke-miterlimit="2"/>
  <path d="m2.5 0c0 1.38071-1.11929 2.5-2.5 2.5s-2.5-1.11929-2.5-2.5 1.11929-2.5 2.5-2.5 2.5 1.11929 2.5 2.5z" fill="#000" fill-rule="evenodd" stroke="none" transform="translate(525 190)"/>
  <path d="m0 0-8-4v8z" fill="#000" fill-rule="nonzero" stroke="none" transform="translate(515 165)"/>
  <path d="m495 165h12" fill="none" stroke="#000" stroke-linecap="butt" stroke-linejoin="miter" stroke-miterlimit="2"/>
  <path d="m0 0-8-4v8z" fill="#000" fill-rule="nonzero" stroke="none" transform="matrix(-1 0 0 -1 535 165)"/>
  <path d="m570 165h-27" fill="none" stroke="#000" stroke-linecap="butt" stroke-linejoin="miter" stroke-miterlimit="2"/>
  <path d="m0 0-8-4v8z" fill="#000" fill-rule="nonzero" stroke="none" transform="matrix(0 -1 1 0 525 145)"/>
  <path d="m525 155v-2" fill="none" stroke="#000" stroke-linecap="butt" stroke-linejoin="miter" stroke-miterlimit="2"/>
  <path d="m0 0-8-4v8z" fill="#000" fill-rule="nonzero" stroke="none" transform="matrix(-1 0 0 -1 535 90)"/>
  <path d="m570 90h-27" fill="none" stroke="#000" stroke-linecap="butt" stroke-linejoin="miter" stroke-miterlimit="2"/>
  <path d="m280 180v10" fill="none" stroke="#000" stroke-linecap="butt" stroke-linejoin="miter" stroke-miterlimit="2"/>
  <path d="m0 0-8-4v8z" fill="#000" fill-rule="nonzero" stroke="none" transform="translate(310 220)"/>
  <path d="m280 190v30h22" fill="none" stroke="#000" stroke-linecap="butt" stroke-linejoin="miter" stroke-miterlimit="2"/>
  <path d="m0 0-8-4v8z" fill="#000" fill-rule="nonzero" stroke="none" transform="translate(310 190)"/>
  <path d="m280 190h22" fill="none" stroke="#000" stroke-linecap="butt" stroke-linejoin="miter" stroke-miterlimit="2"/>
  <path d="m2.5 0c0 1.38071-1.11929 2.5-2.5 2.5s-2.5-1.11929-2.5-2.5 1.11929-2.5 2.5-2.5 2.5 1.11929 2.5 2.5z" fill="#000" fill-rule="evenodd" stroke="none" transform="translate(280 190)"/>
  <path d="m0 0-8-4v8z" fill="#000" fill-rule="nonzero" stroke="none" transform="translate(270 170)"/>
  <path d="m250 170h12" fill="none" stroke="#000" stroke-linecap="butt" stroke-linejoin="miter" stroke-miterlimit="2"/>
  <path d="m0 0-8-4v8z" fill="#000" fill-rule="nonzero" stroke="none" transform="translate(125 105)"/>
  <path d="m100 105h17" fill="none" stroke="#000" stroke-linecap="butt" stroke-linejoin="miter" stroke-miterlimit="2"/>
  <path d="m135 95v-10" fill="none" stroke="#000" stroke-linecap="butt" stroke-linejoin="miter" stroke-miterlimit="2"/>
  <path d="m0 0-8-4v8z" fill="#000" fill-rule="nonzero" stroke="none" transform="translate(165 85)"/>
  <path d="m135 85h22" fill="none" stroke="#000" stroke-linecap="butt" stroke-linejoin="miter" stroke-miterlimit="2"/>
  <path d="m0 0-8-4v8z" fill="#000" fill-rule="nonzero" stroke="none" transform="matrix(0 -1 1 0 135 65)"/>
  <path d="m135 85v-12" fill="none" stroke="#000" stroke-linecap="butt" stroke-linejoin="miter" stroke-miterlimit="2"/>
  <path d="m2.5 0c0 1.38071-1.11929 2.5-2.5 2.5s-2.5-1.11929-2.5-2.5 1.11929-2.5 2.5-2.5 2.5 1.11929 2.5 2.5z" fill="#000" fill-rule="evenodd" stroke="none" transform="translate(135 85)"/>
  <path d="m250 130h30" fill="none" stroke="#000" stroke-linecap="butt" stroke-linejoin="miter" stroke-miterlimit="2"/>
  <path d="m0 0-8-4v8z" fill="#000" fill-rule="nonzero" stroke="none" transform="matrix(0 1 -1 0 280 160)"/>
  <path d="m280 130v22" fill="none" stroke="#000" stroke-linecap="butt" stroke-linejoin="miter" stroke-miterlimit="2"/>
  <path d="m0 0-8-4v8z" fill="#000" fill-rule="nonzero" stroke="none" transform="translate(305 130)"/>
  <path d="m280 130h17" fill="none" stroke="#000" stroke-linecap="butt" stroke-linejoin="miter" stroke-miterlimit="2"/>
  <path d="m2.5 0c0 1.38071-1.11929 2.5-2.5 2.5s-2.5-1.11929-2.5-2.5 1.11929-2.5 2.5-2.5 2.5 1.11929 2.5 2.5z" fill="#000" fill-rule="evenodd" stroke="none" transform="translate(280 130)"/>
  <path d="m0 0-8-4v8z" fill="#000" fill-rule="nonzero" stroke="none" transform="translate(245 55)"/>
  <path d="m220 55h17" fill="none" stroke="#000" stroke-linecap="butt" stroke-linejoin="miter" stroke-miterlimit="2"/>
  <path d="m0 0-8-4v8z" fill="#000" fill-rule="nonzero" stroke="none" transform="translate(465 220)"/>
  <path d="m440 220h17" fill="none" stroke="#000" stroke-linecap="butt" stroke-linejoin="miter" stroke-miterlimit="2"/>
  <path d="m0 0-8-4v8z" fill="#000" fill-rule="nonzero" stroke="none" transform="translate(515 55)"/>
  <path d="m445 55h62" fill="none" stroke="#000" stroke-linecap="butt" stroke-linejoin="miter" stroke-miterlimit="2"/>
  <path d="m0 0-8-4v8z" fill="#000" fill-rule="nonzero" stroke="none" transform="translate(460 90)"/>
  <path d="m440 90h12" fill="none" stroke="#000" stroke-linecap="butt" stroke-linejoin="miter" stroke-miterlimit="2"/>
  <path d="m0 0-8-4v8z" fill="#000" fill-rule="nonzero" stroke="none" transform="translate(420 220)"/>
  <path d="m390 220h22" fill="none" stroke="#000" stroke-linecap="butt" stroke-linejoin="miter" stroke-miterlimit="2"/>
  <path d="m0 0-8-4v8z" fill="#000" fill-rule="nonzero" stroke="none" transform="translate(360 220)"/>
  <path d="m330 220h22" fill="none" stroke="#000" stroke-linecap="butt" stroke-linejoin="miter" stroke-miterlimit="2"/>
  <path d="m0 0-8-4v8z" fill="#000" fill-rule="nonzero" stroke="none" transform="matrix(0 -1 1 0 255 65)"/>
  <path d="m195 85h60v-12" fill="none" stroke="#000" stroke-linecap="butt" stroke-linejoin="miter" stroke-miterlimit="2"/>
  <path d="m0 0-8-4v8z" fill="#000" fill-rule="nonzero" stroke="none" transform="translate(265 255)"/>
  <path d="m245 255h12" fill="none" stroke="#000" stroke-linecap="butt" stroke-linejoin="miter" stroke-miterlimit="2"/>
  <path d="m295 255h25" fill="none" stroke="#000" stroke-linecap="butt" stroke-linejoin="miter" stroke-miterlimit="2"/>
  <path d="m0 0-8-4v8z" fill="#000" fill-rule="nonzero" stroke="none" transform="matrix(0 -1 1 0 320 230)"/>
  <path d="m320 255v-17" fill="none" stroke="#000" stroke-linecap="butt" stroke-linejoin="miter" stroke-miterlimit="2"/>
  <path d="m0 0-8-4v8z" fill="#000" fill-rule="nonzero" stroke="none" transform="translate(360 255)"/>
  <path d="m320 255h32" fill="none" stroke="#000" stroke-linecap="butt" stroke-linejoin="miter" stroke-miterlimit="2"/>
  <path d="m2.5 0c0 1.38071-1.11929 2.5-2.5 2.5s-2.5-1.11929-2.5-2.5 1.11929-2.5 2.5-2.5 2.5 1.11929 2.5 2.5z" fill="#000" fill-rule="evenodd" stroke="none" transform="translate(320 255)"/>
  <path d="m0 0-8-4v8z" fill="#000" fill-rule="nonzero" stroke="none" transform="translate(225 255)"/>
  <path d="m190 240v15h27" fill="none" stroke="#000" stroke-linecap="butt" stroke-linejoin="miter" stroke-miterlimit="2"/>
  <path d="m0 0-8-4v8z" fill="#000" fill-rule="nonzero" stroke="none" transform="translate(125 290)"/>
  <path d="m100 290h17" fill="none" stroke="#000" stroke-linecap="butt" stroke-linejoin="miter" stroke-miterlimit="2"/>
  <path d="m0 0-8-4v8z" fill="#000" fill-rule="nonzero" stroke="none" transform="matrix(0 1 -1 0 135 280)"/>
  <path d="m135 250v22" fill="none" stroke="#000" stroke-linecap="butt" stroke-linejoin="miter" stroke-miterlimit="2"/>
  <path d="m0 0-8-4v8z" fill="#000" fill-rule="nonzero" stroke="none" transform="translate(190 55)"/>
  <path d="m145 55h37" fill="none" stroke="#000" stroke-linecap="butt" stroke-linejoin="miter" stroke-miterlimit="2"/>
  <path d="m0 0-8-4v8z" fill="#000" fill-rule="nonzero" stroke="none" transform="matrix(0 -1 1 0 430 100)"/>
  <path d="m430 120v-12" fill="none" stroke="#000" stroke-linecap="butt" stroke-linejoin="miter" stroke-miterlimit="2"/>
  <path d="m0 0-8-4v8z" fill="#000" fill-rule="nonzero" stroke="none" transform="translate(420 190)"/>
  <path d="m375 180v10h37" fill="none" stroke="#000" stroke-linecap="butt" stroke-linejoin="miter" stroke-miterlimit="2"/>
  <path d="m200 290h35" fill="none" stroke="#000" stroke-linecap="butt" stroke-linejoin="miter" stroke-miterlimit="2"/>
  <path d="m0 0-8-4v8z" fill="#000" fill-rule="nonzero" stroke="none" transform="translate(280 290)"/>
  <path d="m235 290h37" fill="none" stroke="#000" stroke-linecap="butt" stroke-linejoin="miter" stroke-miterlimit="2"/>
  <path d="m0 0-8-4v8z" fill="#000" fill-rule="nonzero" stroke="none" transform="matrix(0 -1 1 0 235 265)"/>
  <path d="m235 290v-17" fill="none" stroke="#000" stroke-linecap="butt" stroke-linejoin="miter" stroke-miterlimit="2"/>
  <path d="m2.5 0c0 1.38071-1.11929 2.5-2.5 2.5s-2.5-1.11929-2.5-2.5 1.11929-2.5 2.5-2.5 2.5 1.11929 2.5 2.5z" fill="#000" fill-rule="evenodd" stroke="none" transform="translate(235 290)"/>
  <path d="m135 140v-10" fill="none" stroke="#000" stroke-linecap="butt" stroke-linejoin="miter" stroke-miterlimit="2"/>
  <path d="m0 0-8-4v8z" fill="#000" fill-rule="nonzero" stroke="none" transform="matrix(0 -1 1 0 135 115)"/>
  <path d="m135 130v-7" fill="none" stroke="#000" stroke-linecap="butt" stroke-linejoin="miter" stroke-miterlimit="2"/>
  <path d="m0 0-8-4v8z" fill="#000" fill-rule="nonzero" stroke="none" transform="translate(180 130)"/>
  <path d="m135 130h37" fill="none" stroke="#000" stroke-linecap="butt" stroke-linejoin="miter" stroke-miterlimit="2"/>
  <path d="m2.5 0c0 1.38071-1.11929 2.5-2.5 2.5s-2.5-1.11929-2.5-2.5 1.11929-2.5 2.5-2.5 2.5 1.11929 2.5 2.5z" fill="#000" fill-rule="evenodd" stroke="none" transform="translate(135 130)"/>
  <path d="m440 290h22" fill="none" stroke="#000" stroke-linecap="butt" stroke-linejoin="miter" stroke-miterlimit="2"/>
  <path d="m0 0-8-4v8z" fill="#000" fill-rule="nonzero" stroke="none" transform="translate(495 250)"/>
  <path d="m462 290v-40h25" fill="none" stroke="#000" stroke-linecap="butt" stroke-linejoin="miter" stroke-miterlimit="2"/>
  <path d="m0 0-8-4v8z" fill="#000" fill-rule="nonzero" stroke="none" transform="translate(490 290)"/>
  <path d="m462 290h20" fill="none" stroke="#000" stroke-linecap="butt" stroke-linejoin="miter" stroke-miterlimit="2"/>
  <path d="m2.5 0c0 1.38071-1.11929 2.5-2.5 2.5s-2.5-1.11929-2.5-2.5 1.11929-2.5 2.5-2.5 2.5 1.11929 2.5 2.5z" fill="#000" fill-rule="evenodd" stroke="none" transform="translate(462 290)"/>
  <path d="m0 0-8-4v8z" fill="#000" fill-rule="nonzero" stroke="none" transform="translate(125 55)"/>
  <path d="m100 55h17" fill="none" stroke="#000" stroke-linecap="butt" stroke-linejoin="miter" stroke-miterlimit="2"/>
  <path d="m0 0-8-4v8z" fill="#000" fill-rule="nonzero" stroke="none" transform="matrix(0 1 -1 0 505 240)"/>
  <path d="m495 220h10v12" fill="none" stroke="#000" stroke-linecap="butt" stroke-linejoin="miter" stroke-miterlimit="2"/>
  <path d="m0 0-8-4v8z" fill="#000" fill-rule="nonzero" stroke="none" transform="translate(365 90)"/>
  <path d="m325 90h32" fill="none" stroke="#000" stroke-linecap="butt" stroke-linejoin="miter" stroke-miterlimit="2"/>
  <path d="m0 0-8-4v8z" fill="#000" fill-rule="nonzero" stroke="none" transform="translate(170 290)"/>
  <path d="m145 290h17" fill="none" stroke="#000" stroke-linecap="butt" stroke-linejoin="miter" stroke-miterlimit="2"/>
  <path d="m0 0-8-4v8z" fill="#000" fill-rule="nonzero" stroke="none" transform="translate(300 55)"/>
  <path d="m265 55h27" fill="none" stroke="#000" stroke-linecap="butt" stroke-linejoin="miter" stroke-miterlimit="2"/>
  <path d="m0 0-8-4v8z" fill="#000" fill-rule="nonzero" stroke="none" transform="translate(220 130)"/>
  <path d="m200 130h12" fill="none" stroke="#000" stroke-linecap="butt" stroke-linejoin="miter" stroke-miterlimit="2"/>
  <path d="m0 0-8-4v8z" fill="#000" fill-rule="nonzero" stroke="none" transform="translate(420 90)"/>
  <path d="m385 90h27" fill="none" stroke="#000" stroke-linecap="butt" stroke-linejoin="miter" stroke-miterlimit="2"/>
  <path d="m0 0-8-4v8z" fill="#000" fill-rule="nonzero" stroke="none" transform="matrix(0 -1 1 0 525 65)"/>
  <path d="m525 80v-7" fill="none" stroke="#000" stroke-linecap="butt" stroke-linejoin="miter" stroke-miterlimit="2"/>
  <path d="m390 255h40" fill="none" stroke="#000" stroke-linecap="butt" stroke-linejoin="miter" stroke-miterlimit="2"/>
  <path d="m0 0-8-4v8z" fill="#000" fill-rule="nonzero" stroke="none" transform="matrix(0 1 -1 0 430 280)"/>
  <path d="m430 255v17" fill="none" stroke="#000" stroke-linecap="butt" stroke-linejoin="miter" stroke-miterlimit="2"/>
  <path d="m0 0-8-4v8z" fill="#000" fill-rule="nonzero" stroke="none" transform="matrix(0 -1 1 0 430 230)"/>
  <path d="m430 255v-17" fill="none" stroke="#000" stroke-linecap="butt" stroke-linejoin="miter" stroke-miterlimit="2"/>
  <path d="m2.5 0c0 1.38071-1.11929 2.5-2.5 2.5s-2.5-1.11929-2.5-2.5 1.11929-2.5 2.5-2.5 2.5 1.11929 2.5 2.5z" fill="#000" fill-rule="evenodd" stroke="none" transform="translate(430 255)"/>
  <path d="m0 0-8-4v8z" fill="#000" fill-rule="nonzero" stroke="none" transform="translate(340 290)"/>
  <path d="m310 290h22" fill="none" stroke="#000" stroke-linecap="butt" stroke-linejoin="miter" stroke-miterlimit="2"/>
  <path d="m0 0-8-4v8z" fill="#000" fill-rule="nonzero" stroke="none" transform="translate(570 55)"/>
  <path d="m535 55h27" fill="none" stroke="#000" stroke-linecap="butt" stroke-linejoin="miter" stroke-miterlimit="2"/>
  <path d="m335 130h40" fill="none" stroke="#000" stroke-linecap="butt" stroke-linejoin="miter" stroke-miterlimit="2"/>
  <path d="m0 0-8-4v8z" fill="#000" fill-rule="nonzero" stroke="none" transform="matrix(0 1 -1 0 375 150)"/>
  <path d="m375 130v12" fill="none" stroke="#000" stroke-linecap="butt" stroke-linejoin="miter" stroke-miterlimit="2"/>
  <path d="m0 0-8-4v8z" fill="#000" fill-rule="nonzero" stroke="none" transform="matrix(0 -1 1 0 375 100)"/>
  <path d="m375 130v-22" fill="none" stroke="#000" stroke-linecap="butt" stroke-linejoin="miter" stroke-miterlimit="2"/>
  <path d="m2.5 0c0 1.38071-1.11929 2.5-2.5 2.5s-2.5-1.11929-2.5-2.5 1.11929-2.5 2.5-2.5 2.5 1.11929 2.5 2.5z" fill="#000" fill-rule="evenodd" stroke="none" transform="translate(375 130)"/>
  <path d="m430 180v-15" fill="none" stroke="#000" stroke-linecap="butt" stroke-linejoin="miter" stroke-miterlimit="2"/>
  <path d="m0 0-8-4v8z" fill="#000" fill-rule="nonzero" stroke="none" transform="matrix(0 -1 1 0 430 150)"/>
  <path d="m430 165v-7" fill="none" stroke="#000" stroke-linecap="butt" stroke-linejoin="miter" stroke-miterlimit="2"/>
  <path d="m0 0-8-4v8z" fill="#000" fill-rule="nonzero" stroke="none" transform="translate(465 165)"/>
  <path d="m430 165h27" fill="none" stroke="#000" stroke-linecap="butt" stroke-linejoin="miter" stroke-miterlimit="2"/>
  <path d="m2.5 0c0 1.38071-1.11929 2.5-2.5 2.5s-2.5-1.11929-2.5-2.5 1.11929-2.5 2.5-2.5 2.5 1.11929 2.5 2.5z" fill="#000" fill-rule="evenodd" stroke="none" transform="translate(430 165)"/>
  <path d="m330 55h45" fill="none" stroke="#000" stroke-linecap="butt" stroke-linejoin="miter" stroke-miterlimit="2"/>
  <path d="m0 0-8-4v8z" fill="#000" fill-rule="nonzero" stroke="none" transform="matrix(0 1 -1 0 375 80)"/>
  <path d="m375 55v17" fill="none" stroke="#000" stroke-linecap="butt" stroke-linejoin="miter" stroke-miterlimit="2"/>
  <path d="m0 0-8-4v8z" fill="#000" fill-rule="nonzero" stroke="none" transform="translate(415 55)"/>
  <path d="m375 55h32" fill="none" stroke="#000" stroke-linecap="butt" stroke-linejoin="miter" stroke-miterlimit="2"/>
  <path d="m2.5 0c0 1.38071-1.11929 2.5-2.5 2.5s-2.5-1.11929-2.5-2.5 1.11929-2.5 2.5-2.5 2.5 1.11929 2.5 2.5z" fill="#000" fill-rule="evenodd" stroke="none" transform="translate(375 55)"/>
  <path d="m0 0-8-4v8z" fill="#000" fill-rule="nonzero" stroke="none" transform="matrix(0 -1 1 0 525 100)"/>
  <path d="m525 115v-7" fill="none" stroke="#000" stroke-linecap="butt" stroke-linejoin="miter" stroke-miterlimit="2"/>
  <path d="m515 250h30" fill="none" stroke="#000" stroke-linecap="butt" stroke-linejoin="miter" stroke-miterlimit="2"/>
  <path d="m0 0-8-4v8z" fill="#000" fill-rule="nonzero" stroke="none" transform="matrix(0 -1 1 0 545 235)"/>
  <path d="m545 250v-7" fill="none" stroke="#000" stroke-linecap="butt" stroke-linejoin="miter" stroke-miterlimit="2"/>
  <path d="m0 0-8-4v8z" fill="#000" fill-rule="nonzero" stroke="none" transform="translate(570 250)"/>
  <path d="m545 250h17" fill="none" stroke="#000" stroke-linecap="butt" stroke-linejoin="miter" stroke-miterlimit="2"/>
  <path d="m2.5 0c0 1.38071-1.11929 2.5-2.5 2.5s-2.5-1.11929-2.5-2.5 1.11929-2.5 2.5-2.5 2.5 1.11929 2.5 2.5z" fill="#000" fill-rule="evenodd" stroke="none" transform="translate(545 250)"/>
  <path d="m100 190h35" fill="none" stroke="#000" stroke-linecap="butt" stroke-linejoin="miter" stroke-miterlimit="2"/>
  <path d="m0 0-8-4v8z" fill="#000" fill-rule="nonzero" stroke="none" transform="matrix(0 1 -1 0 135 220)"/>
  <path d="m135 190v22" fill="none" stroke="#000" stroke-linecap="butt" stroke-linejoin="miter" stroke-miterlimit="2"/>
  <path d="m135 190h55" fill="none" stroke="#000" stroke-linecap="butt" stroke-linejoin="miter" stroke-miterlimit="2"/>
  <path d="m0 0-8-4v8z" fill="#000" fill-rule="nonzero" stroke="none" transform="matrix(0 1 -1 0 190 210)"/>
  <path d="m190 190v12" fill="none" stroke="#000" stroke-linecap="butt" stroke-linejoin="miter" stroke-miterlimit="2"/>
  <path d="m0 0-8-4v8z" fill="#000" fill-rule="nonzero" stroke="none" transform="matrix(0 -1 1 0 190 140)"/>
  <path d="m190 190v-42" fill="none" stroke="#000" stroke-linecap="butt" stroke-linejoin="miter" stroke-miterlimit="2"/>
  <path d="m0 0-8-4v8z" fill="#000" fill-rule="nonzero" stroke="none" transform="matrix(0 -1 1 0 135 170)"/>
  <path d="m135 190v-12" fill="none" stroke="#000" stroke-linecap="butt" stroke-linejoin="miter" stroke-miterlimit="2"/>
  <g fill="#000" fill-rule="evenodd" stroke="none">
   <path d="m2.5 0c0 1.38071-1.11929 2.5-2.5 2.5s-2.5-1.11929-2.5-2.5 1.11929-2.5 2.5-2.5 2.5 1.11929 2.5 2.5z" transform="translate(135 190)"/>
   <path d="m2.5 0c0 1.38071-1.11929 2.5-2.5 2.5s-2.5-1.11929-2.5-2.5 1.11929-2.5 2.5-2.5 2.5 1.11929 2.5 2.5z" transform="translate(190 190)"/>
  </g>
 </g>
</svg>
