<svg height="135" preserveAspectRatio="xMinYMin meet" viewBox="395 380 462 135" width="462" xmlns="http://www.w3.org/2000/svg" xmlns:xlink="http://www.w3.org/1999/xlink" zoomAndPan="disable">
 <clipPath id="a">
  <path d="m0 0h460v133h-460z"/>
 </clipPath>
 <clipPath id="b">
  <path d="m-34-30h460v137h-460z"/>
 </clipPath>
 <clipPath id="c">
  <path d="m-34-30h460v137h-460z"/>
 </clipPath>
 <clipPath id="d">
  <path d="m-34-30h460v137h-460z"/>
 </clipPath>
 <clipPath id="e">
  <path d="m-34-30h460v137h-460z"/>
 </clipPath>
 <clipPath id="f">
  <path d="m-34-30h460v137h-460z"/>
 </clipPath>
 <clipPath id="g">
  <path d="m-34-30h460v137h-460z"/>
 </clipPath>
 <clipPath id="h">
  <path d="m-34-30h460v137h-460z"/>
 </clipPath>
 <clipPath id="i">
  <path d="m-34-30h460v137h-460z"/>
 </clipPath>
 <clipPath id="j">
  <path d="m-34-30h460v137h-460z"/>
 </clipPath>
 <g fill="none" fill-rule="evenodd" stroke="#000" stroke-linecap="square" stroke-linejoin="bevel">
  <g stroke="none">
   <path d="m396 381h460v133h-460z" fill="#fff" fill-rule="evenodd" pointer-events="none"/>
   <g transform="translate(396 381)">
    <path d="m0 .5c0-.276142.223858-.5.5-.5h459c.276 0 .5.223858.5.5v132c0 .276-.224.5-.5.5h-459c-.276142 0-.5-.224-.5-.5z" fill="#fff" fill-rule="evenodd"/>
    <g clip-path="url(#a)" fill="none" stroke-opacity="0">
     <path d="m0 0h460v133h-460z" fill-rule="evenodd"/>
    </g>
   </g>
  </g>
  <g fill="#fff" transform="translate(430 409)">
   <path d="m0 0h136.312v78h-136.312z" fill-rule="evenodd" stroke="none"/>
   <g stroke-linecap="square" stroke-linejoin="bevel">
    <g clip-path="url(#b)" stroke="#f00">
     <text fill="#f00" font-family="Courier New" font-size="16" font-weight="700" stroke="none" textLength="28.7812" x="24.9844" y="15">1j:</text>
    </g>
    <g clip-path="url(#c)" stroke="#000">
     <text fill="#000" font-family="Courier New" font-size="16" font-weight="700" stroke="none" textLength="57.5625" x="53.7656" y="15">blocks</text>
    </g>
    <g clip-path="url(#d)" stroke="#000">
     <text fill="#000" font-family="Courier New" font-size="16" font-weight="700" stroke="none" textLength="57.5625" x="1" y="34">blocks</text>
    </g>
    <g clip-path="url(#e)" stroke="#0070c0">
     <text fill="#0070c0" font-family="Courier New" font-size="16" font-weight="700" stroke="none" textLength="76.75" x="58.5625" y="34">:[1:3]*j</text>
    </g>
    <g clip-path="url(#f)" stroke="#000">
     <text fill="#000" font-family="Courier New" font-size="16" font-weight="700" stroke="none" textLength="57.5625" x="1" y="53">blocks</text>
    </g>
    <g clip-path="url(#g)" stroke="#ffc000">
     <text fill="#ffc000" font-family="Courier New" font-size="16" font-weight="700" stroke="none" textLength="76.75" x="58.5625" y="53">:[2,4]*j</text>
    </g>
    <g clip-path="url(#h)" stroke="#00b050">
     <text fill="#00b050" font-family="Courier New" font-size="16" font-weight="700" stroke="none" textLength="28.7812" x="10.5938" y="72">1j:</text>
    </g>
    <g clip-path="url(#i)" stroke="#000">
     <text fill="#000" font-family="Courier New" font-size="16" font-weight="700" stroke="none" textLength="57.5625" x="39.375" y="72">blocks</text>
    </g>
    <g clip-path="url(#j)" stroke="#00b050">
     <text fill="#00b050" font-family="Courier New" font-size="16" font-weight="700" stroke="none" textLength="28.7812" x="96.9375" y="72">:1j</text>
    </g>
   </g>
  </g>
  <path d="m0-5 5 5-5 5" style="fill:none;stroke:#00b050;stroke-linecap:round;stroke-linejoin:miter;stroke-miterlimit:2;stroke-width:2" transform="translate(720 395)"/>
  <path d="m0 0h20v16h-20z" fill="#fff" fill-rule="evenodd" stroke="none" transform="translate(700 387)"/>
  <path d="m0 0h20v16h-20z" fill="none" stroke="none" transform="translate(700 387)"/>
  <path d="m0-5 5 5-5 5" style="fill:none;stroke:#00b050;stroke-linecap:round;stroke-linejoin:miter;stroke-miterlimit:2;stroke-width:2" transform="translate(825 425)"/>
  <path d="m0 0h20v16h-20z" fill="#fff" fill-rule="evenodd" stroke="none" transform="translate(805 417)"/>
  <g fill="none">
   <path d="m0 0h20v16h-20z" stroke="none" transform="translate(805 417)"/>
   <g stroke="#ffc000" stroke-linecap="round" stroke-linejoin="miter" stroke-miterlimit="2" stroke-width="2">
    <path d="m0-5 5 5-5 5" transform="translate(825 445)"/>
    <path d="m0-5 5 5-5 5" transform="translate(825 485)"/>
   </g>
  </g>
  <path d="m0 0h20v78h-20z" fill="#fff" fill-rule="evenodd" stroke="none" transform="translate(805 426)"/>
  <g fill="none">
   <path d="m0 0h20v78h-20z" stroke="none" transform="translate(805 426)"/>
   <g stroke="#ffc000" stroke-linecap="round" stroke-linejoin="miter" stroke-miterlimit="2" stroke-width="2">
    <path d="m0-5 5 5-5 5" transform="translate(720 415)"/>
    <path d="m0-5 5 5-5 5" transform="translate(720 455)"/>
   </g>
  </g>
  <path d="m0 0h15v80h-15z" fill="#fff" fill-rule="evenodd" stroke="none" transform="translate(705 395)"/>
  <g fill="none">
   <path d="m0 0h15v80h-15z" stroke="none" transform="translate(705 395)"/>
   <g stroke="#0070c0" stroke-linecap="round" stroke-linejoin="miter" stroke-miterlimit="2" stroke-width="2">
    <path d="m0-5 5 5-5 5" transform="translate(715 435)"/>
    <path d="m0-5 5 5-5 5" transform="translate(715 395)"/>
    <path d="m0-5 5 5-5 5" transform="translate(715 415)"/>
   </g>
  </g>
  <path d="m0 0h20v68h-20z" fill="#fff" fill-rule="evenodd" stroke="none" transform="translate(695 381)"/>
  <g fill="none">
   <path d="m0 0h20v68h-20z" stroke="none" transform="translate(695 381)"/>
   <g stroke="#0070c0" stroke-linecap="round" stroke-linejoin="miter" stroke-miterlimit="2" stroke-width="2">
    <path d="m0-5 5 5-5 5" transform="translate(820 465)"/>
    <path d="m0-5 5 5-5 5" transform="translate(820 425)"/>
    <path d="m0-5 5 5-5 5" transform="translate(820 445)"/>
   </g>
  </g>
  <path d="m0 0h25v54h-25z" fill="#fff" fill-rule="evenodd" stroke="none" transform="translate(795 418)"/>
  <path d="m0 0h25v54h-25z" fill="none" stroke="none" transform="translate(795 418)"/>
  <path d="m5-5-5 5 5 5" style="fill:none;stroke:#00b050;stroke-linecap:round;stroke-linejoin:miter;stroke-miterlimit:2;stroke-width:2" transform="matrix(-1 0 0 -1 740 435)"/>
  <path d="m0 0h25v14h-25z" fill="#fff" fill-rule="evenodd" stroke="none" transform="translate(740 428)"/>
  <path d="m0 0h25v14h-25z" fill="none" stroke="none" transform="translate(740 428)"/>
  <path d="m5-5-5 5 5 5" style="fill:none;stroke:#00b050;stroke-linecap:round;stroke-linejoin:miter;stroke-miterlimit:2;stroke-width:2" transform="matrix(-1 0 0 -1 630 400)"/>
  <path d="m0 0h25v14h-25z" fill="#fff" fill-rule="evenodd" stroke="none" transform="translate(630 393)"/>
  <path d="m0 0h25v14h-25z" fill="none" stroke="none" transform="translate(630 393)"/>
  <path d="m5-5-5 5 5 5" style="fill:none;stroke:#e60000;stroke-linecap:round;stroke-linejoin:miter;stroke-miterlimit:2;stroke-width:2" transform="matrix(-1 0 0 -1 745 435)"/>
  <path d="m0 0h20v14h-20z" fill="#fff" fill-rule="evenodd" stroke="none" transform="translate(745 428)"/>
  <path d="m0 0h20v14h-20z" fill="none" stroke="none" transform="translate(745 428)"/>
  <path d="m5-5-5 5 5 5" style="fill:none;stroke:#e60000;stroke-linecap:round;stroke-linejoin:miter;stroke-miterlimit:2;stroke-width:2" transform="matrix(-1 0 0 -1 635 400)"/>
  <path d="m0 0h20v14h-20z" fill="#fff" fill-rule="evenodd" stroke="none" transform="translate(635 393)"/>
  <path d="m0 0h20v14h-20z" fill="none" stroke="none" transform="translate(635 393)"/>
  <g fill="#fff">
   <g fill-rule="nonzero" stroke="#000" stroke-linecap="butt" stroke-linejoin="miter" stroke-miterlimit="2">
    <path d="m8 4c0 2.20914-1.79086 4-4 4s-4-1.79086-4-4 1.79086-4 4-4 4 1.79086 4 4z" transform="translate(705 471)"/>
    <path d="m8 4c0 2.20914-1.79086 4-4 4s-4-1.79086-4-4 1.79086-4 4-4 4 1.79086 4 4z" transform="translate(705 451)"/>
    <path d="m8 4c0 2.20914-1.79086 4-4 4s-4-1.79086-4-4 1.79086-4 4-4 4 1.79086 4 4z" transform="translate(705 391)"/>
    <path d="m8 4c0 2.20914-1.79086 4-4 4s-4-1.79086-4-4 1.79086-4 4-4 4 1.79086 4 4z" transform="matrix(-1 0 0 1 645 471)"/>
    <path d="m8 4c0 2.20914-1.79086 4-4 4s-4-1.79086-4-4 1.79086-4 4-4 4 1.79086 4 4z" transform="translate(705 431)"/>
    <path d="m8 4c0 2.20914-1.79086 4-4 4s-4-1.79086-4-4 1.79086-4 4-4 4 1.79086 4 4z" transform="translate(705 411)"/>
    <path d="m8 4c0 2.20914-1.79086 4-4 4s-4-1.79086-4-4 1.79086-4 4-4 4 1.79086 4 4z" transform="matrix(-1 0 0 1 645 446)"/>
    <path d="m8 4c0 2.20914-1.79086 4-4 4s-4-1.79086-4-4 1.79086-4 4-4 4 1.79086 4 4z" transform="matrix(-1 0 0 1 645 421)"/>
    <path d="m8 4c0 2.20914-1.79086 4-4 4s-4-1.79086-4-4 1.79086-4 4-4 4 1.79086 4 4z" transform="matrix(-1 0 0 1 645 396)"/>
   </g>
   <path d="m0 0h60v102h-60z" fill-rule="evenodd" stroke="none" transform="translate(645 384)"/>
  </g>
  <path d="m0 0h60v102h-60z" fill="none" stroke="#000" stroke-linecap="butt" stroke-linejoin="miter" stroke-miterlimit="2" transform="translate(645 384)"/>
  <g fill="#fff">
   <g fill-rule="nonzero" stroke="#000" stroke-linecap="butt" stroke-linejoin="miter" stroke-miterlimit="2">
    <path d="m8 4c0 2.20914-1.79086 4-4 4s-4-1.79086-4-4 1.79086-4 4-4 4 1.79086 4 4z" transform="translate(810 501)"/>
    <path d="m8 4c0 2.20914-1.79086 4-4 4s-4-1.79086-4-4 1.79086-4 4-4 4 1.79086 4 4z" transform="translate(810 481)"/>
    <path d="m8 4c0 2.20914-1.79086 4-4 4s-4-1.79086-4-4 1.79086-4 4-4 4 1.79086 4 4z" transform="translate(810 461)"/>
    <path d="m8 4c0 2.20914-1.79086 4-4 4s-4-1.79086-4-4 1.79086-4 4-4 4 1.79086 4 4z" transform="translate(810 441)"/>
    <path d="m8 4c0 2.20914-1.79086 4-4 4s-4-1.79086-4-4 1.79086-4 4-4 4 1.79086 4 4z" transform="translate(810 421)"/>
    <path d="m8 4c0 2.20914-1.79086 4-4 4s-4-1.79086-4-4 1.79086-4 4-4 4 1.79086 4 4z" transform="matrix(-1 0 0 1 755 461)"/>
    <path d="m8 4c0 2.20914-1.79086 4-4 4s-4-1.79086-4-4 1.79086-4 4-4 4 1.79086 4 4z" transform="matrix(-1 0 0 1 755 431)"/>
    <path d="m8 4c0 2.20914-1.79086 4-4 4s-4-1.79086-4-4 1.79086-4 4-4 4 1.79086 4 4z" transform="matrix(-1 0 0 1 755 491)"/>
   </g>
   <path d="m0 0h55v98h-55z" fill-rule="evenodd" stroke="none" transform="translate(755 416)"/>
  </g>
  <path d="m0 0h55v98h-55z" fill="none" stroke="#000" stroke-linecap="butt" stroke-linejoin="miter" stroke-miterlimit="2" transform="translate(755 416)"/>
 </g>
</svg>
