<svg height="155" preserveAspectRatio="xMinYMin meet" viewBox="523 438 404.25 155" width="404.25" xmlns="http://www.w3.org/2000/svg" xmlns:xlink="http://www.w3.org/1999/xlink" zoomAndPan="disable">
 <clipPath id="a">
  <path d="m0 0h399v137h-399z"/>
 </clipPath>
 <clipPath id="b">
  <path d="m-14-32h407v155h-407z"/>
 </clipPath>
 <clipPath id="c">
  <path d="m-14-32h407v155h-407z"/>
 </clipPath>
 <clipPath id="d">
  <path d="m-14-32h407v155h-407z"/>
 </clipPath>
 <clipPath id="e">
  <path d="m-14-32h407v155h-407z"/>
 </clipPath>
 <clipPath id="f">
  <path d="m-14-32h407v155h-407z"/>
 </clipPath>
 <clipPath id="g">
  <path d="m-14-32h407v155h-407z"/>
 </clipPath>
 <clipPath id="h">
  <path d="m-14-32h407v155h-407z"/>
 </clipPath>
 <clipPath id="i">
  <path d="m-14-32h407v155h-407z"/>
 </clipPath>
 <clipPath id="j">
  <path d="m-14-32h407v155h-407z"/>
 </clipPath>
 <clipPath id="k">
  <path d="m-254.766-141h407v155h-407z"/>
 </clipPath>
 <clipPath id="l">
  <path d="m0 0h30v30h-30z"/>
 </clipPath>
 <clipPath id="m">
  <path d="m6-1h30v30h-30z"/>
 </clipPath>
 <clipPath id="n">
  <path d="m-177.523-50h407v155h-407z"/>
 </clipPath>
 <clipPath id="o">
  <path d="m799.5 446.5h30v31h-30z"/>
 </clipPath>
 <clipPath id="p">
  <path d="m799.5 446.5h30v31h-30z"/>
 </clipPath>
 <clipPath id="q">
  <path d="m799.5 446.5h30v31h-30z"/>
 </clipPath>
 <clipPath id="r">
  <path d="m799.5 446.5h30v31h-30z"/>
 </clipPath>
 <clipPath id="s">
  <path d="m799.5 446.5h30v31h-30z"/>
 </clipPath>
 <clipPath id="t">
  <path d="m799.5 446.5h30v31h-30z"/>
 </clipPath>
 <clipPath id="u">
  <path d="m-272.516-43h407v155h-407z"/>
 </clipPath>
 <clipPath id="v">
  <path d="m0 0h30v30h-30z"/>
 </clipPath>
 <clipPath id="w">
  <path d="m6-1h30v30h-30z"/>
 </clipPath>
 <clipPath id="x">
  <path d="m-359.75-35h407v155h-407z"/>
 </clipPath>
 <clipPath id="y">
  <path d="m889.5 541.5h30v31h-30z"/>
 </clipPath>
 <clipPath id="z">
  <path d="m889.5 541.5h30v31h-30z"/>
 </clipPath>
 <clipPath id="A">
  <path d="m889.5 541.5h30v31h-30z"/>
 </clipPath>
 <clipPath id="B">
  <path d="m-365.016-138h407.0004v155h-407.0004z"/>
 </clipPath>
 <clipPath id="C">
  <path d="m710 523h5v29h-5z"/>
 </clipPath>
 <clipPath id="D">
  <path d="m-173.352-117h407v155h-407z"/>
 </clipPath>
 <clipPath id="E">
  <path d="m0 0h30v30h-30z"/>
 </clipPath>
 <clipPath id="F">
  <path d="m6-1h30v30h-30z"/>
 </clipPath>
 <clipPath id="G">
  <path d="m819.5 524.5h30v30h-30z"/>
 </clipPath>
 <clipPath id="H">
  <path d="m819.5 524.5h30v30h-30z"/>
 </clipPath>
 <clipPath id="I">
  <path d="m-295.297-120h407v155h-407z"/>
 </clipPath>
 <clipPath id="J">
  <path d="m790 533h5v29h-5z"/>
 </clipPath>
 <clipPath id="K">
  <path d="m-256.953-127h407v155h-407z"/>
 </clipPath>
 <clipPath id="L">
  <path d="m889.5 486.5h30v36h-30z"/>
 </clipPath>
 <clipPath id="M">
  <path d="m889.5 486.5h30v36h-30z"/>
 </clipPath>
 <clipPath id="N">
  <path d="m889.5 486.5h30v36h-30z"/>
 </clipPath>
 <clipPath id="O">
  <path d="m889.5 486.5h30v36h-30z"/>
 </clipPath>
 <clipPath id="P">
  <path d="m889.5 486.5h30v36h-30z"/>
 </clipPath>
 <clipPath id="Q">
  <path d="m889.5 486.5h30v36h-30z"/>
 </clipPath>
 <clipPath id="R">
  <path d="m889.5 486.5h30v36h-30z"/>
 </clipPath>
 <clipPath id="S">
  <path d="m889.5 486.5h30v36h-30z"/>
 </clipPath>
 <clipPath id="T">
  <path d="m889.5 486.5h30v36h-30z"/>
 </clipPath>
 <clipPath id="U">
  <path d="m889.5 486.5h30v36h-30z"/>
 </clipPath>
 <clipPath id="V">
  <path d="m889.5 486.5h30v36h-30z"/>
 </clipPath>
 <clipPath id="W">
  <path d="m889.5 486.5h30v36h-30z"/>
 </clipPath>
 <clipPath id="X">
  <path d="m889.5 486.5h30v36h-30z"/>
 </clipPath>
 <clipPath id="Y">
  <path d="m889.5 486.5h30v36h-30z"/>
 </clipPath>
 <clipPath id="Z">
  <path d="m889.5 486.5h30v36h-30z"/>
 </clipPath>
 <clipPath id="aa">
  <path d="m889.5 486.5h30v36h-30z"/>
 </clipPath>
 <clipPath id="ab">
  <path d="m889.5 486.5h30v36h-30z"/>
 </clipPath>
 <clipPath id="ac">
  <path d="m-6-17h30v36h-30z"/>
 </clipPath>
 <clipPath id="ad">
  <path d="m-374.734-88h406.9996v155h-406.9996z"/>
 </clipPath>
 <clipPath id="ae">
  <path d="m-12-5h25v10h-25z"/>
 </clipPath>
 <clipPath id="af">
  <path d="m849.5 499.5h25v10h-25z"/>
 </clipPath>
 <clipPath id="ag">
  <path d="m849.5 499.5h25v10h-25z"/>
 </clipPath>
 <clipPath id="ah">
  <path d="m-332.234-75h406.9996v155h-406.9996z"/>
 </clipPath>
 <clipPath id="ai">
  <path d="m784.5 494.5h20v20h-20z"/>
 </clipPath>
 <clipPath id="aj">
  <path d="m784.5 494.5h20v20h-20z"/>
 </clipPath>
 <clipPath id="ak">
  <path d="m784.5 494.5h20v20h-20z"/>
 </clipPath>
 <clipPath id="al">
  <path d="m-253.633-80h407v155h-407z"/>
 </clipPath>
 <clipPath id="am">
  <path d="m-12-5h25v10h-25z"/>
 </clipPath>
 <clipPath id="an">
  <path d="m739.5 464.5h25v10h-25z"/>
 </clipPath>
 <clipPath id="ao">
  <path d="m739.5 464.5h25v10h-25z"/>
 </clipPath>
 <clipPath id="ap">
  <path d="m-222.234-40h407v155h-407z"/>
 </clipPath>
 <clipPath id="aq">
  <path d="m-12-5h25v10h-25z"/>
 </clipPath>
 <clipPath id="ar">
  <path d="m739.5 534.5h25v10h-25z"/>
 </clipPath>
 <clipPath id="as">
  <path d="m739.5 534.5h25v10h-25z"/>
 </clipPath>
 <clipPath id="at">
  <path d="m-222.234-110h407v155h-407z"/>
 </clipPath>
 <g fill="none" fill-rule="evenodd" stroke="#000" stroke-linecap="square" stroke-linejoin="bevel">
  <g stroke="none">
   <path d="m524 439h402.25v153h-402.25z" fill="#fff" fill-rule="evenodd" pointer-events="none"/>
   <g transform="translate(524 439)">
    <path d="m0 .5c0-.276142.223858-.5.5-.5h398c.276 0 .5.223858.5.5v136c0 .276-.224.5-.5.5h-398c-.276142 0-.5-.224-.5-.5z" fill="#fff" fill-rule="evenodd"/>
    <g clip-path="url(#a)" fill="none" stroke-opacity="0">
     <path d="m0 0h399v137h-399z" fill-rule="evenodd"/>
    </g>
   </g>
  </g>
  <g transform="translate(538 469)">
   <path d="m0 0h145.906v78h-145.906z" fill="#fff" fill-rule="evenodd" stroke="none"/>
   <g stroke-linecap="square" stroke-linejoin="bevel">
    <g clip-path="url(#b)" fill="#fff" stroke="#000">
     <text fill="#000" font-family="Courier New" font-size="16" font-weight="700" stroke="none" textLength="9.59375" x="34.5781" y="15">'</text>
    </g>
    <g clip-path="url(#c)" fill="#fff" stroke="#f00">
     <text fill="#f00" font-family="Courier New" font-size="16" font-weight="700" stroke="none" textLength="57.5625" x="44.1719" y="15">#adapt</text>
    </g>
    <g style="fill:#000;font-family:Courier New;font-size:16;font-weight:700;stroke:none;clip-path:url(#d)">
     <text textLength="9.59375" x="101.734" y="15">'</text>
     <text textLength="9.59375" x="53.7656" y="34">'</text>
    </g>
    <g clip-path="url(#e)" fill="#fff" stroke="#0070c0">
     <text fill="#0070c0" font-family="Courier New" font-size="16" font-weight="700" stroke="none" textLength="19.1875" x="63.3594" y="34">#x</text>
    </g>
    <g style="fill:#000;font-family:Courier New;font-size:16;font-weight:700;stroke:none;clip-path:url(#f)">
     <text textLength="9.59375" x="82.5469" y="34">'</text>
     <text textLength="9.59375" x="1" y="53">'</text>
    </g>
    <g clip-path="url(#g)" fill="#fff" stroke="#ffc000">
     <text fill="#ffc000" font-family="Courier New" font-size="16" font-weight="700" stroke="none" textLength="124.719" x="10.5938" y="53">#garbleburble</text>
    </g>
    <g style="fill:#000;font-family:Courier New;font-size:16;font-weight:700;stroke:none;clip-path:url(#h)">
     <text textLength="9.59375" x="135.312" y="53">'</text>
     <text textLength="9.59375" x="24.9844" y="72">'</text>
    </g>
    <g fill="#fff">
     <g clip-path="url(#i)" stroke="#00b050">
      <text fill="#00b050" font-family="Courier New" font-size="16" font-weight="700" stroke="none" textLength="76.75" x="34.5781" y="72">#process</text>
     </g>
     <g clip-path="url(#j)" stroke="#000">
      <text fill="#000" font-family="Courier New" font-size="16" font-weight="700" stroke="none" textLength="9.59375" x="111.328" y="72">'</text>
     </g>
    </g>
   </g>
  </g>
  <path d="m0 0h115v137h-115z" fill="#fff" fill-rule="evenodd" stroke="none" transform="translate(750 439)"/>
  <g fill="none">
   <path d="m0 0h115v137h-115z" stroke="#ffc000" stroke-linecap="butt" stroke-linejoin="miter" stroke-miterlimit="2" stroke-width="2" transform="translate(750 439)"/>
   <g clip-path="url(#k)" stroke="#ffc000" stroke-linecap="square" stroke-linejoin="bevel" transform="translate(778.766 578)">
    <text fill="#ffc000" font-family="Arial" font-size="10" font-weight="400" stroke="none" textLength="55.4688" x="1" y="10">garbleburble</text>
   </g>
   <g stroke="#e60000" stroke-linecap="round" stroke-linejoin="miter" stroke-miterlimit="2" stroke-width="2">
    <path d="m5-5-5 5 5 5" transform="matrix(-1 0 0 -1 700 470)"/>
    <path d="m0-5 5 5-5 5" transform="translate(730 470)"/>
   </g>
  </g>
  <g stroke="none">
   <g transform="translate(700 455)">
    <path d="m28 16 6 3-30 15v-6z" fill="#000" fill-opacity=".8" fill-rule="evenodd"/>
    <path d="m0 0 30 15-30 15z" fill="#fff" fill-rule="nonzero"/>
    <g clip-path="url(#l)" fill="none" stroke-opacity="0">
     <path d="m0 0 30 15-30 15z" fill-rule="nonzero"/>
    </g>
   </g>
   <g clip-path="url(#m)" fill="#e60000" stroke-opacity="0" transform="translate(694.492 455.914)">
    <path d="m12.6406 15.6875.875-.1094c.1042.4896.2761.8464.5156 1.0703.2396.224.5365.336.8907.336.4166 0 .7656-.1433 1.0469-.4297.2812-.2865.4218-.6432.4218-1.0703 0-.4063-.1302-.7396-.3906-1s-.5938-.3906-1-.3906c-.1667 0-.375.0312-.625.0937l.0938-.7656h.1406c.375 0 .7135-.0964 1.0156-.2891s.4531-.4922.4531-.8984c0-.3229-.1093-.5912-.3281-.8047-.2188-.2136-.5-.3203-.8438-.3203-.3437 0-.6302.1067-.8593.3203-.2292.2135-.375.5391-.4375.9765l-.875-.1562c.1041-.5938.3463-1.0521.7265-1.375s.8516-.4844 1.4141-.4844c.3958 0 .7578.0834 1.0859.25.3282.1667.5782.3959.75.6875.1719.2917.2579.599.2579.9219 0 .3125-.0808.5938-.2422.8438-.1615.25-.4089.4531-.7422.6093.4271.0938.7578.2943.9922.6016.2343.3073.3515.6953.3515 1.1641 0 .625-.2291 1.1536-.6875 1.5859-.4583.4323-1.0312.6484-1.7187.6484-.6354 0-1.1589-.1875-1.5703-.5625-.4115-.375-.6485-.8594-.711-1.4531z" fill-rule="nonzero"/>
   </g>
  </g>
  <g fill="none">
   <path d="m0 0 30 15-30 15z" stroke="#e60000" stroke-linecap="butt" stroke-linejoin="miter" stroke-miterlimit="2" transform="translate(700 455)"/>
   <g clip-path="url(#n)" stroke="#e60000" stroke-linecap="square" stroke-linejoin="bevel" transform="translate(701.523 487)">
    <text fill="#e60000" font-family="Arial" font-size="10" font-weight="400" stroke="none" textLength="24.9531" x="1" y="10">adapt</text>
   </g>
   <g stroke="#00b050" stroke-linecap="round" stroke-linejoin="miter" stroke-miterlimit="2" stroke-width="2">
    <path d="m0-5 5 5-5 5" transform="translate(830 465)"/>
    <path d="m5-5-5 5 5 5" transform="matrix(-1 0 0 -1 800 470)"/>
    <path d="m5-5-5 5 5 5" transform="matrix(-1 0 0 -1 800 455)"/>
   </g>
  </g>
  <path d="m0 0h30v31h-30z" fill="#fff" fill-rule="nonzero" stroke="none" transform="translate(800 447)"/>
  <g fill="none" stroke="#00b050">
   <g stroke-linecap="square" stroke-linejoin="bevel">
    <g clip-path="url(#o)" transform="translate(.5 .5)">
     <path d="m803 455h4" fill="none"/>
    </g>
    <g clip-path="url(#p)" transform="translate(.5 .5)">
     <path d="m805 453v4" fill="none"/>
    </g>
    <g clip-path="url(#q)" transform="translate(.5 .5)">
     <path d="m803 470h4" fill="none"/>
    </g>
    <g clip-path="url(#r)" transform="translate(.5 .5)">
     <path d="m805 468v4" fill="none"/>
    </g>
    <g clip-path="url(#s)" transform="translate(.5 .5)">
     <path d="m800 475h30" fill="none"/>
    </g>
    <g clip-path="url(#t)" transform="translate(.5 .5)">
     <path d="m800 450h30" fill="none"/>
    </g>
   </g>
   <path d="m0 0h30v31h-30z" stroke-linecap="butt" stroke-linejoin="miter" stroke-miterlimit="2" transform="translate(800 447)"/>
   <g clip-path="url(#u)" stroke-linecap="square" stroke-linejoin="bevel" transform="translate(796.516 480)">
    <text fill="#00b050" font-family="Arial" font-size="10" font-weight="400" stroke="none" textLength="34.9688" x="1" y="10">process</text>
   </g>
   <g stroke-linecap="round" stroke-linejoin="miter" stroke-miterlimit="2" stroke-width="2">
    <path d="m0-5 5 5-5 5" transform="translate(920 455)"/>
    <path d="m5-5-5 5 5 5" transform="matrix(-1 0 0 -1 890 455)"/>
   </g>
  </g>
  <g stroke="none">
   <path d="m0 0 30 15-30 15z" fill="#fff" fill-rule="nonzero" transform="translate(890 440)"/>
   <g stroke-opacity="0">
    <g clip-path="url(#v)" fill="none" transform="translate(890 440)">
     <path d="m0 0 30 15-30 15z" fill-rule="nonzero"/>
    </g>
    <g clip-path="url(#w)" fill="#00b050" transform="translate(884.492 440.914)">
     <path d="m12.6406 15.6875.875-.1094c.1042.4896.2761.8464.5156 1.0703.2396.224.5365.336.8907.336.4166 0 .7656-.1433 1.0469-.4297.2812-.2865.4218-.6432.4218-1.0703 0-.4063-.1302-.7396-.3906-1s-.5938-.3906-1-.3906c-.1667 0-.375.0312-.625.0937l.0938-.7656h.1406c.375 0 .7135-.0964 1.0156-.2891s.4531-.4922.4531-.8984c0-.3229-.1093-.5912-.3281-.8047-.2188-.2136-.5-.3203-.8438-.3203-.3437 0-.6302.1067-.8593.3203-.2292.2135-.375.5391-.4375.9765l-.875-.1562c.1041-.5938.3463-1.0521.7265-1.375s.8516-.4844 1.4141-.4844c.3958 0 .7578.0834 1.0859.25.3282.1667.5782.3959.75.6875.1719.2917.2579.599.2579.9219 0 .3125-.0808.5938-.2422.8438-.1615.25-.4089.4531-.7422.6093.4271.0938.7578.2943.9922.6016.2343.3073.3515.6953.3515 1.1641 0 .625-.2291 1.1536-.6875 1.5859-.4583.4323-1.0312.6484-1.7187.6484-.6354 0-1.1589-.1875-1.5703-.5625-.4115-.375-.6485-.8594-.711-1.4531z" fill-rule="nonzero"/>
    </g>
   </g>
  </g>
  <g fill="none">
   <path d="m0 0 30 15-30 15z" stroke="#00b050" stroke-linecap="butt" stroke-linejoin="miter" stroke-miterlimit="2" transform="translate(890 440)"/>
   <g clip-path="url(#x)" stroke="#00b050" stroke-linecap="square" stroke-linejoin="bevel" transform="translate(883.75 472)">
    <text fill="#00b050" font-family="Arial" font-size="10" font-weight="400" stroke="none" textLength="39" x="1" xml:space="preserve" y="10"> process</text>
   </g>
   <g stroke="#000" stroke-linecap="round" stroke-linejoin="miter" stroke-miterlimit="2" stroke-width="2">
    <path d="m0-5 5 5-5 5" transform="translate(920 560)"/>
    <path d="m5-5-5 5 5 5" transform="matrix(-1 0 0 -1 890 565)"/>
    <path d="m5-5-5 5 5 5" transform="matrix(-1 0 0 -1 890 550)"/>
   </g>
  </g>
  <path d="m30 4h4v31h-30v-4h26z" fill="#000" fill-opacity=".8" fill-rule="evenodd" stroke="none" transform="translate(890 542)"/>
  <path d="m0 0h30v31h-30z" fill="#fff" fill-rule="nonzero" stroke="none" transform="translate(890 542)"/>
  <g fill="none" stroke="#000">
   <g stroke-linecap="butt" stroke-linejoin="miter" stroke-miterlimit="2">
    <g clip-path="url(#y)" transform="translate(.5 .5)">
     <path d="m893 550h4" fill="none"/>
    </g>
    <g clip-path="url(#z)" transform="translate(.5 .5)">
     <path d="m895 548v4" fill="none"/>
    </g>
    <g clip-path="url(#A)" transform="translate(.5 .5)">
     <path d="m893 565h4" fill="none"/>
    </g>
    <path d="m0 0h30v31h-30z" transform="translate(890 542)"/>
   </g>
   <g clip-path="url(#B)" stroke-linecap="square" stroke-linejoin="bevel" transform="translate(889.016 575)">
    <text fill="#000" font-family="Arial" font-size="10" font-weight="400" stroke="none" textLength="29.9688" x="1" y="10">rework</text>
   </g>
   <g stroke-linecap="round" stroke-linejoin="miter" stroke-miterlimit="2" stroke-width="2">
    <path d="m5-5-5 5 5 5" transform="matrix(-1 0 0 -1 710 530)"/>
    <path d="m5-5-5 5 5 5" transform="matrix(-1 0 0 -1 710 545)"/>
    <path d="m0-5 5 5-5 5" transform="translate(715 540)"/>
   </g>
  </g>
  <path d="m0 0h5v29h-5z" fill="#0070c0" fill-rule="evenodd" stroke="none" transform="translate(710 523)"/>
  <g clip-path="url(#C)" fill="#000" stroke="none" stroke-opacity="0">
   <path d="m710 523h5v29h-5z" fill-rule="evenodd"/>
  </g>
  <g fill="none" stroke="#000">
   <path d="m0 0h5v29h-5z" stroke-linecap="butt" stroke-linejoin="miter" stroke-miterlimit="2" transform="translate(710 523)"/>
   <g clip-path="url(#D)" stroke-linecap="square" stroke-linejoin="bevel" transform="translate(697.352 554)">
    <text fill="#000" font-family="Arial" font-size="10" font-weight="400" stroke="none" textLength="28.2969" x="1" y="10">collect</text>
   </g>
   <g stroke-linecap="round" stroke-linejoin="miter" stroke-miterlimit="2" stroke-width="2">
    <path d="m5-5-5 5 5 5" transform="matrix(-1 0 0 -1 820 540)"/>
    <path d="m0-5 5 5-5 5" transform="translate(850 540)"/>
   </g>
  </g>
  <g stroke="none">
   <path d="m0 0 30 15-30 15z" fill="#fff" fill-rule="nonzero" transform="translate(820 525)"/>
   <g clip-path="url(#E)" fill="none" stroke-opacity="0" transform="translate(820 525)">
    <path d="m0 0 30 15-30 15z" fill-rule="nonzero"/>
   </g>
   <g clip-path="url(#F)" fill="#000" stroke-opacity="0" transform="translate(814.492 525.914)">
    <path d="m17.25 16.7344v.8437h-4.7344c0-.2083.0365-.4114.1094-.6093.125-.323.3177-.6407.5781-.9532s.6459-.6718 1.1563-1.0781c.7708-.6458 1.2942-1.1536 1.5703-1.5234.276-.3698.4141-.7214.4141-1.0547 0-.3542-.125-.6485-.375-.8828-.25-.2344-.573-.3516-.9688-.3516-.4271 0-.7682.125-1.0234.375s-.3828.599-.3828 1.0469l-.9063-.0938c.0625-.6666.2943-1.1771.6953-1.5312.4011-.3542.9453-.5313 1.6328-.5313s1.2318.1901 1.6328.5703c.4011.3802.6016.8516.6016 1.4141 0 .2917-.0599.5755-.1797.8516-.1198.276-.3151.5677-.5859.875-.2709.3073-.724.7265-1.3594 1.2578-.5208.4375-.8568.737-1.0078.8984-.1511.1615-.2734.3203-.3672.4766z" fill-rule="nonzero"/>
   </g>
  </g>
  <g fill="none" stroke="#000">
   <g stroke-linecap="butt" stroke-linejoin="miter" stroke-miterlimit="2">
    <g clip-path="url(#G)" transform="translate(.5 .5)">
     <path d="m820 552 24-12" fill="none"/>
    </g>
    <g clip-path="url(#H)" transform="translate(.5 .5)">
     <path d="m844 540-24-12" fill="none"/>
    </g>
    <path d="m0 0 30 15-30 15z" transform="translate(820 525)"/>
   </g>
   <g clip-path="url(#I)" stroke-linecap="square" stroke-linejoin="bevel" transform="translate(819.297 557)">
    <text fill="#000" font-family="Arial" font-size="10" font-weight="400" stroke="none" textLength="29.4062" x="1" y="10">modify</text>
   </g>
   <g stroke-linecap="round" stroke-linejoin="miter" stroke-miterlimit="2" stroke-width="2">
    <path d="m0-5 5 5-5 5" transform="translate(795 540)"/>
    <path d="m5-5-5 5 5 5" transform="matrix(-1 0 0 -1 790 550)"/>
    <path d="m0-5 5 5-5 5" transform="translate(795 555)"/>
   </g>
  </g>
  <path d="m0 0h5v29h-5z" fill="#fff" fill-rule="evenodd" stroke="none" transform="translate(790 533)"/>
  <g clip-path="url(#J)" fill="#000" stroke="none" stroke-opacity="0">
   <path d="m790 533h5v29h-5z" fill-rule="evenodd"/>
  </g>
  <g fill="none">
   <path d="m0 0h5v29h-5z" stroke="#000" stroke-linecap="butt" stroke-linejoin="miter" stroke-miterlimit="2" transform="translate(790 533)"/>
   <g clip-path="url(#K)" stroke="#000" stroke-linecap="square" stroke-linejoin="bevel" transform="translate(780.953 564)">
    <text fill="#000" font-family="Arial" font-size="10" font-weight="400" stroke="none" textLength="21.0938" x="1" y="10">pass</text>
   </g>
   <g stroke="#0070c0" stroke-linecap="round" stroke-linejoin="miter" stroke-miterlimit="2" stroke-width="2">
    <path d="m0-5 5 5-5 5" transform="translate(920 505)"/>
    <path d="m5-5-5 5 5 5" transform="matrix(-1 0 0 -1 890 495)"/>
    <path d="m5-5-5 5 5 5" transform="matrix(-1 0 0 -1 890 515)"/>
    <path d="m5-5-5 5 5 5" transform="matrix(-1 0 0 -1 890 505)"/>
   </g>
  </g>
  <path d="m30 4h4v36h-30v-4h26z" fill="#000" fill-opacity=".8" fill-rule="evenodd" stroke="none" transform="translate(890 487)"/>
  <path d="m0 0h30v36h-30z" fill="#fff" fill-rule="evenodd" stroke="none" transform="translate(890 487)"/>
  <g fill="none">
   <g stroke="#0070c0">
    <g stroke-linecap="square" stroke-linejoin="bevel">
     <g clip-path="url(#L)" transform="translate(.5 .5)">
      <path d="m902 518v1" fill="none"/>
     </g>
     <g clip-path="url(#M)" transform="translate(.5 .5)">
      <path d="m902 519h1" fill="none"/>
     </g>
     <g clip-path="url(#N)" transform="translate(.5 .5)">
      <path d="m903 519v-2" fill="none"/>
     </g>
     <g clip-path="url(#O)" transform="translate(.5 .5)">
      <path d="m903 517h-1" fill="none"/>
     </g>
     <g clip-path="url(#P)" transform="translate(.5 .5)">
      <path d="m902 517v1" fill="none"/>
     </g>
     <g clip-path="url(#Q)" transform="translate(.5 .5)">
      <path d="m902 518h-12" fill="none"/>
     </g>
     <g clip-path="url(#R)" transform="translate(.5 .5)">
      <path d="m902 493v1" fill="none"/>
     </g>
     <g clip-path="url(#S)" transform="translate(.5 .5)">
      <path d="m902 494h1" fill="none"/>
     </g>
     <g clip-path="url(#T)" transform="translate(.5 .5)">
      <path d="m903 494v-2" fill="none"/>
     </g>
     <g clip-path="url(#U)" transform="translate(.5 .5)">
      <path d="m903 492h-1" fill="none"/>
     </g>
     <g clip-path="url(#V)" transform="translate(.5 .5)">
      <path d="m902 492v1" fill="none"/>
     </g>
     <g clip-path="url(#W)" transform="translate(.5 .5)">
      <path d="m902 493h-12" fill="none"/>
     </g>
     <g clip-path="url(#X)" transform="translate(.5 .5)">
      <path d="m903 493 11 12" fill="none"/>
     </g>
     <g clip-path="url(#Y)" transform="translate(.5 .5)">
      <path d="m914 505h6" fill="none"/>
     </g>
     <g clip-path="url(#Z)" transform="translate(.5 .5)">
      <path d="m894 509v-7" fill="none"/>
     </g>
     <g clip-path="url(#aa)" transform="translate(.5 .5)">
      <path d="m894 502v3" fill="none"/>
     </g>
     <g clip-path="url(#ab)" transform="translate(.5 .5)">
      <path d="m894 505h-4" fill="none"/>
     </g>
     <g clip-path="url(#ac)" transform="translate(896 504)">
      <text fill="#0070c0" font-family="Arial" font-size="10" font-weight="400" stroke="none" textLength="9" xml:space="preserve" y="3.5"> &gt;</text>
     </g>
    </g>
    <path d="m0 0h30v36h-30z" fill-rule="evenodd" stroke-linecap="butt" stroke-linejoin="miter" stroke-miterlimit="2" transform="translate(890 487)"/>
    <g clip-path="url(#ad)" stroke-linecap="square" stroke-linejoin="bevel" transform="translate(898.734 525)">
     <text fill="#0070c0" font-family="Arial" font-size="10" font-weight="400" stroke="none" textLength="8" x="1" xml:space="preserve" y="10"> x</text>
    </g>
   </g>
   <path d="m5-5-5 5 5 5" style="fill-rule:evenodd;stroke:#000;stroke-linecap:round;stroke-linejoin:miter;stroke-miterlimit:2;stroke-width:2" transform="matrix(-1 0 0 -1 850 505)"/>
  </g>
  <path d="m5 0h15c2.7614 0 5 2.23858 5 5s-2.2386 5-5 5h-15c-2.76142 0-5-2.23858-5-5s2.23858-5 5-5z" fill="#fff" fill-rule="nonzero" stroke="none" transform="translate(850 500)"/>
  <g fill="none" stroke="#000">
   <g stroke-linecap="butt" stroke-linejoin="miter" stroke-miterlimit="2">
    <g clip-path="url(#ae)" transform="translate(862 505)">
     <text fill="#000" font-family="Arial" font-size="10" font-weight="400" stroke="none" textLength="5.54688" x="-2.76562" y="3.5">1</text>
    </g>
    <g clip-path="url(#af)" transform="translate(.5 .5)">
     <path d="m855 510 4-10" fill="none"/>
    </g>
    <g clip-path="url(#ag)" transform="translate(.5 .5)">
     <path d="m866 510 4-10" fill="none"/>
    </g>
    <path d="m5 0h15c2.7614 0 5 2.23858 5 5s-2.2386 5-5 5h-15c-2.76142 0-5-2.23858-5-5s2.23858-5 5-5z" transform="translate(850 500)"/>
   </g>
   <g clip-path="url(#ah)" stroke-linecap="square" stroke-linejoin="bevel" transform="translate(856.234 512)">
    <text fill="#000" font-family="Arial" font-size="10" font-weight="400" stroke="none" textLength="5" x="1" y="10">z</text>
   </g>
   <g stroke-linecap="round" stroke-linejoin="miter" stroke-miterlimit="2" stroke-width="2">
    <path d="m5-5-5 5 5 5" transform="matrix(-.866025 .5 -.5 -.866025 787 510)"/>
    <path d="m0-5 5 5-5 5" transform="translate(805 505)"/>
    <path d="m5-5-5 5 5 5" transform="matrix(-.866025 -.5 .5 -.866025 787 500)"/>
   </g>
  </g>
  <path d="m24 14-.1611 1.7975-.4645 1.6918-.7397 1.5579-.9866 1.3957-1.2052 1.2052-1.3957.9866-1.5579.7397-1.6918.4645-1.7975.1611-1.7975-.1611-1.6918-.4645-1.55789-.7397-1.39568-.9866-1.20526-1.2052-.98658-1.3957-.13279-.2797 1.27818.6069 1.69181.4645 1.79751.1611 1.7975-.1611 1.6918-.4645 1.5579-.7397 1.3957-.9866 1.2052-1.2052.9866-1.3957.7397-1.5579.4645-1.6918.1611-1.7975-.1611-1.79751-.4645-1.69181-.6069-1.27818.2797.13279 1.3957.98658 1.2052 1.20526.9866 1.39568.7397 1.55789.4645 1.6918z" fill="#000" fill-opacity=".8" fill-rule="evenodd" stroke="none" transform="translate(785 495)"/>
  <path d="m20 10c0 5.5228-4.4772 10-10 10-5.52285 0-10-4.4772-10-10 0-5.52285 4.47715-10 10-10 5.5228 0 10 4.47715 10 10z" fill="#fff" fill-rule="nonzero" stroke="none" transform="translate(785 495)"/>
  <g fill="none">
   <g stroke="#000">
    <g stroke-linecap="butt" stroke-linejoin="miter" stroke-miterlimit="2">
     <g clip-path="url(#ai)" transform="translate(.5 .5)">
      <path d="m788 502h4" fill="none"/>
     </g>
     <g clip-path="url(#aj)" transform="translate(.5 .5)">
      <path d="m790 500v4" fill="none"/>
     </g>
     <g clip-path="url(#ak)" transform="translate(.5 .5)">
      <path d="m788 507h4" fill="none"/>
     </g>
     <path d="m20 10c0 5.5228-4.4772 10-10 10-5.52285 0-10-4.4772-10-10 0-5.52285 4.47715-10 10-10 5.5228 0 10 4.47715 10 10z" transform="translate(785 495)"/>
    </g>
    <g clip-path="url(#al)" stroke-linecap="square" stroke-linejoin="bevel" transform="translate(777.633 517)">
     <text fill="#000" font-family="Arial" font-size="10" font-weight="400" stroke="none" textLength="32.7344" x="1" y="10">change</text>
    </g>
   </g>
   <path d="m0-5 5 5-5 5" stroke="#0070c0" stroke-linecap="round" stroke-linejoin="miter" stroke-miterlimit="2" stroke-width="2" transform="translate(765 470)"/>
  </g>
  <path d="m5 0h15c2.7614 0 5 2.23858 5 5s-2.2386 5-5 5h-15c-2.76142 0-5-2.23858-5-5s2.23858-5 5-5z" fill="#fff" fill-rule="nonzero" stroke="none" transform="translate(740 465)"/>
  <g fill="none">
   <g stroke="#0070c0">
    <g stroke-linecap="square" stroke-linejoin="bevel">
     <g clip-path="url(#am)" transform="translate(752 470)">
      <text fill="#0070c0" font-family="Arial" font-size="10" font-weight="400" stroke="none" textLength="5.54688" x="-2.76562" y="3.5">1</text>
     </g>
     <g clip-path="url(#an)" transform="translate(.5 .5)">
      <path d="m745 475 4-10" fill="none"/>
     </g>
     <g clip-path="url(#ao)" transform="translate(.5 .5)">
      <path d="m756 475 4-10" fill="none"/>
     </g>
    </g>
    <path d="m5 0h15c2.7614 0 5 2.23858 5 5s-2.2386 5-5 5h-15c-2.76142 0-5-2.23858-5-5s2.23858-5 5-5z" stroke-linecap="butt" stroke-linejoin="miter" stroke-miterlimit="2" transform="translate(740 465)"/>
    <g clip-path="url(#ap)" stroke-linecap="square" stroke-linejoin="bevel" transform="translate(746.234 477)">
     <text fill="#0070c0" font-family="Arial" font-size="10" font-weight="400" stroke="none" textLength="10.5312" x="1" xml:space="preserve" y="10">  x</text>
    </g>
   </g>
   <path d="m0-5 5 5-5 5" stroke="#000" stroke-linecap="round" stroke-linejoin="miter" stroke-miterlimit="2" stroke-width="2" transform="translate(765 540)"/>
  </g>
  <path d="m5 0h15c2.7614 0 5 2.23858 5 5s-2.2386 5-5 5h-15c-2.76142 0-5-2.23858-5-5s2.23858-5 5-5z" fill="#fff" fill-rule="nonzero" stroke="none" transform="translate(740 535)"/>
  <g fill="none" stroke="#000">
   <g stroke-linecap="butt" stroke-linejoin="miter" stroke-miterlimit="2">
    <g clip-path="url(#aq)" transform="translate(752 540)">
     <text fill="#000" font-family="Arial" font-size="10" font-weight="400" stroke="none" textLength="5.54688" x="-2.76562" y="3.5">2</text>
    </g>
    <g clip-path="url(#ar)" transform="translate(.5 .5)">
     <path d="m745 545 4-10" fill="none"/>
    </g>
    <g clip-path="url(#as)" transform="translate(.5 .5)">
     <path d="m756 545 4-10" fill="none"/>
    </g>
    <path d="m5 0h15c2.7614 0 5 2.23858 5 5s-2.2386 5-5 5h-15c-2.76142 0-5-2.23858-5-5s2.23858-5 5-5z" transform="translate(740 535)"/>
   </g>
   <g clip-path="url(#at)" stroke-linecap="square" stroke-linejoin="bevel" transform="translate(746.234 547)">
    <text fill="#000" font-family="Arial" font-size="10" font-weight="400" stroke="none" textLength="10.5312" x="1" xml:space="preserve" y="10">  y</text>
   </g>
  </g>
 </g>
</svg>
