<svg height="143" preserveAspectRatio="xMinYMin meet" viewBox="-273 84 405.25 143" width="405.25" xmlns="http://www.w3.org/2000/svg" xmlns:xlink="http://www.w3.org/1999/xlink" zoomAndPan="disable">
 <clipPath id="a">
  <path d="m0 0h400v141h-400z"/>
 </clipPath>
 <clipPath id="b">
  <path d="m-24-34.0001h408v145.0001h-408z"/>
 </clipPath>
 <clipPath id="c">
  <path d="m-24-34.0001h408v145.0001h-408z"/>
 </clipPath>
 <clipPath id="d">
  <path d="m-24-34.0001h408v145.0001h-408z"/>
 </clipPath>
 <clipPath id="e">
  <path d="m-24-34.0001h408v145.0001h-408z"/>
 </clipPath>
 <clipPath id="f">
  <path d="m-24-34.0001h408v145.0001h-408z"/>
 </clipPath>
 <clipPath id="g">
  <path d="m-24-34.0001h408v145.0001h-408z"/>
 </clipPath>
 <clipPath id="h">
  <path d="m-24-34.0001h408v145.0001h-408z"/>
 </clipPath>
 <clipPath id="i">
  <path d="m-24-34.0001h408v145.0001h-408z"/>
 </clipPath>
 <clipPath id="j">
  <path d="m-24-34.0001h408v145.0001h-408z"/>
 </clipPath>
 <clipPath id="k">
  <path d="m0 0h30v30h-30z"/>
 </clipPath>
 <clipPath id="l">
  <path d="m6-1h30v30h-30z"/>
 </clipPath>
 <clipPath id="m">
  <path d="m4.5 96.5h30v31h-30z"/>
 </clipPath>
 <clipPath id="n">
  <path d="m4.5 96.5h30v31h-30z"/>
 </clipPath>
 <clipPath id="o">
  <path d="m4.5 96.5h30v31h-30z"/>
 </clipPath>
 <clipPath id="p">
  <path d="m4.5 96.5h30v31h-30z"/>
 </clipPath>
 <clipPath id="q">
  <path d="m4.5 96.5h30v31h-30z"/>
 </clipPath>
 <clipPath id="r">
  <path d="m4.5 96.5h30v31h-30z"/>
 </clipPath>
 <clipPath id="s">
  <path d="m-273.516-47.0001h408v145.0001h-408z"/>
 </clipPath>
 <clipPath id="t">
  <path d="m0 0h30v30h-30z"/>
 </clipPath>
 <clipPath id="u">
  <path d="m6-1h30v30h-30z"/>
 </clipPath>
 <clipPath id="v">
  <path d="m-360.75-34.0001h408v145.0001h-408z"/>
 </clipPath>
 <clipPath id="w">
  <path d="m94.5 191.5h30v31h-30z"/>
 </clipPath>
 <clipPath id="x">
  <path d="m94.5 191.5h30v31h-30z"/>
 </clipPath>
 <clipPath id="y">
  <path d="m94.5 191.5h30v31h-30z"/>
 </clipPath>
 <clipPath id="z">
  <path d="m0 0h30v30h-30z"/>
 </clipPath>
 <clipPath id="A">
  <path d="m6-1h30v30h-30z"/>
 </clipPath>
 <clipPath id="B">
  <path d="m24.5 174.5h30v30h-30z"/>
 </clipPath>
 <clipPath id="C">
  <path d="m24.5 174.5h30v30h-30z"/>
 </clipPath>
 <clipPath id="D">
  <path d="m94.5 136.5h30v36h-30z"/>
 </clipPath>
 <clipPath id="E">
  <path d="m94.5 136.5h30v36h-30z"/>
 </clipPath>
 <clipPath id="F">
  <path d="m94.5 136.5h30v36h-30z"/>
 </clipPath>
 <clipPath id="G">
  <path d="m94.5 136.5h30v36h-30z"/>
 </clipPath>
 <clipPath id="H">
  <path d="m94.5 136.5h30v36h-30z"/>
 </clipPath>
 <clipPath id="I">
  <path d="m94.5 136.5h30v36h-30z"/>
 </clipPath>
 <clipPath id="J">
  <path d="m94.5 136.5h30v36h-30z"/>
 </clipPath>
 <clipPath id="K">
  <path d="m94.5 136.5h30v36h-30z"/>
 </clipPath>
 <clipPath id="L">
  <path d="m94.5 136.5h30v36h-30z"/>
 </clipPath>
 <clipPath id="M">
  <path d="m94.5 136.5h30v36h-30z"/>
 </clipPath>
 <clipPath id="N">
  <path d="m94.5 136.5h30v36h-30z"/>
 </clipPath>
 <clipPath id="O">
  <path d="m94.5 136.5h30v36h-30z"/>
 </clipPath>
 <clipPath id="P">
  <path d="m94.5 136.5h30v36h-30z"/>
 </clipPath>
 <clipPath id="Q">
  <path d="m94.5 136.5h30v36h-30z"/>
 </clipPath>
 <clipPath id="R">
  <path d="m94.5 136.5h30v36h-30z"/>
 </clipPath>
 <clipPath id="S">
  <path d="m94.5 136.5h30v36h-30z"/>
 </clipPath>
 <clipPath id="T">
  <path d="m94.5 136.5h30v36h-30z"/>
 </clipPath>
 <clipPath id="U">
  <path d="m-6-17h30v36h-30z"/>
 </clipPath>
 <clipPath id="V">
  <path d="m-12-5h25v10h-25z"/>
 </clipPath>
 <clipPath id="W">
  <path d="m54.5 149.5h25v10h-25z"/>
 </clipPath>
 <clipPath id="X">
  <path d="m54.5 149.5h25v10h-25z"/>
 </clipPath>
 <clipPath id="Y">
  <path d="m-10.5 144.5h20v20h-20z"/>
 </clipPath>
 <clipPath id="Z">
  <path d="m-10.5 144.5h20v20h-20z"/>
 </clipPath>
 <clipPath id="aa">
  <path d="m-10.5 144.5h20v20h-20z"/>
 </clipPath>
 <clipPath id="ab">
  <path d="m-13-5h25v10h-25z"/>
 </clipPath>
 <clipPath id="ac">
  <path d="m-55.5 184.5h25v10h-25z"/>
 </clipPath>
 <clipPath id="ad">
  <path d="m-55.5 184.5h25v10h-25z"/>
 </clipPath>
 <clipPath id="ae">
  <path d="m-13-5h25v10h-25z"/>
 </clipPath>
 <clipPath id="af">
  <path d="m-55.5 114.5h25v10h-25z"/>
 </clipPath>
 <clipPath id="ag">
  <path d="m-55.5 114.5h25v10h-25z"/>
 </clipPath>
 <g fill="none" fill-rule="evenodd" stroke="#000" stroke-linecap="square" stroke-linejoin="bevel">
  <g stroke="none">
   <path d="m-272 85h403.25v141h-403.25z" fill="#fff" fill-rule="evenodd" pointer-events="none"/>
   <g transform="translate(-272 85)">
    <path d="m0 .5c0-.276142.223858-.5.5-.5h399c.276 0 .5.223858.5.5v140c0 .276-.224.5-.5.5h-399c-.276142 0-.5-.224-.5-.5z" fill="#fff" fill-rule="evenodd"/>
    <g clip-path="url(#a)" fill="none" stroke-opacity="0">
     <path d="m0 0h400v141h-400z" fill-rule="evenodd"/>
    </g>
   </g>
  </g>
  <g transform="translate(-248 117)">
   <path d="m0 0h126.719v78h-126.719z" fill="#fff" fill-rule="evenodd" stroke="none"/>
   <g stroke-linecap="square" stroke-linejoin="bevel">
    <g clip-path="url(#b)" fill="#fff" stroke="#000">
     <text fill="#000" font-family="Courier New" font-size="16" font-weight="700" stroke="none" textLength="9.59375" x="10.5938" y="15">'</text>
    </g>
    <g clip-path="url(#c)" fill="#fff" stroke="#f00">
     <text fill="#f00" font-family="Courier New" font-size="16" font-weight="700" stroke="none" textLength="86.3438" x="20.1875" y="15">+Selected</text>
    </g>
    <g style="fill:#000;font-family:Courier New;font-size:16;font-weight:700;stroke:none;clip-path:url(#d)">
     <text textLength="9.59375" x="106.531" y="15">'</text>
     <text textLength="9.59375" x="1" y="34">'</text>
    </g>
    <g clip-path="url(#e)" fill="#fff" stroke="#0070c0">
     <text fill="#0070c0" font-family="Courier New" font-size="16" font-weight="700" stroke="none" textLength="105.531" x="10.5938" y="34">+DropShadow</text>
    </g>
    <g style="fill:#000;font-family:Courier New;font-size:16;font-weight:700;stroke:none;clip-path:url(#f)">
     <text textLength="9.59375" x="116.125" y="34">'</text>
     <text textLength="9.59375" x="29.7812" y="53">'</text>
    </g>
    <g clip-path="url(#g)" fill="#fff" stroke="#ffc000">
     <text fill="#ffc000" font-family="Courier New" font-size="16" font-weight="700" stroke="none" textLength="47.9688" x="39.375" y="53">+Mask</text>
    </g>
    <g style="fill:#000;font-family:Courier New;font-size:16;font-weight:700;stroke:none;clip-path:url(#h)">
     <text textLength="9.59375" x="87.3438" y="53">'</text>
     <text textLength="9.59375" x="10.5938" y="72">'</text>
    </g>
    <g fill="#fff">
     <g clip-path="url(#i)" stroke="#00b050">
      <text fill="#00b050" font-family="Courier New" font-size="16" font-weight="700" stroke="none" textLength="86.3438" x="20.1875" y="72">+ShowName</text>
     </g>
     <g clip-path="url(#j)" stroke="#000">
      <text fill="#000" font-family="Courier New" font-size="16" font-weight="700" stroke="none" textLength="9.59375" x="106.531" y="72">'</text>
     </g>
    </g>
   </g>
  </g>
  <path d="m0 0h115v137h-115z" fill="#fff" fill-rule="evenodd" stroke="none" transform="translate(-45 89)"/>
  <path d="m0 0h115v137h-115z" style="fill:none;stroke:#ffc000;stroke-linecap:butt;stroke-linejoin:miter;stroke-miterlimit:2;stroke-width:2" transform="translate(-45 89)"/>
  <path d="m0 0h10v37h-10z" fill="#5af" fill-rule="evenodd" stroke="none" transform="translate(-7 179)"/>
  <path d="m0 0h10v37h-10z" style="fill:none;stroke:#5af;stroke-linecap:butt;stroke-linejoin:miter;stroke-miterlimit:2;stroke-width:2" transform="translate(-7 179)"/>
  <path d="m0 0h10v37h-10z" fill="#5af" fill-rule="evenodd" stroke="none" transform="translate(-87 169)"/>
  <path d="m0 0h10v37h-10z" style="fill:none;stroke:#5af;stroke-linecap:butt;stroke-linejoin:miter;stroke-miterlimit:2;stroke-width:2" transform="translate(-87 169)"/>
  <path d="m0-5 5 5-5 5" style="fill:none;stroke:#0070c0;stroke-linecap:round;stroke-linejoin:miter;stroke-miterlimit:2;stroke-width:2" transform="translate(-65 120)"/>
  <path d="m5-5-5 5 5 5" style="fill:none;stroke:#0070c0;stroke-linecap:round;stroke-linejoin:miter;stroke-miterlimit:2;stroke-width:2" transform="matrix(-1 0 0 -1 -95 120)"/>
  <g stroke="none">
   <g transform="translate(-95 105)">
    <path d="m28 16 6 3-30 15v-6z" fill="#000" fill-opacity=".8" fill-rule="evenodd"/>
    <path d="m0 0 30 15-30 15z" fill="#fff" fill-rule="nonzero"/>
    <g clip-path="url(#k)" fill="none" stroke-opacity="0">
     <path d="m0 0 30 15-30 15z" fill-rule="nonzero"/>
    </g>
   </g>
   <g clip-path="url(#l)" fill="#0070c0" stroke-opacity="0" transform="translate(-100.508 105.914)">
    <path d="m12.6406 15.6875.875-.1094c.1042.4896.2761.8464.5156 1.0703.2396.224.5365.336.8907.336.4166 0 .7656-.1433 1.0469-.4297.2812-.2865.4218-.6432.4218-1.0703 0-.4063-.1302-.7396-.3906-1s-.5938-.3906-1-.3906c-.1667 0-.375.0312-.625.0937l.0938-.7656h.1406c.375 0 .7135-.0964 1.0156-.2891s.4531-.4922.4531-.8984c0-.3229-.1093-.5912-.3281-.8047-.2188-.2136-.5-.3203-.8438-.3203-.3437 0-.6302.1067-.8593.3203-.2292.2135-.375.5391-.4375.9765l-.875-.1562c.1041-.5938.3463-1.0521.7265-1.375s.8516-.4844 1.4141-.4844c.3958 0 .7578.0834 1.0859.25.3282.1667.5782.3959.75.6875.1719.2917.2579.599.2579.9219 0 .3125-.0808.5938-.2422.8438-.1615.25-.4089.4531-.7422.6093.4271.0938.7578.2943.9922.6016.2343.3073.3515.6953.3515 1.1641 0 .625-.2291 1.1536-.6875 1.5859-.4583.4323-1.0312.6484-1.7187.6484-.6354 0-1.1589-.1875-1.5703-.5625-.4115-.375-.6485-.8594-.711-1.4531z" fill-rule="nonzero"/>
   </g>
  </g>
  <g fill="none" stroke-linejoin="miter" stroke-miterlimit="2">
   <path d="m0 0 30 15-30 15z" stroke="#0070c0" stroke-linecap="butt" transform="translate(-95 105)"/>
   <g stroke="#00b050" stroke-linecap="round" stroke-width="2">
    <path d="m0-5 5 5-5 5" transform="translate(35 115)"/>
    <path d="m5-5-5 5 5 5" transform="matrix(-1 0 0 -1 5 120)"/>
    <path d="m5-5-5 5 5 5" transform="matrix(-1 0 0 -1 5 105)"/>
   </g>
  </g>
  <path d="m0 0h30v31h-30z" fill="#fff" fill-rule="nonzero" stroke="none" transform="translate(5 97)"/>
  <g fill="none" stroke="#00b050">
   <g stroke-linecap="square" stroke-linejoin="bevel">
    <g clip-path="url(#m)" transform="translate(.5 .5)">
     <path d="m8 105h4" fill="none"/>
    </g>
    <g clip-path="url(#n)" transform="translate(.5 .5)">
     <path d="m10 103v4" fill="none"/>
    </g>
    <g clip-path="url(#o)" transform="translate(.5 .5)">
     <path d="m8 120h4" fill="none"/>
    </g>
    <g clip-path="url(#p)" transform="translate(.5 .5)">
     <path d="m10 118v4" fill="none"/>
    </g>
    <g clip-path="url(#q)" transform="translate(.5 .5)">
     <path d="m5 125h30" fill="none"/>
    </g>
    <g clip-path="url(#r)" transform="translate(.5 .5)">
     <path d="m5 100h30" fill="none"/>
    </g>
   </g>
   <path d="m0 0h30v31h-30z" stroke-linecap="butt" stroke-linejoin="miter" stroke-miterlimit="2" transform="translate(5 97)"/>
   <g clip-path="url(#s)" stroke-linecap="square" stroke-linejoin="bevel" transform="translate(1.51562 130)">
    <text fill="#00b050" font-family="Arial" font-size="10" font-weight="400" stroke="none" textLength="34.9688" x="1" y="10">process</text>
   </g>
   <g stroke-linecap="round" stroke-linejoin="miter" stroke-miterlimit="2" stroke-width="2">
    <path d="m0-5 5 5-5 5" transform="translate(125 100)"/>
    <path d="m5-5-5 5 5 5" transform="matrix(-1 0 0 -1 95 100)"/>
   </g>
  </g>
  <g stroke="none">
   <path d="m0 0 30 15-30 15z" fill="#fff" fill-rule="nonzero" transform="translate(95 85)"/>
   <g stroke-opacity="0">
    <g clip-path="url(#t)" fill="none" transform="translate(95 85)">
     <path d="m0 0 30 15-30 15z" fill-rule="nonzero"/>
    </g>
    <g clip-path="url(#u)" fill="#00b050" transform="translate(89.4922 85.9141)">
     <path d="m12.6406 15.6875.875-.1094c.1042.4896.2761.8464.5156 1.0703.2396.224.5365.336.8907.336.4166 0 .7656-.1433 1.0469-.4297.2812-.2865.4218-.6432.4218-1.0703 0-.4063-.1302-.7396-.3906-1s-.5938-.3906-1-.3906c-.1667 0-.375.0312-.625.0937l.0938-.7656h.1406c.375 0 .7135-.0964 1.0156-.2891s.4531-.4922.4531-.8984c0-.3229-.1093-.5912-.3281-.8047-.2188-.2136-.5-.3203-.8438-.3203-.3437 0-.6302.1067-.8593.3203-.2292.2135-.375.5391-.4375.9765l-.875-.1562c.1041-.5938.3463-1.0521.7265-1.375s.8516-.4844 1.4141-.4844c.3958 0 .7578.0834 1.0859.25.3282.1667.5782.3959.75.6875.1719.2917.2579.599.2579.9219 0 .3125-.0808.5938-.2422.8438-.1615.25-.4089.4531-.7422.6093.4271.0938.7578.2943.9922.6016.2343.3073.3515.6953.3515 1.1641 0 .625-.2291 1.1536-.6875 1.5859-.4583.4323-1.0312.6484-1.7187.6484-.6354 0-1.1589-.1875-1.5703-.5625-.4115-.375-.6485-.8594-.711-1.4531z" fill-rule="nonzero"/>
    </g>
   </g>
  </g>
  <g fill="none">
   <path d="m0 0 30 15-30 15z" stroke="#00b050" stroke-linecap="butt" stroke-linejoin="miter" stroke-miterlimit="2" transform="translate(95 85)"/>
   <g clip-path="url(#v)" stroke="#00b050" stroke-linecap="square" stroke-linejoin="bevel" transform="translate(88.75 117)">
    <text fill="#00b050" font-family="Arial" font-size="10" font-weight="400" stroke="none" textLength="39" x="1" xml:space="preserve" y="10"> process</text>
   </g>
   <g stroke="#0070c0" stroke-linecap="round" stroke-linejoin="miter" stroke-miterlimit="2" stroke-width="2">
    <path d="m5-5-5 5 5 5" transform="matrix(-1 0 0 -1 95 215)"/>
    <path d="m5-5-5 5 5 5" transform="matrix(-1 0 0 -1 95 200)"/>
    <path d="m0-5 5 5-5 5" transform="translate(125 210)"/>
   </g>
  </g>
  <path d="m30 4h4v31h-30v-4h26z" fill="#000" fill-opacity=".8" fill-rule="evenodd" stroke="none" transform="translate(95 192)"/>
  <path d="m0 0h30v31h-30z" fill="#fff" fill-rule="nonzero" stroke="none" transform="translate(95 192)"/>
  <g fill="none">
   <g stroke="#0070c0">
    <g stroke-linecap="square" stroke-linejoin="bevel">
     <g clip-path="url(#w)" transform="translate(.5 .5)">
      <path d="m98 200h4" fill="none"/>
     </g>
     <g clip-path="url(#x)" transform="translate(.5 .5)">
      <path d="m100 198v4" fill="none"/>
     </g>
     <g clip-path="url(#y)" transform="translate(.5 .5)">
      <path d="m98 215h4" fill="none"/>
     </g>
    </g>
    <path d="m0 0h30v31h-30z" stroke-linecap="butt" stroke-linejoin="miter" stroke-miterlimit="2" transform="translate(95 192)"/>
   </g>
   <g stroke="#e60000" stroke-linecap="round" stroke-linejoin="miter" stroke-miterlimit="2" stroke-width="2">
    <path d="m0-5 5 5-5 5" transform="translate(-80 190)"/>
    <path d="m5-5-5 5 5 5" transform="matrix(-1 0 0 -1 -85 195)"/>
    <path d="m5-5-5 5 5 5" transform="matrix(-1 0 0 -1 -85 180)"/>
   </g>
  </g>
  <path d="m0 0h5v29h-5z" fill="#e60000" fill-rule="evenodd" stroke="none" transform="translate(-85 173)"/>
  <path d="m0 0h5v29h-5z" fill="none" stroke="#e60000" stroke-linecap="butt" stroke-linejoin="miter" stroke-miterlimit="2" transform="translate(-85 173)"/>
  <path d="m0-5 5 5-5 5" style="fill:none;stroke:#000;stroke-linecap:round;stroke-linejoin:miter;stroke-miterlimit:2;stroke-width:2" transform="translate(55 190)"/>
  <path d="m5-5-5 5 5 5" style="fill:none;stroke:#000;stroke-linecap:round;stroke-linejoin:miter;stroke-miterlimit:2;stroke-width:2" transform="matrix(-1 0 0 -1 25 190)"/>
  <g stroke="none">
   <path d="m0 0 30 15-30 15z" fill="#fff" fill-rule="nonzero" transform="translate(25 175)"/>
   <g clip-path="url(#z)" fill="none" stroke-opacity="0" transform="translate(25 175)">
    <path d="m0 0 30 15-30 15z" fill-rule="nonzero"/>
   </g>
   <g clip-path="url(#A)" fill="#000" stroke-opacity="0" transform="translate(19.4922 175.914)">
    <path d="m17.25 16.7344v.8437h-4.7344c0-.2083.0365-.4114.1094-.6093.125-.323.3177-.6407.5781-.9532s.6459-.6718 1.1563-1.0781c.7708-.6458 1.2942-1.1536 1.5703-1.5234.276-.3698.4141-.7214.4141-1.0547 0-.3542-.125-.6485-.375-.8828-.25-.2344-.573-.3516-.9688-.3516-.4271 0-.7682.125-1.0234.375s-.3828.599-.3828 1.0469l-.9063-.0938c.0625-.6666.2943-1.1771.6953-1.5312.4011-.3542.9453-.5313 1.6328-.5313s1.2318.1901 1.6328.5703c.4011.3802.6016.8516.6016 1.4141 0 .2917-.0599.5755-.1797.8516-.1198.276-.3151.5677-.5859.875-.2709.3073-.724.7265-1.3594 1.2578-.5208.4375-.8568.737-1.0078.8984-.1511.1615-.2734.3203-.3672.4766z" fill-rule="nonzero"/>
   </g>
  </g>
  <g fill="none" stroke-linejoin="miter" stroke-miterlimit="2">
   <g stroke="#000" stroke-linecap="butt">
    <g clip-path="url(#B)" transform="translate(.5 .5)">
     <path d="m25 202 24-12" fill="none"/>
    </g>
    <g clip-path="url(#C)" transform="translate(.5 .5)">
     <path d="m49 190-24-12" fill="none"/>
    </g>
    <path d="m0 0 30 15-30 15z" transform="translate(25 175)"/>
   </g>
   <g stroke="#e60000" stroke-linecap="round" stroke-width="2">
    <path d="m5-5-5 5 5 5" transform="matrix(-1 0 0 -1 -5 200)"/>
    <path d="m0-5 5 5-5 5" transform="translate(0 190)"/>
    <path d="m0-5 5 5-5 5" transform="translate(0 205)"/>
   </g>
  </g>
  <path d="m0 0h5v29h-5z" fill="#e60000" fill-rule="evenodd" stroke="none" transform="translate(-5 183)"/>
  <g fill="none" stroke-linejoin="miter" stroke-miterlimit="2">
   <path d="m0 0h5v29h-5z" stroke="#e60000" stroke-linecap="butt" transform="translate(-5 183)"/>
   <g stroke="#0070c0" stroke-linecap="round" stroke-width="2">
    <path d="m5-5-5 5 5 5" transform="matrix(-1 0 0 -1 95 155)"/>
    <path d="m5-5-5 5 5 5" transform="matrix(-1 0 0 -1 95 145)"/>
    <path d="m5-5-5 5 5 5" transform="matrix(-1 0 0 -1 95 165)"/>
    <path d="m0-5 5 5-5 5" transform="translate(125 155)"/>
   </g>
  </g>
  <path d="m30 4h4v36h-30v-4h26z" fill="#000" fill-opacity=".8" fill-rule="evenodd" stroke="none" transform="translate(95 137)"/>
  <path d="m0 0h30v36h-30z" fill="#fff" fill-rule="evenodd" stroke="none" transform="translate(95 137)"/>
  <g fill="none">
   <g stroke="#0070c0">
    <g stroke-linecap="square" stroke-linejoin="bevel">
     <g clip-path="url(#D)" transform="translate(.5 .5)">
      <path d="m107 168v1" fill="none"/>
     </g>
     <g clip-path="url(#E)" transform="translate(.5 .5)">
      <path d="m107 169h1" fill="none"/>
     </g>
     <g clip-path="url(#F)" transform="translate(.5 .5)">
      <path d="m108 169v-2" fill="none"/>
     </g>
     <g clip-path="url(#G)" transform="translate(.5 .5)">
      <path d="m108 167h-1" fill="none"/>
     </g>
     <g clip-path="url(#H)" transform="translate(.5 .5)">
      <path d="m107 167v1" fill="none"/>
     </g>
     <g clip-path="url(#I)" transform="translate(.5 .5)">
      <path d="m107 168h-12" fill="none"/>
     </g>
     <g clip-path="url(#J)" transform="translate(.5 .5)">
      <path d="m107 143v1" fill="none"/>
     </g>
     <g clip-path="url(#K)" transform="translate(.5 .5)">
      <path d="m107 144h1" fill="none"/>
     </g>
     <g clip-path="url(#L)" transform="translate(.5 .5)">
      <path d="m108 144v-2" fill="none"/>
     </g>
     <g clip-path="url(#M)" transform="translate(.5 .5)">
      <path d="m108 142h-1" fill="none"/>
     </g>
     <g clip-path="url(#N)" transform="translate(.5 .5)">
      <path d="m107 142v1" fill="none"/>
     </g>
     <g clip-path="url(#O)" transform="translate(.5 .5)">
      <path d="m107 143h-12" fill="none"/>
     </g>
     <g clip-path="url(#P)" transform="translate(.5 .5)">
      <path d="m108 143 11 12" fill="none"/>
     </g>
     <g clip-path="url(#Q)" transform="translate(.5 .5)">
      <path d="m119 155h6" fill="none"/>
     </g>
     <g clip-path="url(#R)" transform="translate(.5 .5)">
      <path d="m99 159v-7" fill="none"/>
     </g>
     <g clip-path="url(#S)" transform="translate(.5 .5)">
      <path d="m99 152v3" fill="none"/>
     </g>
     <g clip-path="url(#T)" transform="translate(.5 .5)">
      <path d="m99 155h-4" fill="none"/>
     </g>
     <g clip-path="url(#U)" transform="translate(101 154)">
      <text fill="#0070c0" font-family="Arial" font-size="10" font-weight="400" stroke="none" textLength="9" xml:space="preserve" y="3.5"> &gt;</text>
     </g>
    </g>
    <path d="m0 0h30v36h-30z" fill-rule="evenodd" stroke-linecap="butt" stroke-linejoin="miter" stroke-miterlimit="2" transform="translate(95 137)"/>
   </g>
   <path d="m5-5-5 5 5 5" style="fill-rule:evenodd;stroke:#ffc000;stroke-linecap:round;stroke-linejoin:miter;stroke-miterlimit:2;stroke-width:2" transform="matrix(-1 0 0 -1 55 155)"/>
  </g>
  <path d="m5 0h15c2.7614 0 5 2.23858 5 5s-2.2386 5-5 5h-15c-2.76142 0-5-2.23858-5-5s2.23858-5 5-5z" fill="#fff" fill-rule="nonzero" stroke="none" transform="translate(55 150)"/>
  <g fill="none">
   <g stroke="#ffc000">
    <g stroke-linecap="square" stroke-linejoin="bevel">
     <g clip-path="url(#V)" transform="translate(67 155)">
      <text fill="#ffc000" font-family="Arial" font-size="10" font-weight="400" stroke="none" textLength="5.54688" x="-2.76562" y="3.5">1</text>
     </g>
     <g clip-path="url(#W)" transform="translate(.5 .5)">
      <path d="m60 160 4-10" fill="none"/>
     </g>
     <g clip-path="url(#X)" transform="translate(.5 .5)">
      <path d="m71 160 4-10" fill="none"/>
     </g>
    </g>
    <path d="m5 0h15c2.7614 0 5 2.23858 5 5s-2.2386 5-5 5h-15c-2.76142 0-5-2.23858-5-5s2.23858-5 5-5z" stroke-linecap="butt" stroke-linejoin="miter" stroke-miterlimit="2" transform="translate(55 150)"/>
   </g>
   <g stroke="#0070c0" stroke-linecap="round" stroke-linejoin="miter" stroke-miterlimit="2" stroke-width="2">
    <path d="m0-5 5 5-5 5" transform="translate(10 155)"/>
    <path d="m5-5-5 5 5 5" transform="matrix(-.866025 .5 -.5 -.866025 -8 160)"/>
    <path d="m5-5-5 5 5 5" transform="matrix(-.866025 -.5 .5 -.866025 -8 150)"/>
   </g>
  </g>
  <path d="m24 14-.1611 1.7975-.4645 1.6918-.7397 1.5579-.9866 1.3957-1.2052 1.2052-1.3957.9866-1.5579.7397-1.6918.4645-1.7975.1611-1.7975-.1611-1.6918-.4645-1.55789-.7397-1.39568-.9866-1.20526-1.2052-.98658-1.3957-.13279-.2797 1.27818.6069 1.69181.4645 1.79751.1611 1.7975-.1611 1.6918-.4645 1.5579-.7397 1.3957-.9866 1.2052-1.2052.9866-1.3957.7397-1.5579.4645-1.6918.1611-1.7975-.1611-1.79751-.4645-1.69181-.6069-1.27818.2797.13279 1.3957.98658 1.2052 1.20526.9866 1.39568.7397 1.55789.4645 1.6918z" fill="#000" fill-opacity=".8" fill-rule="evenodd" stroke="none" transform="translate(-10 145)"/>
  <path d="m20 10c0 5.5228-4.4772 10-10 10-5.52285 0-10-4.4772-10-10 0-5.52285 4.47715-10 10-10 5.5228 0 10 4.47715 10 10z" fill="#fff" fill-rule="nonzero" stroke="none" transform="translate(-10 145)"/>
  <g fill="none">
   <g stroke="#0070c0">
    <g stroke-linecap="square" stroke-linejoin="bevel">
     <g clip-path="url(#Y)" transform="translate(.5 .5)">
      <path d="m-6 152h4" fill="none"/>
     </g>
     <g clip-path="url(#Z)" transform="translate(.5 .5)">
      <path d="m-4 150v4" fill="none"/>
     </g>
     <g clip-path="url(#aa)" transform="translate(.5 .5)">
      <path d="m-6 157h4" fill="none"/>
     </g>
    </g>
    <path d="m20 10c0 5.5228-4.4772 10-10 10-5.52285 0-10-4.4772-10-10 0-5.52285 4.47715-10 10-10 5.5228 0 10 4.47715 10 10z" stroke-linecap="butt" stroke-linejoin="miter" stroke-miterlimit="2" transform="translate(-10 145)"/>
   </g>
   <path d="m0-5 5 5-5 5" stroke="#ffc000" stroke-linecap="round" stroke-linejoin="miter" stroke-miterlimit="2" stroke-width="2" transform="translate(-30 190)"/>
  </g>
  <path d="m5 0h15c2.7614 0 5 2.23858 5 5s-2.2386 5-5 5h-15c-2.76142 0-5-2.23858-5-5s2.23858-5 5-5z" fill="#fff" fill-rule="nonzero" stroke="none" transform="translate(-55 185)"/>
  <g fill="none" stroke="#ffc000">
   <g stroke-linecap="square" stroke-linejoin="bevel">
    <g clip-path="url(#ab)" transform="translate(-42 190)">
     <text fill="#ffc000" font-family="Arial" font-size="10" font-weight="400" stroke="none" textLength="5.54688" x="-2.76562" y="3.5">1</text>
    </g>
    <g clip-path="url(#ac)" transform="translate(.5 .5)">
     <path d="m-50 195 4-10" fill="none"/>
    </g>
    <g clip-path="url(#ad)" transform="translate(.5 .5)">
     <path d="m-39 195 4-10" fill="none"/>
    </g>
   </g>
   <g stroke-linejoin="miter" stroke-miterlimit="2">
    <path d="m5 0h15c2.7614 0 5 2.23858 5 5s-2.2386 5-5 5h-15c-2.76142 0-5-2.23858-5-5s2.23858-5 5-5z" stroke-linecap="butt" transform="translate(-55 185)"/>
    <path d="m0-5 5 5-5 5" stroke-linecap="round" stroke-width="2" transform="translate(-30 120)"/>
   </g>
  </g>
  <path d="m5 0h15c2.7614 0 5 2.23858 5 5s-2.2386 5-5 5h-15c-2.76142 0-5-2.23858-5-5s2.23858-5 5-5z" fill="#fff" fill-rule="nonzero" stroke="none" transform="translate(-55 115)"/>
  <g fill="none" stroke="#ffc000">
   <g stroke-linecap="square" stroke-linejoin="bevel">
    <g clip-path="url(#ae)" transform="translate(-42 120)">
     <text fill="#ffc000" font-family="Arial" font-size="10" font-weight="400" stroke="none" textLength="5.54688" x="-2.76562" y="3.5">2</text>
    </g>
    <g clip-path="url(#af)" transform="translate(.5 .5)">
     <path d="m-50 125 4-10" fill="none"/>
    </g>
    <g clip-path="url(#ag)" transform="translate(.5 .5)">
     <path d="m-39 125 4-10" fill="none"/>
    </g>
   </g>
   <path d="m5 0h15c2.7614 0 5 2.23858 5 5s-2.2386 5-5 5h-15c-2.76142 0-5-2.23858-5-5s2.23858-5 5-5z" stroke-linecap="butt" stroke-linejoin="miter" stroke-miterlimit="2" transform="translate(-55 115)"/>
  </g>
 </g>
</svg>
